{"glyphs":{"0":{"ha":856,"x_min":60,"x_max":806,"o":"m 463 994 q 630 949 563 994 q 736 828 697 903 q 790 664 775 753 q 801 488 806 575 q 771 312 797 401 q 696 147 744 222 q 575 24 647 71 q 407 -22 503 -22 q 233 23 301 -22 q 126 143 164 68 q 74 307 88 218 q 64 483 60 396 q 95 661 68 571 q 172 826 122 751 q 293 948 221 901 q 463 994 365 994 m 457 914 q 366 881 404 914 q 303 790 328 847 q 265 661 278 733 q 247 511 251 589 q 245 390 244 453 q 255 269 246 328 q 283 162 264 210 q 335 86 303 114 q 418 58 368 58 q 508 92 471 58 q 567 183 544 125 q 601 312 589 240 q 617 460 613 383 q 618 625 621 544 q 599 771 615 706 q 548 875 582 836 q 457 914 514 914 z "},"1":{"ha":532,"x_min":31,"x_max":467,"o":"m 410 994 l 369 203 q 365 137 368 168 q 358 88 361 106 q 415 90 382 89 q 467 92 447 92 l 461 0 l 83 0 l 88 76 q 149 89 125 78 q 185 128 172 100 q 200 210 199 157 l 229 800 l 68 704 l 31 774 l 338 994 l 410 994 z "},"2":{"ha":726,"x_min":31,"x_max":678,"o":"m 383 994 q 492 981 439 994 q 588 937 546 967 q 653 858 629 907 q 674 736 678 808 q 656 662 672 701 q 606 577 640 622 q 511 476 571 532 q 360 347 451 419 q 227 224 274 281 q 169 129 181 168 l 432 122 q 509 126 475 121 q 563 151 543 131 q 585 215 582 171 l 657 215 l 636 0 l 31 0 q 57 129 35 72 q 115 233 79 186 q 196 322 151 281 q 286 403 240 363 q 434 568 385 490 q 488 718 483 646 q 478 811 490 767 q 436 883 467 856 q 347 911 406 911 q 268 890 304 911 q 217 839 232 868 q 235 803 229 824 q 239 769 240 783 q 216 716 238 743 q 150 690 194 689 q 92 717 111 690 q 74 781 72 743 q 95 849 74 813 q 156 919 117 886 q 253 974 196 953 q 383 994 310 994 z "},"3":{"ha":758,"x_min":31,"x_max":701,"o":"m 321 -22 q 153 9 218 -22 q 60 88 89 40 q 33 181 31 135 q 60 246 36 219 q 122 274 85 272 q 169 262 151 275 q 194 230 186 249 q 200 193 201 211 q 194 164 200 181 q 178 132 189 147 q 230 82 190 99 q 314 65 269 65 q 457 121 406 65 q 514 263 508 176 q 508 333 515 296 q 481 401 501 369 q 421 453 460 433 q 321 472 382 472 q 281 471 304 472 q 242 468 257 469 l 246 556 q 269 554 258 554 l 292 554 q 401 581 357 554 q 469 648 446 607 q 496 735 493 689 q 488 826 499 786 q 446 889 476 867 q 361 911 415 911 q 303 900 331 911 q 257 872 276 889 q 229 838 238 856 q 245 805 242 824 q 247 775 249 786 q 238 740 247 758 q 210 708 228 721 q 163 696 192 694 q 106 722 125 696 q 86 783 86 747 q 123 874 89 825 q 224 959 157 924 q 388 994 290 994 q 535 971 469 994 q 640 894 601 947 q 672 750 678 840 q 647 666 671 711 q 576 583 624 621 q 449 528 528 546 q 642 435 582 507 q 697 272 701 364 q 642 112 693 178 q 507 12 590 46 q 321 -22 424 -22 z "},"4":{"ha":738,"x_min":1,"x_max":694,"o":"m 264 0 l 268 76 q 328 88 304 78 q 366 128 353 99 q 382 215 379 157 l 383 257 l 1 257 l 7 367 l 517 994 l 589 994 l 557 367 l 694 367 l 688 257 l 551 257 l 547 172 q 544 125 546 144 q 538 86 542 106 l 643 90 l 638 0 l 264 0 m 390 369 l 410 725 l 408 725 l 121 372 l 390 369 z "},"5":{"ha":732,"x_min":42,"x_max":685,"o":"m 672 1063 l 650 853 l 221 844 l 193 576 q 274 601 225 590 q 371 611 322 611 q 517 585 457 611 q 615 515 578 560 q 668 415 651 471 q 682 299 685 360 q 622 122 676 193 q 487 14 568 50 q 315 -22 406 -22 q 163 8 225 -22 q 72 82 101 38 q 43 171 42 126 q 70 236 46 208 q 132 264 94 264 q 179 253 161 265 q 205 222 197 240 q 211 185 213 203 q 206 158 210 174 q 192 128 201 142 q 216 91 196 106 q 263 69 236 76 q 314 61 290 61 q 413 93 374 63 q 472 172 451 124 q 494 271 493 219 q 494 348 497 306 q 474 431 490 390 q 421 497 457 471 q 321 522 385 522 q 245 512 290 522 q 153 472 200 501 l 103 515 l 136 972 l 481 972 q 569 990 538 972 q 601 1063 600 1008 l 672 1063 z "},"6":{"ha":775,"x_min":56,"x_max":715,"o":"m 464 994 q 603 966 550 994 q 682 895 657 938 q 704 813 707 853 q 681 751 703 778 q 621 725 658 725 q 559 751 576 725 q 542 803 542 776 q 548 831 543 814 q 564 861 553 849 q 528 898 556 881 q 460 913 501 915 q 376 883 411 910 q 317 815 342 857 q 276 722 292 772 q 252 619 261 671 q 240 525 243 568 q 290 567 260 547 q 360 601 321 588 q 439 615 399 614 q 572 592 518 617 q 658 524 626 568 q 703 421 690 479 q 713 297 715 363 q 662 138 708 211 q 539 22 615 65 q 365 -22 463 -22 q 174 36 243 -22 q 81 201 106 94 q 64 451 56 307 q 79 569 67 500 q 118 711 92 638 q 189 849 144 785 q 301 954 233 914 q 464 994 369 994 m 400 521 q 333 505 367 521 q 274 463 300 489 q 233 408 249 438 q 237 294 232 354 q 257 181 242 233 q 301 94 272 128 q 374 61 329 61 q 461 90 428 61 q 510 165 494 118 q 529 264 526 213 q 529 342 532 299 q 515 426 526 385 q 476 494 503 468 q 400 521 449 521 z "},"7":{"ha":635,"x_min":38,"x_max":644,"o":"m 251 -22 q 199 1 214 -21 q 183 50 183 22 q 194 106 183 72 q 228 192 206 139 q 289 322 251 244 q 354 460 317 381 q 438 638 392 540 q 539 847 485 736 l 222 849 q 141 828 172 850 q 107 749 110 807 l 38 749 l 57 972 l 644 972 l 639 857 q 546 667 586 758 q 474 483 506 575 q 412 292 442 392 q 347 76 382 192 q 315 8 336 39 q 251 -22 293 -22 z "},"8":{"ha":782,"x_min":64,"x_max":715,"o":"m 367 -22 q 261 -10 315 -22 q 162 30 207 3 q 90 103 117 57 q 67 217 64 150 q 100 323 71 272 q 176 416 129 374 q 272 486 222 458 q 144 610 182 544 q 108 733 106 676 q 142 849 113 800 q 219 931 172 899 q 320 978 265 963 q 429 994 375 994 q 563 968 500 994 q 665 890 626 942 q 700 764 704 839 q 669 670 697 715 q 600 589 642 625 q 515 529 558 553 q 603 453 565 486 q 667 390 642 421 q 703 323 692 358 q 713 236 715 288 q 658 90 708 147 q 531 6 608 33 q 367 -22 454 -22 m 374 61 q 488 103 444 60 q 536 208 532 146 q 530 273 539 243 q 498 331 521 303 q 438 386 475 358 q 349 444 401 414 q 253 337 283 397 q 219 232 222 276 q 256 110 213 157 q 374 61 299 63 m 440 575 q 527 662 493 611 q 564 754 561 713 q 531 871 571 831 q 432 911 492 911 q 353 892 388 911 q 301 840 319 872 q 279 769 282 808 q 297 693 278 731 q 353 626 317 656 q 440 575 390 596 z "},"9":{"ha":775,"x_min":69,"x_max":724,"o":"m 414 994 q 568 958 507 994 q 664 857 629 922 q 711 705 699 792 q 719 518 724 618 q 705 383 717 456 q 668 239 693 310 q 599 108 643 168 q 487 13 554 49 q 324 -22 419 -22 q 181 5 235 -22 q 103 74 126 32 q 82 161 79 117 q 108 224 85 196 q 168 251 131 251 q 229 226 213 251 q 244 174 246 200 q 238 144 244 163 q 221 115 232 126 q 257 78 232 96 q 328 61 282 60 q 411 87 375 63 q 472 151 447 111 q 513 242 496 192 q 537 345 529 292 q 544 449 544 399 q 463 388 517 417 q 347 357 410 360 q 214 381 268 357 q 128 451 160 406 q 83 554 96 496 q 74 676 69 613 q 122 840 79 768 q 240 953 165 911 q 414 994 315 996 m 406 913 q 325 883 357 913 q 276 808 293 854 q 256 708 258 761 q 256 631 254 675 q 271 547 258 588 q 311 479 283 506 q 388 453 339 453 q 453 468 421 453 q 510 508 485 483 q 549 563 535 533 q 547 693 551 631 q 526 805 542 756 q 481 883 510 854 q 406 913 451 913 z "},"A":{"ha":910,"x_min":-18,"x_max":888,"o":"m 514 997 l 774 229 q 793 163 782 206 q 804 88 804 119 l 888 92 l 883 0 l 535 0 l 539 76 q 599 94 582 76 q 614 142 615 113 q 601 201 613 171 l 572 296 l 251 290 l 215 197 q 194 144 207 174 q 168 90 181 114 l 271 94 l 265 0 l -18 0 l -14 79 q 49 101 24 79 q 92 160 74 124 q 131 243 111 197 l 442 997 l 514 997 m 433 771 q 409 697 425 742 q 369 596 393 653 l 286 379 l 547 379 l 481 588 q 454 683 467 635 q 433 771 442 731 z "},"Á":{"ha":910,"x_min":-18,"x_max":888,"o":"m 514 997 l 774 229 q 793 163 782 206 q 804 88 804 119 l 888 92 l 883 0 l 535 0 l 539 76 q 599 94 582 76 q 614 142 615 113 q 601 201 613 171 l 572 296 l 251 290 l 215 197 q 194 144 207 174 q 168 90 181 114 l 271 94 l 265 0 l -18 0 l -14 79 q 49 101 24 79 q 92 160 74 124 q 131 243 111 197 l 442 997 l 514 997 m 433 771 q 409 697 425 742 q 369 596 393 653 l 286 379 l 547 379 l 481 588 q 454 683 467 635 q 433 771 442 731 m 433 1067 l 392 1124 l 564 1288 q 609 1317 586 1308 q 652 1320 632 1325 q 683 1299 672 1315 q 694 1260 696 1281 q 679 1222 693 1240 q 639 1188 665 1203 l 433 1067 z "},"Ă":{"ha":910,"x_min":-18,"x_max":888,"o":"m 514 997 l 774 229 q 793 163 782 206 q 804 88 804 119 l 888 92 l 883 0 l 535 0 l 539 76 q 599 94 582 76 q 614 142 615 113 q 601 201 613 171 l 572 296 l 251 290 l 215 197 q 194 144 207 174 q 168 90 181 114 l 271 94 l 265 0 l -18 0 l -14 79 q 49 101 24 79 q 92 160 74 124 q 131 243 111 197 l 442 997 l 514 997 m 433 771 q 409 697 425 742 q 369 596 393 653 l 286 379 l 547 379 l 481 588 q 454 683 467 635 q 433 771 442 731 m 482 1104 q 394 1119 438 1104 q 317 1167 351 1135 q 263 1251 282 1199 l 331 1294 q 393 1241 353 1264 q 490 1218 433 1218 q 591 1241 549 1218 q 660 1294 633 1264 l 722 1251 q 656 1167 696 1199 q 572 1119 617 1135 q 482 1104 528 1104 z "},"Â":{"ha":910,"x_min":-18,"x_max":888,"o":"m 514 997 l 774 229 q 793 163 782 206 q 804 88 804 119 l 888 92 l 883 0 l 535 0 l 539 76 q 599 94 582 76 q 614 142 615 113 q 601 201 613 171 l 572 296 l 251 290 l 215 197 q 194 144 207 174 q 168 90 181 114 l 271 94 l 265 0 l -18 0 l -14 79 q 49 101 24 79 q 92 160 74 124 q 131 243 111 197 l 442 997 l 514 997 m 433 771 q 409 697 425 742 q 369 596 393 653 l 286 379 l 547 379 l 481 588 q 454 683 467 635 q 433 771 442 731 m 728 1075 l 481 1197 l 224 1078 l 199 1128 l 486 1331 l 504 1331 l 763 1126 l 728 1075 z "},"Ä":{"ha":910,"x_min":-18,"x_max":888,"o":"m 514 997 l 774 229 q 793 163 782 206 q 804 88 804 119 l 888 92 l 883 0 l 535 0 l 539 76 q 599 94 582 76 q 614 142 615 113 q 601 201 613 171 l 572 296 l 251 290 l 215 197 q 194 144 207 174 q 168 90 181 114 l 271 94 l 265 0 l -18 0 l -14 79 q 49 101 24 79 q 92 160 74 124 q 131 243 111 197 l 442 997 l 514 997 m 433 771 q 409 697 425 742 q 369 596 393 653 l 286 379 l 547 379 l 481 588 q 454 683 467 635 q 433 771 442 731 m 358 1100 q 303 1126 325 1100 q 281 1193 281 1153 q 308 1265 282 1235 q 371 1296 335 1296 q 426 1268 404 1296 q 446 1201 447 1240 q 420 1131 446 1161 q 358 1100 394 1100 m 594 1100 q 540 1126 561 1100 q 518 1193 518 1153 q 544 1265 518 1235 q 607 1296 571 1296 q 662 1268 642 1296 q 682 1201 682 1240 q 656 1130 682 1160 q 594 1100 631 1100 z "},"À":{"ha":910,"x_min":-18,"x_max":888,"o":"m 514 997 l 774 229 q 793 163 782 206 q 804 88 804 119 l 888 92 l 883 0 l 535 0 l 539 76 q 599 94 582 76 q 614 142 615 113 q 601 201 613 171 l 572 296 l 251 290 l 215 197 q 194 144 207 174 q 168 90 181 114 l 271 94 l 265 0 l -18 0 l -14 79 q 49 101 24 79 q 92 160 74 124 q 131 243 111 197 l 442 997 l 514 997 m 433 771 q 409 697 425 742 q 369 596 393 653 l 286 379 l 547 379 l 481 588 q 454 683 467 635 q 433 771 442 731 m 536 1067 l 338 1188 q 301 1222 314 1203 q 288 1262 288 1242 q 301 1299 289 1282 q 335 1320 315 1315 q 378 1317 356 1325 q 422 1288 401 1308 l 582 1125 l 536 1067 z "},"Å":{"ha":910,"x_min":-18,"x_max":888,"o":"m 514 997 l 774 229 q 793 163 782 206 q 804 88 804 119 l 888 92 l 883 0 l 535 0 l 539 76 q 599 94 582 76 q 614 142 615 113 q 601 201 613 171 l 572 296 l 251 290 l 215 197 q 194 144 207 174 q 168 90 181 114 l 271 94 l 265 0 l -18 0 l -14 79 q 49 101 24 79 q 92 160 74 124 q 131 243 111 197 l 442 997 l 514 997 m 433 771 q 409 697 425 742 q 369 596 393 653 l 286 379 l 547 379 l 481 588 q 454 683 467 635 q 433 771 442 731 m 482 1029 q 399 1047 439 1029 q 333 1100 358 1064 q 306 1193 307 1136 q 331 1284 306 1246 q 397 1344 357 1322 q 481 1365 438 1365 q 562 1348 522 1365 q 628 1294 601 1331 q 656 1200 656 1258 q 631 1108 657 1147 q 565 1049 604 1069 q 482 1029 525 1029 m 486 1090 q 531 1115 511 1090 q 551 1183 551 1139 q 531 1275 551 1243 q 478 1306 511 1307 q 428 1274 444 1306 q 411 1206 411 1242 q 432 1120 411 1151 q 486 1090 453 1089 z "},"Ã":{"ha":910,"x_min":-18,"x_max":888,"o":"m 514 997 l 774 229 q 793 163 782 206 q 804 88 804 119 l 888 92 l 883 0 l 535 0 l 539 76 q 599 94 582 76 q 614 142 615 113 q 601 201 613 171 l 572 296 l 251 290 l 215 197 q 194 144 207 174 q 168 90 181 114 l 271 94 l 265 0 l -18 0 l -14 79 q 49 101 24 79 q 92 160 74 124 q 131 243 111 197 l 442 997 l 514 997 m 433 771 q 409 697 425 742 q 369 596 393 653 l 286 379 l 547 379 l 481 588 q 454 683 467 635 q 433 771 442 731 m 378 1179 q 317 1164 350 1179 q 257 1107 285 1149 l 197 1144 q 279 1252 228 1217 q 378 1288 331 1288 q 442 1277 415 1289 q 492 1250 469 1265 q 537 1223 514 1235 q 586 1211 560 1211 q 651 1235 617 1211 q 706 1296 686 1258 l 767 1264 q 711 1163 742 1199 q 649 1115 681 1128 q 586 1103 617 1103 q 527 1114 553 1103 q 478 1140 501 1125 q 431 1167 454 1156 q 378 1179 407 1179 z "},"Æ":{"ha":1304,"x_min":-33,"x_max":1239,"o":"m -33 0 l -29 76 q 34 99 4 76 q 90 153 64 121 q 140 217 117 186 l 642 885 q 583 883 617 883 q 529 881 550 882 l 533 972 l 1225 972 l 1219 711 l 1143 711 q 1123 830 1147 790 q 1060 883 1099 869 q 976 896 1021 897 l 904 894 q 845 882 867 893 q 813 842 824 871 q 800 758 803 814 l 789 544 l 932 544 q 964 575 951 558 q 982 615 976 592 q 989 669 988 638 l 1075 669 l 1058 343 l 982 343 q 969 428 986 403 q 920 460 953 454 q 843 465 888 467 q 813 465 828 465 q 783 464 799 464 l 771 207 q 766 138 769 169 q 760 89 763 107 l 972 88 q 1063 107 1021 88 q 1131 172 1104 126 q 1163 294 1158 217 l 1239 294 l 1215 0 l 492 0 l 496 78 q 553 89 531 79 q 587 125 575 99 q 600 201 599 151 l 604 294 q 458 291 533 293 q 311 288 383 289 l 256 211 q 206 144 231 176 q 156 89 181 113 l 156 88 l 265 92 l 260 0 l -33 0 m 374 375 l 610 375 l 632 733 l 631 733 q 597 681 613 704 q 563 633 581 658 q 517 571 544 608 l 374 375 z "},"B":{"ha":897,"x_min":51,"x_max":847,"o":"m 460 975 q 715 915 624 976 q 793 728 806 854 q 765 646 789 686 q 694 574 740 606 q 578 525 647 542 l 578 524 q 783 438 719 508 q 843 275 847 368 q 792 125 839 186 q 670 32 746 64 q 497 0 594 0 l 51 0 l 56 76 q 115 90 93 78 q 147 133 138 103 q 160 217 157 163 l 189 765 q 194 835 192 803 q 200 885 197 867 q 147 883 178 883 q 97 881 115 882 l 103 972 q 280 974 192 974 q 460 975 368 974 m 465 460 l 401 460 q 343 457 372 460 l 331 203 q 325 134 329 165 q 318 85 321 103 q 368 84 343 85 q 417 84 393 83 q 458 85 440 85 q 601 138 550 88 q 656 275 651 189 q 633 385 660 344 q 563 443 607 426 q 465 460 518 460 m 456 893 q 405 885 425 893 q 374 850 385 876 q 360 771 363 824 l 347 542 q 389 542 368 542 q 429 543 410 543 q 535 572 496 546 q 594 642 575 599 q 614 738 613 686 q 593 833 617 799 q 532 881 569 867 q 456 893 494 894 z "},"C":{"ha":957,"x_min":53,"x_max":925,"o":"m 568 994 q 695 976 631 994 q 817 921 760 957 l 818 921 l 815 985 l 913 985 l 896 663 l 818 663 q 745 848 807 783 q 579 913 683 913 q 447 880 506 913 q 344 790 388 847 q 276 657 300 732 q 246 497 251 582 q 275 278 240 374 q 379 128 310 182 q 544 72 449 74 q 720 112 631 71 q 878 239 810 153 l 925 192 q 780 57 856 103 q 633 -6 704 11 q 504 -22 563 -22 q 314 16 399 -22 q 170 122 229 54 q 82 278 111 189 q 58 472 53 368 q 99 661 64 568 q 197 829 133 754 q 354 949 261 904 q 568 994 447 994 z "},"Ç":{"ha":957,"x_min":53,"x_max":925,"o":"m 568 994 q 695 976 631 994 q 817 921 760 957 l 818 921 l 815 985 l 913 985 l 896 663 l 818 663 q 745 848 807 783 q 579 913 683 913 q 447 880 506 913 q 344 790 388 847 q 276 657 300 732 q 246 497 251 582 q 275 278 240 374 q 379 128 310 182 q 544 72 449 74 q 720 112 631 71 q 878 239 810 153 l 925 192 q 780 57 856 103 q 633 -6 704 11 q 538 -21 582 -18 l 506 -97 q 556 -81 526 -87 q 603 -75 585 -74 q 676 -102 649 -75 q 700 -175 703 -129 q 663 -256 697 -221 q 578 -314 628 -290 q 475 -351 528 -337 q 383 -371 422 -365 l 376 -304 q 429 -291 400 -300 q 487 -269 458 -282 q 533 -237 515 -256 q 553 -199 551 -219 q 543 -169 554 -178 q 514 -160 532 -160 q 481 -166 499 -160 q 453 -181 464 -172 l 400 -160 l 442 -18 q 314 17 372 -11 q 170 122 229 54 q 82 278 111 189 q 58 472 53 368 q 99 661 64 568 q 197 829 133 754 q 354 949 261 904 q 568 994 447 994 z "},"D":{"ha":1040,"x_min":51,"x_max":994,"o":"m 478 974 q 707 938 610 974 q 869 836 804 901 q 964 686 933 771 q 992 504 994 601 q 955 324 989 414 q 853 162 921 235 q 681 44 785 89 q 433 0 576 0 l 51 0 l 56 76 q 115 90 93 78 q 147 131 138 101 q 160 214 157 161 l 189 768 q 195 835 192 803 q 201 885 199 867 q 147 883 178 883 q 97 881 117 882 l 103 972 l 478 974 m 469 894 q 406 885 429 896 q 372 846 382 874 q 358 764 361 818 l 329 207 q 325 138 328 169 q 319 88 322 106 q 363 87 339 88 q 413 85 388 86 q 457 85 438 85 q 642 141 567 85 q 759 290 718 197 q 803 488 800 382 q 723 790 810 689 q 469 894 636 892 z "},"Ð":{"ha":1040,"x_min":33,"x_max":994,"o":"m 33 432 l 39 546 l 178 546 l 189 768 q 195 835 192 803 q 201 885 199 867 q 147 883 178 883 q 97 881 117 882 l 103 972 l 478 974 q 707 938 610 974 q 869 836 804 901 q 964 686 933 771 q 992 504 994 601 q 955 324 989 414 q 853 162 921 235 q 681 44 785 89 q 433 0 576 0 l 51 0 l 56 76 q 115 90 93 78 q 147 131 138 101 q 160 214 157 161 l 171 435 l 33 432 m 469 894 q 406 885 429 896 q 372 846 382 874 q 358 764 361 818 l 347 546 l 503 546 l 497 440 l 342 438 l 329 207 q 325 138 328 169 q 319 88 322 106 q 363 87 339 88 q 413 85 388 86 q 457 85 438 85 q 642 141 567 85 q 759 290 718 197 q 803 488 800 382 q 723 790 810 689 q 469 894 636 892 z "},"E":{"ha":864,"x_min":51,"x_max":799,"o":"m 785 972 l 778 711 l 703 711 q 683 830 707 790 q 619 883 658 869 q 538 896 579 897 l 464 894 q 406 882 428 893 q 373 842 383 871 q 360 758 363 814 l 349 546 l 490 544 q 522 575 510 558 q 541 615 535 592 q 549 669 547 638 l 635 669 l 618 343 l 542 343 q 528 429 544 403 q 479 461 511 456 q 401 465 447 467 l 344 463 l 331 206 q 326 137 329 168 q 319 88 322 106 l 532 89 q 622 108 581 89 q 691 172 664 126 q 722 294 718 217 l 799 294 l 775 0 l 51 0 l 56 76 q 116 90 94 78 q 147 131 138 101 q 160 214 157 161 l 190 768 q 195 835 192 803 q 201 885 199 867 q 147 883 178 883 q 99 881 117 882 l 103 972 l 785 972 z "},"É":{"ha":864,"x_min":51,"x_max":799,"o":"m 785 972 l 778 711 l 703 711 q 683 830 707 790 q 619 883 658 869 q 538 896 579 897 l 464 894 q 406 882 428 893 q 373 842 383 871 q 360 758 363 814 l 349 546 l 490 544 q 522 575 510 558 q 541 615 535 592 q 549 669 547 638 l 635 669 l 618 343 l 542 343 q 528 429 544 403 q 479 461 511 456 q 401 465 447 467 l 344 463 l 331 206 q 326 137 329 168 q 319 88 322 106 l 532 89 q 622 108 581 89 q 691 172 664 126 q 722 294 718 217 l 799 294 l 775 0 l 51 0 l 56 76 q 116 90 94 78 q 147 131 138 101 q 160 214 157 161 l 190 768 q 195 835 192 803 q 201 885 199 867 q 147 883 178 883 q 99 881 117 882 l 103 972 l 785 972 m 450 1067 l 408 1124 l 581 1288 q 626 1317 603 1308 q 669 1320 649 1325 q 700 1299 689 1315 q 711 1260 713 1281 q 696 1222 710 1240 q 656 1188 682 1203 l 450 1067 z "},"Ê":{"ha":864,"x_min":51,"x_max":799,"o":"m 785 972 l 778 711 l 703 711 q 683 830 707 790 q 619 883 658 869 q 538 896 579 897 l 464 894 q 406 882 428 893 q 373 842 383 871 q 360 758 363 814 l 349 546 l 490 544 q 522 575 510 558 q 541 615 535 592 q 549 669 547 638 l 635 669 l 618 343 l 542 343 q 528 429 544 403 q 479 461 511 456 q 401 465 447 467 l 344 463 l 331 206 q 326 137 329 168 q 319 88 322 106 l 532 89 q 622 108 581 89 q 691 172 664 126 q 722 294 718 217 l 799 294 l 775 0 l 51 0 l 56 76 q 116 90 94 78 q 147 131 138 101 q 160 214 157 161 l 190 768 q 195 835 192 803 q 201 885 199 867 q 147 883 178 883 q 99 881 117 882 l 103 972 l 785 972 m 743 1075 l 496 1197 l 239 1078 l 214 1128 l 501 1331 l 519 1331 l 778 1126 l 743 1075 z "},"Ë":{"ha":864,"x_min":51,"x_max":799,"o":"m 785 972 l 778 711 l 703 711 q 683 830 707 790 q 619 883 658 869 q 538 896 579 897 l 464 894 q 406 882 428 893 q 373 842 383 871 q 360 758 363 814 l 349 546 l 490 544 q 522 575 510 558 q 541 615 535 592 q 549 669 547 638 l 635 669 l 618 343 l 542 343 q 528 429 544 403 q 479 461 511 456 q 401 465 447 467 l 344 463 l 331 206 q 326 137 329 168 q 319 88 322 106 l 532 89 q 622 108 581 89 q 691 172 664 126 q 722 294 718 217 l 799 294 l 775 0 l 51 0 l 56 76 q 116 90 94 78 q 147 131 138 101 q 160 214 157 161 l 190 768 q 195 835 192 803 q 201 885 199 867 q 147 883 178 883 q 99 881 117 882 l 103 972 l 785 972 m 375 1100 q 319 1126 342 1100 q 297 1193 297 1153 q 325 1265 299 1235 q 388 1296 351 1296 q 442 1268 421 1296 q 463 1201 464 1240 q 437 1131 463 1161 q 375 1100 411 1100 m 611 1100 q 556 1126 578 1100 q 535 1193 535 1153 q 561 1265 535 1235 q 624 1296 588 1296 q 678 1268 658 1296 q 699 1201 699 1240 q 673 1130 699 1160 q 611 1100 647 1100 z "},"È":{"ha":864,"x_min":51,"x_max":799,"o":"m 785 972 l 778 711 l 703 711 q 683 830 707 790 q 619 883 658 869 q 538 896 579 897 l 464 894 q 406 882 428 893 q 373 842 383 871 q 360 758 363 814 l 349 546 l 490 544 q 522 575 510 558 q 541 615 535 592 q 549 669 547 638 l 635 669 l 618 343 l 542 343 q 528 429 544 403 q 479 461 511 456 q 401 465 447 467 l 344 463 l 331 206 q 326 137 329 168 q 319 88 322 106 l 532 89 q 622 108 581 89 q 691 172 664 126 q 722 294 718 217 l 799 294 l 775 0 l 51 0 l 56 76 q 116 90 94 78 q 147 131 138 101 q 160 214 157 161 l 190 768 q 195 835 192 803 q 201 885 199 867 q 147 883 178 883 q 99 881 117 882 l 103 972 l 785 972 m 553 1067 l 354 1188 q 317 1222 331 1203 q 305 1262 304 1242 q 318 1299 306 1282 q 352 1320 332 1315 q 395 1317 372 1325 q 439 1288 418 1308 l 599 1125 l 553 1067 z "},"F":{"ha":775,"x_min":51,"x_max":776,"o":"m 776 972 l 771 711 l 694 711 q 674 830 699 790 q 610 883 650 869 q 528 896 571 897 l 461 894 q 403 882 425 893 q 372 842 382 871 q 360 763 363 814 l 346 515 l 479 515 q 506 546 496 529 q 521 585 515 563 q 528 639 526 608 l 614 639 l 597 313 l 521 313 q 508 397 524 371 q 462 429 492 422 q 390 435 432 436 l 367 435 q 343 433 354 435 l 331 207 q 326 138 329 169 q 319 88 322 106 q 362 90 338 89 q 410 91 386 90 q 449 92 433 92 l 443 0 l 51 0 l 56 76 q 116 90 94 78 q 148 131 138 101 q 160 214 158 161 l 190 768 q 195 835 192 803 q 201 885 199 867 q 147 883 178 883 q 99 881 117 882 l 103 972 l 776 972 z "},"G":{"ha":1049,"x_min":51,"x_max":1025,"o":"m 504 -22 q 255 41 357 -22 q 102 216 153 104 q 60 469 51 328 q 99 659 64 565 q 197 828 133 753 q 353 949 261 904 q 567 994 446 994 q 656 986 608 994 q 751 963 704 978 q 835 924 799 947 l 833 985 l 931 985 l 914 663 l 836 663 q 796 799 831 744 q 705 881 761 853 q 578 910 649 910 q 446 876 506 910 q 344 786 386 843 q 276 656 301 729 q 246 499 251 582 q 273 280 240 376 q 375 128 306 183 q 544 74 444 74 q 613 78 574 74 q 690 94 651 83 q 758 121 729 106 l 767 261 q 772 333 769 299 q 776 392 774 368 q 722 390 753 390 q 674 388 692 389 l 679 479 l 1025 479 l 1022 403 q 974 392 993 401 q 944 365 956 382 q 927 323 932 347 q 919 267 922 299 l 908 49 l 875 49 q 806 40 843 49 q 724 15 768 31 q 622 -10 678 1 q 504 -22 565 -22 z "},"H":{"ha":1100,"x_min":51,"x_max":1060,"o":"m 1060 972 l 1056 896 q 998 884 1021 894 q 964 847 975 874 q 950 764 953 819 l 921 207 q 916 138 919 169 q 910 88 913 106 q 964 90 933 89 q 1013 92 994 92 l 1008 0 l 643 0 l 646 76 q 707 90 685 78 q 739 131 729 101 q 751 214 749 161 l 764 449 l 343 443 l 331 207 q 326 138 329 169 q 319 88 322 106 q 374 90 343 89 q 422 92 404 92 l 418 0 l 51 0 l 56 76 q 116 90 94 78 q 147 131 138 101 q 160 214 157 161 l 189 768 q 195 835 192 803 q 201 885 199 867 q 147 883 178 883 q 99 881 117 882 l 103 972 l 468 972 l 464 896 q 407 884 429 894 q 374 846 385 874 q 360 764 363 818 l 347 538 l 768 538 l 781 768 q 786 835 783 803 q 792 885 789 867 q 738 883 769 883 q 689 881 707 882 l 693 972 l 1060 972 z "},"I":{"ha":510,"x_min":51,"x_max":468,"o":"m 468 972 l 464 896 q 406 883 428 894 q 373 845 383 872 q 360 763 363 818 l 331 207 q 326 138 329 169 q 319 88 322 106 q 374 90 343 89 q 422 92 404 92 l 418 0 l 51 0 l 56 76 q 116 90 94 78 q 148 131 138 101 q 160 214 158 161 l 189 768 q 195 835 192 803 q 201 885 199 867 q 147 883 178 883 q 99 881 117 882 l 103 972 l 468 972 z "},"Í":{"ha":510,"x_min":51,"x_max":528,"o":"m 468 972 l 464 896 q 406 883 428 894 q 373 845 383 872 q 360 763 363 818 l 331 207 q 326 138 329 169 q 319 88 322 106 q 374 90 343 89 q 422 92 404 92 l 418 0 l 51 0 l 56 76 q 116 90 94 78 q 148 131 138 101 q 160 214 158 161 l 189 768 q 195 835 192 803 q 201 885 199 867 q 147 883 178 883 q 99 881 117 882 l 103 972 l 468 972 m 264 1067 l 222 1124 l 394 1288 q 440 1317 417 1308 q 483 1320 463 1325 q 514 1299 503 1315 q 525 1260 526 1281 q 510 1222 524 1240 q 469 1188 496 1203 l 264 1067 z "},"Î":{"ha":510,"x_min":51,"x_max":536,"o":"m 468 972 l 464 896 q 406 883 428 894 q 373 845 383 872 q 360 763 363 818 l 331 207 q 326 138 329 169 q 319 88 322 106 q 374 90 343 89 q 422 92 404 92 l 418 0 l 51 0 l 56 76 q 116 90 94 78 q 148 131 138 101 q 160 214 158 161 l 189 768 q 195 835 192 803 q 201 885 199 867 q 147 883 178 883 q 99 881 117 882 l 103 972 l 468 972 m 488 1067 l 307 1199 l 113 1072 l 71 1125 l 311 1332 l 325 1332 l 536 1121 l 488 1067 z "},"Ï":{"ha":510,"x_min":51,"x_max":514,"o":"m 468 972 l 464 896 q 406 883 428 894 q 373 845 383 872 q 360 763 363 818 l 331 207 q 326 138 329 169 q 319 88 322 106 q 374 90 343 89 q 422 92 404 92 l 418 0 l 51 0 l 56 76 q 116 90 94 78 q 148 131 138 101 q 160 214 158 161 l 189 768 q 195 835 192 803 q 201 885 199 867 q 147 883 178 883 q 99 881 117 882 l 103 972 l 468 972 m 189 1100 q 133 1126 156 1100 q 111 1193 111 1153 q 139 1265 113 1235 q 201 1296 165 1296 q 256 1268 235 1296 q 276 1201 278 1240 q 251 1131 276 1161 q 189 1100 225 1100 m 425 1100 q 370 1126 392 1100 q 349 1193 349 1153 q 375 1265 349 1235 q 438 1296 401 1296 q 492 1268 472 1296 q 513 1201 513 1240 q 487 1130 513 1160 q 425 1100 461 1100 z "},"Ì":{"ha":510,"x_min":51,"x_max":468,"o":"m 468 972 l 464 896 q 406 883 428 894 q 373 845 383 872 q 360 763 363 818 l 331 207 q 326 138 329 169 q 319 88 322 106 q 374 90 343 89 q 422 92 404 92 l 418 0 l 51 0 l 56 76 q 116 90 94 78 q 148 131 138 101 q 160 214 158 161 l 189 768 q 195 835 192 803 q 201 885 199 867 q 147 883 178 883 q 99 881 117 882 l 103 972 l 468 972 m 368 1067 l 169 1188 q 133 1222 146 1203 q 120 1262 119 1242 q 133 1299 121 1282 q 167 1320 147 1315 q 210 1317 188 1325 q 254 1288 233 1308 l 414 1125 l 368 1067 z "},"J":{"ha":582,"x_min":-18,"x_max":575,"o":"m 575 972 l 571 896 q 512 884 535 894 q 477 847 489 874 q 463 769 465 821 l 440 349 q 400 134 433 215 q 306 15 367 53 q 156 -22 246 -22 q 69 -6 108 -22 q 6 40 29 10 q -17 110 -18 69 q 8 179 -15 149 q 71 211 31 210 q 137 188 118 214 q 156 131 156 161 q 153 108 156 121 q 144 85 150 96 q 165 67 151 72 q 188 63 179 63 q 223 74 207 64 q 249 114 239 85 q 263 196 260 143 l 292 751 q 297 824 294 789 q 303 885 300 860 q 262 884 285 885 q 217 883 239 883 q 181 881 196 882 l 186 972 l 575 972 z "},"K":{"ha":967,"x_min":51,"x_max":951,"o":"m 51 0 l 56 76 q 116 90 94 78 q 148 131 138 101 q 160 214 158 161 l 189 768 q 195 835 192 803 q 201 885 199 867 q 147 883 178 883 q 99 881 117 882 l 103 972 l 468 972 l 464 896 q 407 883 429 894 q 374 845 385 872 q 360 763 363 818 l 347 542 l 451 542 l 590 754 q 643 830 615 792 q 694 886 671 868 q 648 884 672 885 q 607 882 624 883 l 610 972 l 936 972 l 933 896 q 853 882 893 893 q 774 838 814 871 q 688 739 733 806 l 543 524 q 595 481 574 504 q 633 431 617 457 l 769 226 q 833 144 803 178 q 892 94 863 111 q 951 76 921 78 l 946 0 l 751 0 q 715 24 739 1 q 667 78 692 46 q 621 140 642 111 l 485 349 q 443 406 465 378 q 401 450 421 435 q 376 449 394 450 q 343 449 358 449 l 331 207 q 326 138 329 169 q 319 88 322 106 q 374 90 343 89 q 422 92 404 92 l 418 0 l 51 0 z "},"L":{"ha":828,"x_min":51,"x_max":794,"o":"m 51 0 l 56 76 q 115 90 93 78 q 147 131 136 101 q 160 214 157 161 l 189 768 q 194 835 192 803 q 201 885 197 867 q 147 883 178 883 q 99 881 117 882 l 103 972 l 468 972 l 464 896 q 406 883 428 894 q 372 842 383 871 q 358 758 361 813 l 329 206 q 325 137 328 168 q 319 88 322 106 l 529 89 q 663 145 614 89 q 718 318 713 201 l 794 318 l 771 0 l 51 0 z "},"M":{"ha":1322,"x_min":43,"x_max":1269,"o":"m 560 -14 l 367 510 q 342 580 356 539 q 316 669 329 621 q 292 769 303 718 l 290 769 q 285 631 288 697 q 278 503 282 564 l 256 210 q 249 142 253 175 q 242 88 246 108 q 298 90 267 89 q 347 92 329 92 l 343 0 l 43 0 l 49 76 q 105 88 83 78 q 137 125 126 99 q 151 200 147 151 l 196 763 q 202 831 199 797 q 208 885 206 864 q 155 883 186 883 q 106 881 124 882 l 111 972 l 378 972 l 576 424 q 616 305 599 361 q 650 196 633 249 l 651 196 q 691 290 671 240 q 729 382 711 340 q 815 578 771 479 q 902 776 858 678 q 988 972 946 875 l 1269 972 l 1265 896 q 1210 886 1233 896 q 1174 849 1186 876 q 1160 765 1161 822 l 1157 200 q 1154 136 1157 167 q 1147 88 1151 106 q 1203 90 1172 89 q 1253 92 1235 92 l 1247 0 l 886 0 l 890 76 q 947 88 925 78 q 981 126 969 97 q 993 213 993 154 l 996 567 l 996 619 q 997 694 996 654 q 997 771 997 735 l 994 771 l 935 629 l 657 -14 l 560 -14 z "},"N":{"ha":1068,"x_min":54,"x_max":1047,"o":"m 799 -14 l 365 592 q 326 647 346 618 q 286 706 306 676 l 283 706 l 264 217 q 259 144 263 179 q 251 88 256 110 q 307 90 276 89 q 356 92 338 92 l 350 0 l 54 0 l 58 76 q 116 88 94 78 q 149 124 138 99 q 161 193 160 150 l 188 756 q 193 826 190 792 q 197 885 196 861 q 144 883 175 883 q 96 881 114 882 l 101 972 l 303 972 l 714 404 q 769 326 744 361 q 813 260 793 290 l 814 260 l 839 768 q 844 835 842 804 q 850 885 847 867 q 797 883 828 883 q 747 881 765 882 l 753 972 l 1047 972 l 1044 896 q 984 883 1006 894 q 953 842 963 871 q 940 758 943 813 l 899 -14 l 799 -14 z "},"Ñ":{"ha":1068,"x_min":54,"x_max":1047,"o":"m 799 -14 l 365 592 q 326 647 346 618 q 286 706 306 676 l 283 706 l 264 217 q 259 144 263 179 q 251 88 256 110 q 307 90 276 89 q 356 92 338 92 l 350 0 l 54 0 l 58 76 q 116 88 94 78 q 149 124 138 99 q 161 193 160 150 l 188 756 q 193 826 190 792 q 197 885 196 861 q 144 883 175 883 q 96 881 114 882 l 101 972 l 303 972 l 714 404 q 769 326 744 361 q 813 260 793 290 l 814 260 l 839 768 q 844 835 842 804 q 850 885 847 867 q 797 883 828 883 q 747 881 765 882 l 753 972 l 1047 972 l 1044 896 q 984 883 1006 894 q 953 842 963 871 q 940 758 943 813 l 899 -14 l 799 -14 m 475 1179 q 415 1164 447 1179 q 354 1107 382 1149 l 294 1144 q 376 1252 325 1217 q 475 1288 428 1288 q 540 1277 513 1289 q 589 1250 567 1265 q 634 1223 611 1235 q 683 1211 657 1211 q 749 1235 714 1211 q 803 1296 783 1258 l 864 1264 q 808 1163 839 1199 q 746 1115 778 1128 q 683 1103 714 1103 q 624 1114 650 1103 q 575 1140 599 1125 q 528 1167 551 1156 q 475 1179 504 1179 z "},"O":{"ha":1071,"x_min":56,"x_max":1024,"o":"m 567 994 q 780 949 692 994 q 922 831 868 904 q 1000 669 976 757 q 1021 494 1024 582 q 985 317 1018 408 q 890 149 953 226 q 733 25 826 72 q 515 -22 640 -22 q 297 22 386 -22 q 155 138 208 65 q 78 299 101 211 q 60 475 56 388 q 97 662 63 569 q 195 829 131 754 q 353 949 260 904 q 567 994 446 994 m 549 913 q 416 874 472 913 q 323 773 360 835 q 267 639 286 711 q 247 497 249 567 q 256 353 243 429 q 302 211 269 278 q 390 102 335 144 q 531 60 446 60 q 665 98 608 60 q 758 197 721 136 q 813 331 794 258 q 835 472 832 403 q 822 643 838 563 q 770 785 806 724 q 680 880 735 846 q 549 913 625 914 z "},"Ó":{"ha":1071,"x_min":56,"x_max":1024,"o":"m 567 994 q 780 949 692 994 q 922 831 868 904 q 1000 669 976 757 q 1021 494 1024 582 q 985 317 1018 408 q 890 149 953 226 q 733 25 826 72 q 515 -22 640 -22 q 297 22 386 -22 q 155 138 208 65 q 78 299 101 211 q 60 475 56 388 q 97 662 63 569 q 195 829 131 754 q 353 949 260 904 q 567 994 446 994 m 549 913 q 416 874 472 913 q 323 773 360 835 q 267 639 286 711 q 247 497 249 567 q 256 353 243 429 q 302 211 269 278 q 390 102 335 144 q 531 60 446 60 q 665 98 608 60 q 758 197 721 136 q 813 331 794 258 q 835 472 832 403 q 822 643 838 563 q 770 785 806 724 q 680 880 735 846 q 549 913 625 914 m 526 1067 l 485 1124 l 657 1288 q 702 1317 679 1308 q 745 1320 725 1325 q 776 1299 765 1315 q 788 1260 789 1281 q 772 1222 786 1240 q 732 1188 758 1203 l 526 1067 z "},"Ô":{"ha":1071,"x_min":56,"x_max":1024,"o":"m 567 994 q 780 949 692 994 q 922 831 868 904 q 1000 669 976 757 q 1021 494 1024 582 q 985 317 1018 408 q 890 149 953 226 q 733 25 826 72 q 515 -22 640 -22 q 297 22 386 -22 q 155 138 208 65 q 78 299 101 211 q 60 475 56 388 q 97 662 63 569 q 195 829 131 754 q 353 949 260 904 q 567 994 446 994 m 549 913 q 416 874 472 913 q 323 773 360 835 q 267 639 286 711 q 247 497 249 567 q 256 353 243 429 q 302 211 269 278 q 390 102 335 144 q 531 60 446 60 q 665 98 608 60 q 758 197 721 136 q 813 331 794 258 q 835 472 832 403 q 822 643 838 563 q 770 785 806 724 q 680 880 735 846 q 549 913 625 914 m 821 1075 l 574 1197 l 317 1078 l 292 1128 l 579 1331 l 597 1331 l 856 1126 l 821 1075 z "},"Ö":{"ha":1071,"x_min":56,"x_max":1024,"o":"m 567 994 q 780 949 692 994 q 922 831 868 904 q 1000 669 976 757 q 1021 494 1024 582 q 985 317 1018 408 q 890 149 953 226 q 733 25 826 72 q 515 -22 640 -22 q 297 22 386 -22 q 155 138 208 65 q 78 299 101 211 q 60 475 56 388 q 97 662 63 569 q 195 829 131 754 q 353 949 260 904 q 567 994 446 994 m 549 913 q 416 874 472 913 q 323 773 360 835 q 267 639 286 711 q 247 497 249 567 q 256 353 243 429 q 302 211 269 278 q 390 102 335 144 q 531 60 446 60 q 665 98 608 60 q 758 197 721 136 q 813 331 794 258 q 835 472 832 403 q 822 643 838 563 q 770 785 806 724 q 680 880 735 846 q 549 913 625 914 m 451 1100 q 396 1126 418 1100 q 374 1193 374 1153 q 401 1265 375 1235 q 464 1296 428 1296 q 519 1268 497 1296 q 539 1201 540 1240 q 513 1131 539 1161 q 451 1100 488 1100 m 688 1100 q 633 1126 654 1100 q 611 1193 611 1153 q 638 1265 611 1235 q 700 1296 664 1296 q 755 1268 735 1296 q 775 1201 775 1240 q 749 1130 775 1160 q 688 1100 724 1100 z "},"Ò":{"ha":1071,"x_min":56,"x_max":1024,"o":"m 567 994 q 780 949 692 994 q 922 831 868 904 q 1000 669 976 757 q 1021 494 1024 582 q 985 317 1018 408 q 890 149 953 226 q 733 25 826 72 q 515 -22 640 -22 q 297 22 386 -22 q 155 138 208 65 q 78 299 101 211 q 60 475 56 388 q 97 662 63 569 q 195 829 131 754 q 353 949 260 904 q 567 994 446 994 m 549 913 q 416 874 472 913 q 323 773 360 835 q 267 639 286 711 q 247 497 249 567 q 256 353 243 429 q 302 211 269 278 q 390 102 335 144 q 531 60 446 60 q 665 98 608 60 q 758 197 721 136 q 813 331 794 258 q 835 472 832 403 q 822 643 838 563 q 770 785 806 724 q 680 880 735 846 q 549 913 625 914 m 629 1067 l 431 1188 q 394 1222 407 1203 q 381 1262 381 1242 q 394 1299 382 1282 q 428 1320 408 1315 q 472 1317 449 1325 q 515 1288 494 1308 l 675 1125 l 629 1067 z "},"Ø":{"ha":1069,"x_min":57,"x_max":1025,"o":"m 225 -131 l 138 -71 l 225 65 q 125 182 163 115 q 72 324 88 249 q 60 475 57 400 q 97 662 63 569 q 195 829 131 754 q 353 949 260 904 q 567 994 446 994 q 685 982 631 994 q 783 947 739 969 l 865 1075 l 958 1014 l 875 883 q 990 703 956 808 q 1021 494 1025 597 q 985 317 1018 408 q 889 149 951 226 q 733 25 826 72 q 514 -22 639 -22 q 408 -12 457 -22 q 318 14 360 -3 l 225 -131 m 310 200 l 721 847 q 644 897 688 881 q 549 913 601 914 q 416 874 472 913 q 323 773 360 835 q 267 639 286 711 q 246 497 249 567 q 258 347 243 426 q 310 200 272 267 m 529 60 q 665 98 608 60 q 758 197 721 136 q 813 331 794 258 q 833 472 832 403 q 824 619 836 549 q 786 746 813 689 l 379 110 q 447 73 410 86 q 529 60 483 60 z "},"Õ":{"ha":1071,"x_min":56,"x_max":1024,"o":"m 567 994 q 780 949 692 994 q 922 831 868 904 q 1000 669 976 757 q 1021 494 1024 582 q 985 317 1018 408 q 890 149 953 226 q 733 25 826 72 q 515 -22 640 -22 q 297 22 386 -22 q 155 138 208 65 q 78 299 101 211 q 60 475 56 388 q 97 662 63 569 q 195 829 131 754 q 353 949 260 904 q 567 994 446 994 m 549 913 q 416 874 472 913 q 323 773 360 835 q 267 639 286 711 q 247 497 249 567 q 256 353 243 429 q 302 211 269 278 q 390 102 335 144 q 531 60 446 60 q 665 98 608 60 q 758 197 721 136 q 813 331 794 258 q 835 472 832 403 q 822 643 838 563 q 770 785 806 724 q 680 880 735 846 q 549 913 625 914 m 471 1179 q 410 1164 443 1179 q 350 1107 378 1149 l 290 1144 q 372 1252 321 1217 q 471 1288 424 1288 q 535 1277 508 1289 q 585 1250 563 1265 q 630 1223 607 1235 q 679 1211 653 1211 q 744 1235 710 1211 q 799 1296 779 1258 l 860 1264 q 804 1163 835 1199 q 742 1115 774 1128 q 679 1103 710 1103 q 620 1114 646 1103 q 571 1140 594 1125 q 524 1167 547 1156 q 471 1179 500 1179 z "},"Œ":{"ha":1408,"x_min":51,"x_max":1343,"o":"m 504 -22 q 261 43 364 -21 q 105 217 158 107 q 58 464 51 326 q 97 654 64 561 q 193 824 131 747 q 351 947 256 901 q 576 994 446 993 q 660 988 611 994 q 754 972 710 982 l 1329 972 l 1324 711 l 1247 711 q 1227 830 1251 790 q 1164 883 1203 869 q 1081 896 1125 897 l 1008 894 q 949 882 971 893 q 917 842 928 871 q 904 758 907 814 l 893 544 l 1036 544 q 1068 575 1056 558 q 1086 615 1081 592 q 1093 669 1092 638 l 1179 669 l 1163 343 l 1086 343 q 1074 428 1090 403 q 1024 460 1057 454 q 947 465 992 467 q 918 465 933 465 q 888 463 903 464 l 875 208 q 870 140 874 171 q 864 90 867 108 l 1076 88 q 1166 106 1125 88 q 1235 171 1207 125 q 1267 294 1263 217 l 1343 294 l 1319 0 l 703 0 q 599 -18 650 -12 q 504 -22 549 -24 m 546 74 q 626 77 589 72 q 700 94 663 82 l 733 749 q 738 814 736 782 q 743 871 740 846 q 663 900 707 890 q 574 908 619 910 q 402 851 474 906 q 291 703 331 796 q 246 497 251 611 q 274 280 240 374 q 376 133 307 186 q 546 74 444 79 z "},"P":{"ha":861,"x_min":51,"x_max":858,"o":"m 465 975 q 680 944 592 976 q 813 844 768 911 q 851 674 858 778 q 824 564 849 619 q 748 463 799 508 q 617 388 697 417 q 424 356 536 358 l 379 356 q 339 357 358 356 l 331 208 q 326 138 329 169 q 319 88 322 106 q 360 90 338 89 l 404 92 q 440 92 426 92 l 436 0 l 51 0 l 56 76 q 116 90 94 78 q 148 131 138 101 q 160 214 158 161 l 189 768 q 195 835 192 803 q 201 885 199 867 q 147 883 178 883 q 97 881 117 882 l 103 972 q 283 974 193 974 q 465 975 374 974 m 458 892 q 403 881 425 892 q 372 843 382 871 q 360 767 363 815 l 343 446 q 379 442 363 443 q 415 442 396 442 q 547 469 492 442 q 633 548 603 496 q 668 675 664 600 q 653 786 671 743 q 605 852 636 829 q 535 883 574 875 q 458 892 497 892 z "},"Þ":{"ha":850,"x_min":51,"x_max":836,"o":"m 51 0 l 56 76 q 116 90 94 78 q 148 131 138 101 q 160 214 158 161 l 189 768 q 195 835 192 803 q 201 885 199 867 q 147 883 178 883 q 99 881 117 882 l 103 972 l 468 972 l 464 896 q 392 875 415 894 q 361 794 368 856 q 403 796 382 796 l 442 796 q 656 768 568 797 q 790 677 744 739 q 831 514 836 615 q 802 408 828 461 q 724 313 776 356 q 592 243 672 269 q 397 214 511 217 l 331 214 q 326 154 328 178 q 323 115 325 131 q 319 88 321 99 q 374 90 343 89 q 422 92 404 92 l 418 0 l 51 0 m 335 300 q 363 299 349 299 l 390 299 q 575 354 511 299 q 644 514 639 410 q 630 619 649 579 q 578 678 611 658 q 507 706 546 699 q 432 713 468 713 l 357 713 l 335 300 z "},"Q":{"ha":1072,"x_min":56,"x_max":1071,"o":"m 568 994 q 781 949 693 994 q 924 831 869 904 q 1003 669 979 757 q 1024 494 1026 582 q 998 347 1021 422 q 931 203 975 272 q 821 82 886 135 q 669 3 756 29 l 669 1 q 740 -4 708 1 q 802 -26 771 -10 q 871 -81 833 -43 q 951 -157 921 -128 q 1000 -201 982 -186 q 1034 -220 1018 -215 q 1071 -225 1050 -225 l 1068 -303 l 1015 -303 q 919 -299 956 -303 q 851 -278 882 -294 q 782 -226 821 -262 q 703 -148 738 -185 q 640 -83 669 -111 q 580 -38 611 -54 q 506 -22 549 -22 q 292 22 379 -22 q 153 139 206 67 q 78 299 100 211 q 58 475 56 388 q 97 662 61 569 q 196 829 132 754 q 353 949 260 904 q 568 994 447 994 m 550 908 q 417 869 472 907 q 324 771 361 832 q 269 638 288 710 q 247 497 250 567 q 258 354 244 429 q 303 213 271 279 q 390 106 335 147 q 531 64 446 64 q 665 101 608 64 q 758 199 721 139 q 814 331 796 260 q 835 472 832 403 q 822 642 838 563 q 772 782 807 722 q 681 876 736 842 q 550 908 626 910 z "},"R":{"ha":919,"x_min":51,"x_max":890,"o":"m 468 975 q 679 944 594 975 q 805 852 764 914 q 839 692 846 790 q 807 581 835 635 q 724 486 779 528 q 578 421 668 444 q 605 399 593 410 q 627 378 617 389 q 648 354 638 368 q 669 322 658 340 l 738 207 q 785 135 764 164 q 831 92 807 107 q 890 76 856 78 l 886 0 l 679 0 q 628 57 654 21 q 578 139 603 93 l 488 299 q 456 353 471 328 q 422 397 440 379 q 393 396 408 396 q 365 397 378 396 q 340 397 351 397 l 331 208 q 326 138 329 169 q 319 88 322 106 q 356 90 335 89 q 398 91 378 90 q 431 92 418 92 l 426 0 l 51 0 l 56 76 q 116 90 94 78 q 148 131 138 101 q 160 214 158 161 l 189 768 q 195 835 192 803 q 201 885 199 867 q 147 883 178 883 q 97 881 117 882 l 103 972 q 285 974 194 974 q 468 975 376 975 m 461 893 q 403 882 425 893 q 372 843 382 871 q 360 767 363 815 l 344 485 l 381 482 q 418 481 399 481 q 548 504 496 482 q 628 574 600 526 q 660 694 656 621 q 645 796 663 757 q 599 856 628 835 q 533 885 569 878 q 461 893 496 893 z "},"S":{"ha":818,"x_min":63,"x_max":760,"o":"m 394 -22 q 276 -6 342 -22 q 157 43 210 10 l 158 -12 l 63 -12 l 76 303 l 156 303 q 194 170 161 224 q 283 90 228 117 q 404 64 338 64 q 497 83 456 64 q 564 134 539 101 q 592 208 589 167 q 561 301 594 264 q 475 363 528 338 q 365 414 422 389 q 220 489 286 447 q 117 590 154 531 q 85 736 81 649 q 105 822 88 776 q 160 906 122 867 q 258 969 197 944 q 410 994 319 994 q 529 978 464 994 q 642 926 594 963 l 640 985 l 735 985 l 719 667 l 642 667 q 608 795 636 740 q 531 880 581 850 q 411 910 482 910 q 295 871 343 910 q 244 775 247 832 q 267 694 243 728 q 338 631 290 660 q 453 574 385 603 q 560 524 506 551 q 660 459 614 496 q 733 372 706 422 q 756 253 760 321 q 707 110 753 172 q 581 13 661 47 q 394 -22 501 -22 z "},"T":{"ha":894,"x_min":43,"x_max":894,"o":"m 894 972 l 886 665 l 808 665 q 794 794 811 743 q 741 869 778 844 q 646 893 704 894 l 561 893 l 524 207 q 519 138 522 169 q 513 88 515 106 q 551 90 529 89 q 592 91 572 90 q 625 92 613 92 l 621 0 l 244 0 l 250 76 q 308 90 286 78 q 340 132 329 103 q 354 214 351 161 l 392 892 l 301 892 q 174 836 219 890 q 122 665 128 782 l 43 665 l 67 972 l 894 972 z "},"U":{"ha":1043,"x_min":65,"x_max":1044,"o":"m 1044 972 l 1040 896 q 980 883 1001 894 q 948 842 958 871 q 935 758 938 813 l 917 419 q 879 226 910 310 q 797 88 849 143 q 672 6 744 33 q 510 -22 600 -22 q 319 10 394 -22 q 203 101 244 42 q 147 244 161 161 q 139 429 133 328 l 157 764 q 162 833 160 801 q 168 885 164 864 q 115 883 146 883 q 65 881 83 882 l 69 972 l 438 972 l 432 896 q 374 883 396 894 q 341 848 351 872 q 328 779 331 824 l 308 407 q 317 260 304 322 q 358 158 329 199 q 432 96 388 117 q 535 75 476 75 q 678 110 619 72 q 770 219 738 147 q 808 396 803 290 l 831 768 q 835 835 833 803 q 842 885 838 867 q 788 883 818 883 q 739 881 757 882 l 743 972 l 1044 972 z "},"Ú":{"ha":1043,"x_min":65,"x_max":1044,"o":"m 1044 972 l 1040 896 q 980 883 1001 894 q 948 842 958 871 q 935 758 938 813 l 917 419 q 879 226 910 310 q 797 88 849 143 q 672 6 744 33 q 510 -22 600 -22 q 319 10 394 -22 q 203 101 244 42 q 147 244 161 161 q 139 429 133 328 l 157 764 q 162 833 160 801 q 168 885 164 864 q 115 883 146 883 q 65 881 83 882 l 69 972 l 438 972 l 432 896 q 374 883 396 894 q 341 848 351 872 q 328 779 331 824 l 308 407 q 317 260 304 322 q 358 158 329 199 q 432 96 388 117 q 535 75 476 75 q 678 110 619 72 q 770 219 738 147 q 808 396 803 290 l 831 768 q 835 835 833 803 q 842 885 838 867 q 788 883 818 883 q 739 881 757 882 l 743 972 l 1044 972 m 543 1067 l 501 1124 l 674 1288 q 719 1317 696 1308 q 762 1320 742 1325 q 793 1299 782 1315 q 804 1260 806 1281 q 789 1222 803 1240 q 749 1188 775 1203 l 543 1067 z "},"Û":{"ha":1043,"x_min":65,"x_max":1044,"o":"m 1044 972 l 1040 896 q 980 883 1001 894 q 948 842 958 871 q 935 758 938 813 l 917 419 q 879 226 910 310 q 797 88 849 143 q 672 6 744 33 q 510 -22 600 -22 q 319 10 394 -22 q 203 101 244 42 q 147 244 161 161 q 139 429 133 328 l 157 764 q 162 833 160 801 q 168 885 164 864 q 115 883 146 883 q 65 881 83 882 l 69 972 l 438 972 l 432 896 q 374 883 396 894 q 341 848 351 872 q 328 779 331 824 l 308 407 q 317 260 304 322 q 358 158 329 199 q 432 96 388 117 q 535 75 476 75 q 678 110 619 72 q 770 219 738 147 q 808 396 803 290 l 831 768 q 835 835 833 803 q 842 885 838 867 q 788 883 818 883 q 739 881 757 882 l 743 972 l 1044 972 m 838 1075 l 590 1197 l 333 1078 l 308 1128 l 596 1331 l 614 1331 l 872 1126 l 838 1075 z "},"Ü":{"ha":1043,"x_min":65,"x_max":1044,"o":"m 1044 972 l 1040 896 q 980 883 1001 894 q 948 842 958 871 q 935 758 938 813 l 917 419 q 879 226 910 310 q 797 88 849 143 q 672 6 744 33 q 510 -22 600 -22 q 319 10 394 -22 q 203 101 244 42 q 147 244 161 161 q 139 429 133 328 l 157 764 q 162 833 160 801 q 168 885 164 864 q 115 883 146 883 q 65 881 83 882 l 69 972 l 438 972 l 432 896 q 374 883 396 894 q 341 848 351 872 q 328 779 331 824 l 308 407 q 317 260 304 322 q 358 158 329 199 q 432 96 388 117 q 535 75 476 75 q 678 110 619 72 q 770 219 738 147 q 808 396 803 290 l 831 768 q 835 835 833 803 q 842 885 838 867 q 788 883 818 883 q 739 881 757 882 l 743 972 l 1044 972 m 468 1100 q 413 1126 435 1100 q 390 1193 390 1153 q 418 1265 392 1235 q 481 1296 444 1296 q 535 1268 514 1296 q 556 1201 557 1240 q 530 1131 556 1161 q 468 1100 504 1100 m 704 1100 q 649 1126 671 1100 q 628 1193 628 1153 q 654 1265 628 1235 q 717 1296 681 1296 q 772 1268 751 1296 q 792 1201 792 1240 q 766 1130 792 1160 q 704 1100 740 1100 z "},"Ù":{"ha":1043,"x_min":65,"x_max":1044,"o":"m 1044 972 l 1040 896 q 980 883 1001 894 q 948 842 958 871 q 935 758 938 813 l 917 419 q 879 226 910 310 q 797 88 849 143 q 672 6 744 33 q 510 -22 600 -22 q 319 10 394 -22 q 203 101 244 42 q 147 244 161 161 q 139 429 133 328 l 157 764 q 162 833 160 801 q 168 885 164 864 q 115 883 146 883 q 65 881 83 882 l 69 972 l 438 972 l 432 896 q 374 883 396 894 q 341 848 351 872 q 328 779 331 824 l 308 407 q 317 260 304 322 q 358 158 329 199 q 432 96 388 117 q 535 75 476 75 q 678 110 619 72 q 770 219 738 147 q 808 396 803 290 l 831 768 q 835 835 833 803 q 842 885 838 867 q 788 883 818 883 q 739 881 757 882 l 743 972 l 1044 972 m 647 1067 l 449 1188 q 412 1222 425 1203 q 399 1262 399 1242 q 413 1299 400 1282 q 447 1320 426 1315 q 490 1317 467 1325 q 533 1288 513 1308 l 693 1125 l 647 1067 z "},"V":{"ha":958,"x_min":33,"x_max":994,"o":"m 994 972 l 990 896 q 903 863 938 894 q 833 751 868 831 q 796 663 815 708 q 756 568 776 618 q 710 460 735 518 q 656 331 685 401 q 590 177 626 261 q 511 -11 554 93 l 426 -11 l 147 733 q 120 820 131 781 q 110 885 110 860 q 69 883 89 883 q 33 881 50 882 l 39 972 l 414 972 l 410 896 q 327 866 351 894 q 326 774 303 838 l 438 457 q 481 338 463 392 q 517 235 499 285 l 518 235 q 556 328 536 278 q 597 429 575 378 q 651 560 626 500 q 697 670 675 619 q 736 767 718 721 q 770 844 757 817 q 794 886 783 871 q 739 883 771 885 q 688 881 707 882 l 692 972 l 994 972 z "},"W":{"ha":1396,"x_min":40,"x_max":1432,"o":"m 363 -11 l 153 735 q 126 822 138 783 q 115 885 115 860 q 75 883 93 883 q 40 881 57 882 l 44 972 l 426 972 l 421 896 q 338 871 360 896 q 331 776 315 846 l 406 457 q 428 358 417 404 q 451 246 439 311 l 454 246 q 472 302 460 267 q 498 378 485 338 q 522 451 511 418 q 539 499 533 483 l 711 974 l 807 974 l 942 458 q 967 351 956 406 q 990 240 979 296 l 993 240 q 1025 331 1008 283 q 1058 429 1042 378 q 1096 535 1079 488 q 1126 622 1113 582 l 1151 697 q 1175 767 1163 732 q 1199 830 1185 797 q 1233 886 1214 863 q 1176 883 1208 885 q 1125 881 1144 882 l 1129 972 l 1432 972 l 1428 896 q 1378 885 1400 893 q 1337 858 1356 876 q 1300 808 1318 840 q 1264 728 1282 776 l 990 -11 l 897 -11 l 753 503 q 725 614 735 564 q 707 708 715 664 l 704 708 q 678 618 692 663 q 647 526 665 574 l 451 -11 l 363 -11 z "},"X":{"ha":950,"x_min":19,"x_max":931,"o":"m 19 0 l 24 76 q 115 125 74 88 q 210 231 157 163 l 390 460 q 279 615 331 544 q 183 749 228 686 q 139 819 157 788 q 107 885 121 851 q 74 883 86 883 q 44 881 61 882 l 49 972 l 449 972 l 444 896 q 365 884 389 894 q 344 851 342 874 q 369 794 347 829 l 499 607 l 622 768 q 680 840 656 813 q 724 886 704 868 q 667 883 699 885 q 615 881 635 882 l 619 972 l 922 972 l 917 896 q 847 869 881 892 q 778 811 813 847 q 706 726 743 775 l 553 532 l 792 201 q 834 144 814 172 q 868 88 854 115 q 902 91 890 90 q 931 92 914 92 l 926 0 l 538 0 l 542 76 q 610 90 593 76 q 621 125 626 103 q 596 174 615 147 l 446 383 l 310 203 q 260 138 281 164 q 214 86 239 111 q 270 90 240 89 q 319 92 300 92 l 315 0 l 19 0 z "},"Y":{"ha":913,"x_min":31,"x_max":943,"o":"m 272 0 l 276 76 q 337 90 315 78 q 369 132 358 103 q 381 214 379 161 l 388 347 l 158 744 q 120 822 135 783 q 106 885 106 861 q 66 883 83 883 q 31 881 49 882 l 36 972 l 424 972 l 419 896 q 345 883 372 897 q 315 842 318 869 q 335 774 313 815 q 385 685 358 732 q 438 594 413 639 q 456 558 444 581 q 481 512 468 536 q 501 468 494 488 l 504 468 q 533 523 515 490 q 575 600 551 556 q 623 683 599 642 q 671 765 647 724 q 692 803 679 781 q 719 848 704 825 q 747 885 735 871 q 691 883 724 883 q 639 881 658 882 l 644 972 l 943 972 l 939 896 q 845 854 885 890 q 758 738 806 818 l 560 396 l 551 207 q 546 138 550 169 q 539 88 542 106 q 577 90 556 89 q 619 91 599 90 q 651 92 639 92 l 647 0 l 272 0 z "},"Ý":{"ha":913,"x_min":31,"x_max":943,"o":"m 272 0 l 276 76 q 337 90 315 78 q 369 132 358 103 q 381 214 379 161 l 388 347 l 158 744 q 120 822 135 783 q 106 885 106 861 q 66 883 83 883 q 31 881 49 882 l 36 972 l 424 972 l 419 896 q 345 883 372 897 q 315 842 318 869 q 335 774 313 815 q 385 685 358 732 q 438 594 413 639 q 456 558 444 581 q 481 512 468 536 q 501 468 494 488 l 504 468 q 533 523 515 490 q 575 600 551 556 q 623 683 599 642 q 671 765 647 724 q 692 803 679 781 q 719 848 704 825 q 747 885 735 871 q 691 883 724 883 q 639 881 658 882 l 644 972 l 943 972 l 939 896 q 845 854 885 890 q 758 738 806 818 l 560 396 l 551 207 q 546 138 550 169 q 539 88 542 106 q 577 90 556 89 q 619 91 599 90 q 651 92 639 92 l 647 0 l 272 0 m 479 1067 l 438 1124 l 610 1288 q 655 1317 632 1308 q 698 1320 678 1325 q 729 1299 718 1315 q 740 1260 742 1281 q 725 1222 739 1240 q 685 1188 711 1203 l 479 1067 z "},"Z":{"ha":842,"x_min":36,"x_max":806,"o":"m 36 0 l 42 90 l 519 757 q 572 830 549 799 q 621 890 594 861 l 342 893 q 215 844 264 894 q 160 679 167 794 l 82 679 l 106 972 l 806 972 l 800 886 l 331 231 q 271 151 300 188 q 213 83 242 114 l 496 81 q 634 128 578 79 q 696 293 690 178 l 772 293 l 749 0 l 36 0 z "},"a":{"ha":763,"x_min":40,"x_max":757,"o":"m 456 710 q 546 703 494 710 q 650 682 597 696 q 631 543 642 621 q 610 388 621 465 q 594 247 600 311 q 588 149 588 183 q 593 108 588 122 q 614 94 599 94 q 653 120 632 94 q 694 213 675 146 l 757 194 q 739 131 753 167 q 702 61 725 94 q 646 6 679 28 q 568 -15 613 -15 q 490 14 521 -15 q 460 111 460 43 q 463 167 460 136 q 472 226 467 197 l 469 226 q 411 105 442 153 q 349 31 381 57 q 285 -6 317 4 q 222 -15 253 -15 q 93 44 146 -15 q 40 233 40 104 q 67 416 40 331 q 147 568 94 501 q 277 672 200 635 q 456 710 354 710 m 407 632 q 322 603 360 632 q 258 523 285 575 q 219 399 232 471 q 206 238 206 326 q 222 128 206 169 q 271 88 238 88 q 335 121 304 88 q 390 211 365 154 q 435 338 415 268 q 467 481 454 408 q 481 621 479 554 q 449 628 469 625 q 407 632 428 632 z "},"á":{"ha":763,"x_min":40,"x_max":757,"o":"m 456 710 q 546 703 494 710 q 650 682 597 696 q 631 543 642 621 q 610 388 621 465 q 594 247 600 311 q 588 149 588 183 q 593 108 588 122 q 614 94 599 94 q 653 120 632 94 q 694 213 675 146 l 757 194 q 739 131 753 167 q 702 61 725 94 q 646 6 679 28 q 568 -15 613 -15 q 490 14 521 -15 q 460 111 460 43 q 463 167 460 136 q 472 226 467 197 l 469 226 q 411 105 442 153 q 349 31 381 57 q 285 -6 317 4 q 222 -15 253 -15 q 93 44 146 -15 q 40 233 40 104 q 67 416 40 331 q 147 568 94 501 q 277 672 200 635 q 456 710 354 710 m 407 632 q 322 603 360 632 q 258 523 285 575 q 219 399 232 471 q 206 238 206 326 q 222 128 206 169 q 271 88 238 88 q 335 121 304 88 q 390 211 365 154 q 435 338 415 268 q 467 481 454 408 q 481 621 479 554 q 449 628 469 625 q 407 632 428 632 m 371 792 l 319 839 l 438 1029 q 476 1067 454 1056 q 519 1078 499 1079 q 554 1063 540 1076 q 574 1026 571 1047 q 568 982 578 1006 q 536 939 558 958 l 371 792 z "},"â":{"ha":763,"x_min":40,"x_max":757,"o":"m 456 710 q 546 703 494 710 q 650 682 597 696 q 631 543 642 621 q 610 388 621 465 q 594 247 600 311 q 588 149 588 183 q 593 108 588 122 q 614 94 599 94 q 653 120 632 94 q 694 213 675 146 l 757 194 q 739 131 753 167 q 702 61 725 94 q 646 6 679 28 q 568 -15 613 -15 q 490 14 521 -15 q 460 111 460 43 q 463 167 460 136 q 472 226 467 197 l 469 226 q 411 105 442 153 q 349 31 381 57 q 285 -6 317 4 q 222 -15 253 -15 q 93 44 146 -15 q 40 233 40 104 q 67 416 40 331 q 147 568 94 501 q 277 672 200 635 q 456 710 354 710 m 407 632 q 322 603 360 632 q 258 523 285 575 q 219 399 232 471 q 206 238 206 326 q 222 128 206 169 q 271 88 238 88 q 335 121 304 88 q 390 211 365 154 q 435 338 415 268 q 467 481 454 408 q 481 621 479 554 q 449 628 469 625 q 407 632 428 632 m 629 797 l 456 946 l 454 946 l 265 803 l 222 858 l 467 1085 l 476 1085 l 682 853 l 629 797 z "},"ä":{"ha":763,"x_min":40,"x_max":757,"o":"m 456 710 q 546 703 494 710 q 650 682 597 696 q 631 543 642 621 q 610 388 621 465 q 594 247 600 311 q 588 149 588 183 q 593 108 588 122 q 614 94 599 94 q 653 120 632 94 q 694 213 675 146 l 757 194 q 739 131 753 167 q 702 61 725 94 q 646 6 679 28 q 568 -15 613 -15 q 490 14 521 -15 q 460 111 460 43 q 463 167 460 136 q 472 226 467 197 l 469 226 q 411 105 442 153 q 349 31 381 57 q 285 -6 317 4 q 222 -15 253 -15 q 93 44 146 -15 q 40 233 40 104 q 67 416 40 331 q 147 568 94 501 q 277 672 200 635 q 456 710 354 710 m 407 632 q 322 603 360 632 q 258 523 285 575 q 219 399 232 471 q 206 238 206 326 q 222 128 206 169 q 271 88 238 88 q 335 121 304 88 q 390 211 365 154 q 435 338 415 268 q 467 481 454 408 q 481 621 479 554 q 449 628 469 625 q 407 632 428 632 m 557 840 q 501 867 524 840 q 481 931 479 893 q 507 1001 481 972 q 568 1031 533 1031 q 622 1004 601 1031 q 643 940 643 978 q 617 869 642 899 q 557 840 592 840 m 328 840 q 272 867 294 840 q 251 931 250 893 q 278 1001 251 972 q 339 1031 304 1031 q 393 1004 372 1031 q 414 940 414 978 q 388 869 413 899 q 328 840 363 840 z "},"à":{"ha":763,"x_min":40,"x_max":757,"o":"m 456 710 q 546 703 494 710 q 650 682 597 696 q 631 543 642 621 q 610 388 621 465 q 594 247 600 311 q 588 149 588 183 q 593 108 588 122 q 614 94 599 94 q 653 120 632 94 q 694 213 675 146 l 757 194 q 739 131 753 167 q 702 61 725 94 q 646 6 679 28 q 568 -15 613 -15 q 490 14 521 -15 q 460 111 460 43 q 463 167 460 136 q 472 226 467 197 l 469 226 q 411 105 442 153 q 349 31 381 57 q 285 -6 317 4 q 222 -15 253 -15 q 93 44 146 -15 q 40 233 40 104 q 67 416 40 331 q 147 568 94 501 q 277 672 200 635 q 456 710 354 710 m 407 632 q 322 603 360 632 q 258 523 285 575 q 219 399 232 471 q 206 238 206 326 q 222 128 206 169 q 271 88 238 88 q 335 121 304 88 q 390 211 365 154 q 435 338 415 268 q 467 481 454 408 q 481 621 479 554 q 449 628 469 625 q 407 632 428 632 m 496 792 l 342 940 q 314 983 322 961 q 310 1026 306 1006 q 331 1063 314 1047 q 367 1077 347 1076 q 408 1067 388 1078 q 443 1029 428 1056 l 551 839 l 496 792 z "},"å":{"ha":763,"x_min":40,"x_max":757,"o":"m 456 710 q 546 703 494 710 q 650 682 597 696 q 631 543 642 621 q 610 388 621 465 q 594 247 600 311 q 588 149 588 183 q 593 108 588 122 q 614 94 599 94 q 653 120 632 94 q 694 213 675 146 l 757 194 q 739 131 753 167 q 702 61 725 94 q 646 6 679 28 q 568 -15 613 -15 q 490 14 521 -15 q 460 111 460 43 q 463 167 460 136 q 472 226 467 197 l 469 226 q 411 105 442 153 q 349 31 381 57 q 285 -6 317 4 q 222 -15 253 -15 q 93 44 146 -15 q 40 233 40 104 q 67 416 40 331 q 147 568 94 501 q 277 672 200 635 q 456 710 354 710 m 407 632 q 322 603 360 632 q 258 523 285 575 q 219 399 232 471 q 206 238 206 326 q 222 128 206 169 q 271 88 238 88 q 335 121 304 88 q 390 211 365 154 q 435 338 415 268 q 467 481 454 408 q 481 621 479 554 q 449 628 469 625 q 407 632 428 632 m 440 785 q 369 801 404 785 q 313 851 335 818 q 292 931 292 883 q 316 1012 293 976 q 376 1068 339 1047 q 454 1089 414 1089 q 526 1073 492 1089 q 582 1026 560 1057 q 603 944 604 994 q 576 860 601 896 q 515 805 551 825 q 440 785 478 785 m 450 854 q 487 875 469 856 q 506 928 504 894 q 492 997 508 974 q 450 1021 475 1021 q 412 1001 429 1019 q 392 946 394 982 q 406 878 390 904 q 450 854 422 853 z "},"ã":{"ha":763,"x_min":40,"x_max":757,"o":"m 456 710 q 546 703 494 710 q 650 682 597 696 q 631 543 642 621 q 610 388 621 465 q 594 247 600 311 q 588 149 588 183 q 593 108 588 122 q 614 94 599 94 q 653 120 632 94 q 694 213 675 146 l 757 194 q 739 131 753 167 q 702 61 725 94 q 646 6 679 28 q 568 -15 613 -15 q 490 14 521 -15 q 460 111 460 43 q 463 167 460 136 q 472 226 467 197 l 469 226 q 411 105 442 153 q 349 31 381 57 q 285 -6 317 4 q 222 -15 253 -15 q 93 44 146 -15 q 40 233 40 104 q 67 416 40 331 q 147 568 94 501 q 277 672 200 635 q 456 710 354 710 m 407 632 q 322 603 360 632 q 258 523 285 575 q 219 399 232 471 q 206 238 206 326 q 222 128 206 169 q 271 88 238 88 q 335 121 304 88 q 390 211 365 154 q 435 338 415 268 q 467 481 454 408 q 481 621 479 554 q 449 628 469 625 q 407 632 428 632 m 275 850 l 215 888 q 281 981 236 946 q 371 1017 326 1017 q 440 1003 414 1018 q 488 973 465 988 q 543 958 510 958 q 594 976 569 957 q 638 1029 618 996 l 697 997 q 625 883 669 917 q 542 850 581 850 q 474 865 503 850 q 422 894 446 879 q 368 910 399 910 q 323 897 350 910 q 275 850 296 883 z "},"æ":{"ha":1022,"x_min":26,"x_max":978,"o":"m 754 710 q 845 697 807 710 q 908 661 883 683 q 944 608 932 639 q 957 543 957 578 q 928 457 957 494 q 847 392 899 419 q 724 347 794 365 q 572 318 654 328 q 591 189 572 239 q 642 116 610 139 q 715 93 675 93 q 781 107 746 93 q 851 153 817 121 q 911 239 886 185 l 978 204 q 888 69 938 117 q 786 3 839 21 q 682 -15 733 -15 q 558 12 606 -17 q 475 94 511 40 q 347 9 414 32 q 218 -15 281 -14 q 74 33 122 -15 q 29 158 26 82 q 67 266 32 222 q 160 336 103 310 q 288 374 218 363 q 428 386 358 385 q 430 422 429 403 q 432 471 431 442 q 428 550 436 514 q 398 608 421 586 q 331 628 375 629 q 267 614 296 628 q 221 574 238 600 q 233 548 231 563 q 235 522 235 533 q 212 471 233 496 q 150 446 190 446 q 96 472 115 447 q 78 529 76 496 q 117 618 81 576 q 216 685 153 660 q 358 710 279 710 q 471 685 425 710 q 536 600 517 660 q 633 681 576 653 q 754 710 689 710 m 424 315 q 340 304 382 311 q 265 282 299 297 q 211 242 232 267 q 189 181 190 218 q 216 118 188 138 q 274 97 244 99 q 360 113 314 96 q 435 161 406 131 q 425 240 428 203 q 424 315 422 276 m 736 633 q 653 599 686 633 q 601 511 621 565 q 576 393 582 457 q 703 427 650 406 q 785 482 757 449 q 813 557 814 515 q 800 603 813 588 q 770 626 788 619 q 736 633 753 633 z "},"b":{"ha":711,"x_min":31,"x_max":658,"o":"m 299 1049 q 288 958 293 1008 q 277 859 282 907 q 269 782 272 811 q 262 704 267 751 q 251 604 257 657 q 239 501 246 551 l 242 501 q 295 606 267 565 q 354 669 324 647 q 414 701 385 692 q 468 710 443 710 q 578 673 536 710 q 639 576 619 636 q 658 447 658 517 q 637 270 658 354 q 571 122 615 186 q 454 21 526 57 q 279 -15 382 -15 q 220 -12 257 -15 q 144 -1 183 -8 q 69 19 104 7 q 81 235 76 139 q 92 422 86 332 q 103 607 97 513 q 117 814 110 701 q 122 869 119 842 q 128 924 124 897 q 76 922 104 922 q 31 919 49 921 l 36 1008 q 139 1015 99 1008 q 202 1031 179 1021 q 235 1049 225 1040 l 299 1049 m 417 603 q 358 573 386 603 q 305 492 329 543 q 262 374 281 440 q 232 232 243 307 q 219 81 221 157 q 258 67 233 72 q 300 63 282 63 q 384 88 350 63 q 440 157 418 114 q 474 251 463 200 q 488 354 485 303 q 492 449 492 406 q 469 567 490 531 q 417 603 449 604 z "},"c":{"ha":651,"x_min":43,"x_max":611,"o":"m 382 710 q 494 689 444 710 q 572 631 543 668 q 601 544 601 594 q 580 483 601 507 q 522 458 558 458 q 462 483 479 457 q 444 531 444 510 q 448 558 444 543 q 460 588 451 574 q 432 620 454 608 q 379 632 410 632 q 297 601 329 632 q 247 524 265 571 q 219 423 228 476 q 211 322 211 369 q 227 190 208 240 q 277 117 246 140 q 344 93 308 94 q 409 103 374 92 q 479 148 444 114 q 542 247 514 182 l 611 214 q 526 76 574 126 q 424 6 478 26 q 314 -15 371 -15 q 117 60 192 -14 q 43 288 43 133 q 63 429 43 356 q 125 566 83 503 q 231 669 167 629 q 382 710 294 710 z "},"ç":{"ha":651,"x_min":43,"x_max":611,"o":"m 382 710 q 494 689 444 710 q 572 631 543 668 q 601 544 601 594 q 580 483 601 507 q 522 458 558 458 q 462 483 479 457 q 444 531 444 510 q 448 558 444 543 q 460 588 451 574 q 432 620 454 608 q 379 632 410 632 q 297 601 329 632 q 247 524 265 571 q 219 423 228 476 q 211 322 211 369 q 227 190 208 240 q 277 117 246 140 q 344 93 308 94 q 409 103 374 92 q 479 148 444 114 q 542 247 514 182 l 611 214 q 526 76 574 126 q 425 6 478 26 q 325 -15 376 -14 l 292 -100 q 339 -83 311 -89 q 388 -76 367 -76 q 458 -101 431 -76 q 482 -171 485 -125 q 444 -249 478 -217 q 363 -301 411 -281 q 263 -334 314 -322 q 174 -351 213 -346 l 167 -289 q 219 -277 190 -285 q 276 -258 249 -269 q 322 -231 304 -247 q 342 -194 340 -215 q 324 -162 343 -169 q 281 -160 306 -154 q 240 -178 257 -165 l 190 -154 l 236 -6 q 118 60 167 11 q 43 288 43 133 q 63 429 43 356 q 125 566 83 503 q 231 669 167 629 q 382 710 294 710 z "},"d":{"ha":779,"x_min":43,"x_max":774,"o":"m 243 -15 q 131 20 175 -15 q 65 115 86 56 q 43 250 43 175 q 85 487 43 383 q 215 650 128 590 q 435 710 303 710 q 471 709 449 710 q 506 706 493 708 q 516 807 511 765 q 524 878 521 849 q 532 924 528 907 q 480 922 508 922 q 433 919 451 921 l 439 1008 q 543 1015 503 1008 q 606 1031 583 1021 q 639 1049 629 1040 l 703 1049 q 677 840 690 950 q 649 600 664 729 q 628 420 639 508 q 612 261 618 332 q 606 146 606 190 q 612 107 606 119 q 632 94 618 94 q 670 120 650 94 q 710 213 690 146 l 774 194 q 755 131 768 167 q 719 61 742 94 q 665 6 697 28 q 588 -15 632 -15 q 508 14 539 -15 q 478 111 478 43 q 481 168 478 143 q 489 226 483 193 l 486 226 q 410 76 451 129 q 325 4 368 24 q 243 -15 282 -15 m 288 90 q 358 131 325 90 q 419 239 392 171 q 464 390 447 307 q 482 497 475 440 q 496 619 489 554 q 457 628 482 625 q 415 632 432 632 q 328 606 364 632 q 269 538 292 581 q 233 446 246 496 q 215 347 219 396 q 210 258 210 297 q 229 135 210 179 q 288 90 249 90 z "},"ð":{"ha":722,"x_min":46,"x_max":651,"o":"m 422 1103 l 486 1043 l 413 968 q 541 840 488 917 q 623 664 594 763 q 651 450 651 565 q 628 258 651 344 q 562 111 606 172 q 454 17 518 50 q 310 -15 390 -15 q 180 17 240 -15 q 83 119 119 50 q 46 301 46 189 q 65 444 46 374 q 124 571 85 514 q 222 663 164 628 q 357 696 281 697 q 440 678 407 696 q 496 632 472 660 q 471 727 492 678 q 419 819 450 776 q 353 886 389 861 l 265 783 l 197 847 l 274 932 q 212 958 246 947 q 135 974 178 969 l 150 1054 q 260 1040 213 1053 q 344 1010 308 1026 l 422 1103 m 371 617 q 285 575 321 617 q 229 464 249 533 q 210 313 210 394 q 239 132 210 200 q 331 64 268 64 q 395 85 368 64 q 442 144 422 107 q 472 226 461 182 q 488 317 483 271 q 493 404 493 364 q 481 513 493 465 q 442 589 468 561 q 371 617 415 617 z "},"e":{"ha":656,"x_min":43,"x_max":610,"o":"m 390 710 q 494 692 447 710 q 567 638 540 675 q 593 540 593 600 q 558 443 593 483 q 465 377 522 403 q 340 335 407 351 q 211 311 274 318 q 229 181 211 229 q 278 113 247 133 q 347 93 310 93 q 412 105 376 93 q 482 149 447 117 q 543 238 517 181 l 610 204 q 524 72 571 119 q 424 4 476 24 q 314 -15 371 -15 q 114 61 185 -17 q 43 286 43 139 q 64 433 43 358 q 127 569 85 507 q 235 671 169 632 q 390 710 300 710 m 374 633 q 288 597 321 633 q 237 503 254 560 q 214 388 219 447 q 340 424 289 400 q 419 482 392 449 q 447 556 447 515 q 425 613 446 593 q 374 633 404 633 z "},"é":{"ha":656,"x_min":43,"x_max":610,"o":"m 390 710 q 494 692 447 710 q 567 638 540 675 q 593 540 593 600 q 558 443 593 483 q 465 377 522 403 q 340 335 407 351 q 211 311 274 318 q 229 181 211 229 q 278 113 247 133 q 347 93 310 93 q 412 105 376 93 q 482 149 447 117 q 543 238 517 181 l 610 204 q 524 72 571 119 q 424 4 476 24 q 314 -15 371 -15 q 114 61 185 -17 q 43 286 43 139 q 64 433 43 358 q 127 569 85 507 q 235 671 169 632 q 390 710 300 710 m 374 633 q 288 597 321 633 q 237 503 254 560 q 214 388 219 447 q 340 424 289 400 q 419 482 392 449 q 447 556 447 515 q 425 613 446 593 q 374 633 404 633 m 299 792 l 247 839 l 365 1029 q 404 1067 382 1056 q 447 1078 426 1079 q 482 1063 468 1076 q 502 1026 499 1047 q 496 982 506 1006 q 464 939 486 958 l 299 792 z "},"ê":{"ha":656,"x_min":43,"x_max":611,"o":"m 390 710 q 494 692 447 710 q 567 638 540 675 q 593 540 593 600 q 558 443 593 483 q 465 377 522 403 q 340 335 407 351 q 211 311 274 318 q 229 181 211 229 q 278 113 247 133 q 347 93 310 93 q 412 105 376 93 q 482 149 447 117 q 543 238 517 181 l 610 204 q 524 72 571 119 q 424 4 476 24 q 314 -15 371 -15 q 114 61 185 -17 q 43 286 43 139 q 64 433 43 358 q 127 569 85 507 q 235 671 169 632 q 390 710 300 710 m 374 633 q 288 597 321 633 q 237 503 254 560 q 214 388 219 447 q 340 424 289 400 q 419 482 392 449 q 447 556 447 515 q 425 613 446 593 q 374 633 404 633 m 558 797 l 385 946 l 383 946 l 194 803 l 151 858 l 396 1085 l 406 1085 l 611 853 l 558 797 z "},"ë":{"ha":656,"x_min":43,"x_max":610,"o":"m 390 710 q 494 692 447 710 q 567 638 540 675 q 593 540 593 600 q 558 443 593 483 q 465 377 522 403 q 340 335 407 351 q 211 311 274 318 q 229 181 211 229 q 278 113 247 133 q 347 93 310 93 q 412 105 376 93 q 482 149 447 117 q 543 238 517 181 l 610 204 q 524 72 571 119 q 424 4 476 24 q 314 -15 371 -15 q 114 61 185 -17 q 43 286 43 139 q 64 433 43 358 q 127 569 85 507 q 235 671 169 632 q 390 710 300 710 m 374 633 q 288 597 321 633 q 237 503 254 560 q 214 388 219 447 q 340 424 289 400 q 419 482 392 449 q 447 556 447 515 q 425 613 446 593 q 374 633 404 633 m 486 840 q 431 867 453 840 q 410 931 408 893 q 436 1001 410 972 q 497 1031 463 1031 q 551 1004 531 1031 q 572 940 572 978 q 546 869 571 899 q 486 840 521 840 m 257 840 q 201 867 224 840 q 181 931 179 893 q 207 1001 181 972 q 268 1031 233 1031 q 322 1004 301 1031 q 343 940 343 978 q 317 869 342 899 q 257 840 292 840 z "},"è":{"ha":656,"x_min":43,"x_max":610,"o":"m 390 710 q 494 692 447 710 q 567 638 540 675 q 593 540 593 600 q 558 443 593 483 q 465 377 522 403 q 340 335 407 351 q 211 311 274 318 q 229 181 211 229 q 278 113 247 133 q 347 93 310 93 q 412 105 376 93 q 482 149 447 117 q 543 238 517 181 l 610 204 q 524 72 571 119 q 424 4 476 24 q 314 -15 371 -15 q 114 61 185 -17 q 43 286 43 139 q 64 433 43 358 q 127 569 85 507 q 235 671 169 632 q 390 710 300 710 m 374 633 q 288 597 321 633 q 237 503 254 560 q 214 388 219 447 q 340 424 289 400 q 419 482 392 449 q 447 556 447 515 q 425 613 446 593 q 374 633 404 633 m 425 792 l 271 940 q 243 983 251 961 q 239 1026 235 1006 q 260 1063 243 1047 q 297 1077 276 1076 q 337 1067 317 1078 q 372 1029 357 1056 l 481 839 l 425 792 z "},"f":{"ha":478,"x_min":-164,"x_max":574,"o":"m 451 1056 q 542 1030 510 1056 q 574 963 574 1004 q 567 932 574 950 q 543 901 560 914 q 497 888 526 888 q 449 912 468 889 q 433 968 429 935 q 424 972 432 971 q 408 972 417 972 q 365 947 382 971 q 336 881 347 922 q 319 792 325 840 l 308 694 l 494 694 l 486 613 l 304 610 q 296 492 300 558 q 286 356 292 426 q 275 218 281 285 q 264 99 269 151 q 242 -48 256 22 q 208 -178 229 -118 q 154 -283 188 -237 q 73 -352 121 -328 q -40 -376 25 -376 q -132 -352 -100 -376 q -164 -286 -164 -328 q -157 -253 -164 -271 q -133 -221 -150 -235 q -87 -208 -115 -207 q -40 -232 -58 -210 q -25 -287 -21 -254 q 1 -293 -14 -293 q 52 -259 33 -293 q 81 -168 71 -225 q 97 -40 90 -111 q 110 103 103 31 q 119 222 114 156 q 128 358 124 288 q 139 493 133 428 q 149 608 144 558 l 33 607 l 44 694 l 158 694 q 205 881 172 800 q 297 1008 238 961 q 451 1056 357 1056 z "},"g":{"ha":721,"x_min":24,"x_max":647,"o":"m 243 -376 q 162 -369 201 -376 q 92 -344 122 -361 q 43 -302 61 -328 q 24 -242 25 -276 q 33 -201 24 -222 q 61 -165 43 -179 q 108 -151 79 -151 q 165 -172 142 -151 q 188 -231 188 -193 q 179 -271 188 -251 q 212 -291 188 -283 q 256 -299 236 -299 q 354 -264 318 -299 q 408 -170 390 -229 q 436 -39 426 -111 q 455 102 446 38 q 478 226 464 167 l 476 226 q 419 105 449 153 q 359 31 390 57 q 297 -5 328 6 q 233 -15 265 -15 q 135 15 178 -15 q 67 102 92 44 q 43 243 43 160 q 66 422 43 338 q 138 570 89 506 q 265 672 188 635 q 446 710 342 710 q 543 703 488 710 q 647 682 599 696 q 638 539 643 621 q 626 368 632 457 q 613 194 619 279 q 599 43 606 110 q 547 -183 588 -89 q 432 -326 507 -276 q 243 -376 357 -376 m 281 89 q 344 122 314 89 q 399 213 374 156 q 442 340 424 269 q 474 483 461 410 q 490 621 486 556 q 458 628 478 625 q 417 632 438 632 q 319 603 360 632 q 255 520 279 574 q 219 397 231 467 q 207 246 207 328 q 215 165 207 200 q 240 109 224 129 q 281 89 257 89 z "},"h":{"ha":796,"x_min":46,"x_max":785,"o":"m 586 -15 q 488 24 514 -15 q 461 133 461 64 q 467 227 461 175 q 479 335 472 279 q 492 444 486 392 q 497 536 497 496 q 492 571 497 556 q 478 594 488 586 q 449 603 468 603 q 389 571 419 603 q 330 485 358 539 q 279 364 301 431 q 244 226 257 297 q 231 92 231 156 q 232 44 231 72 q 235 0 233 17 l 78 0 q 76 33 76 22 q 75 57 75 43 q 78 192 75 114 q 87 355 82 269 q 99 525 92 440 q 113 684 106 610 q 126 814 119 758 q 135 871 131 842 q 143 924 139 900 l 46 919 l 51 1008 q 156 1015 115 1008 q 218 1031 196 1021 q 251 1049 240 1040 l 314 1049 q 303 958 310 1010 q 290 858 296 907 q 279 781 283 810 q 272 725 276 763 q 263 642 268 688 l 251 550 q 239 467 246 504 l 242 467 q 320 617 278 564 q 406 690 363 669 q 490 710 450 710 q 616 653 578 710 q 654 507 654 597 q 646 381 654 449 q 628 251 638 314 q 618 139 618 188 q 624 106 618 117 q 644 94 631 94 q 683 120 663 94 q 724 213 704 146 l 785 194 q 765 131 779 167 q 725 61 750 94 q 666 6 700 28 q 586 -15 632 -15 z "},"i":{"ha":468,"x_min":6,"x_max":454,"o":"m 206 710 q 302 667 274 710 q 331 554 331 625 q 324 463 331 518 q 308 344 317 407 q 291 227 299 282 q 283 138 283 172 q 292 104 283 114 q 313 94 300 94 q 351 120 331 94 q 392 213 372 146 l 454 194 q 433 129 449 165 q 394 60 418 93 q 335 6 369 28 q 256 -15 300 -15 q 154 24 183 -15 q 125 133 125 63 q 133 237 125 181 q 150 351 140 293 q 167 461 160 408 q 174 556 174 514 q 167 589 174 578 q 146 600 160 600 q 108 574 129 600 q 68 482 88 549 l 6 500 q 25 564 10 528 q 66 633 40 600 q 126 688 92 667 q 206 710 161 710 m 264 1043 q 331 1014 306 1043 q 356 940 357 985 q 326 868 354 897 q 258 839 299 839 q 190 868 217 839 q 165 940 164 897 q 197 1014 167 985 q 264 1043 226 1043 z "},"ı":{"ha":468,"x_min":6,"x_max":454,"o":"m 206 710 q 302 667 274 710 q 331 554 331 625 q 324 463 331 518 q 308 344 317 407 q 291 227 299 282 q 283 138 283 172 q 292 104 283 114 q 313 94 300 94 q 351 120 331 94 q 392 213 372 146 l 454 194 q 433 129 449 165 q 394 60 418 93 q 335 6 369 28 q 256 -15 300 -15 q 154 24 183 -15 q 125 133 125 63 q 133 237 125 181 q 150 351 140 293 q 167 461 160 408 q 174 556 174 514 q 167 589 174 578 q 146 600 160 600 q 108 574 129 600 q 68 482 88 549 l 6 500 q 25 564 10 528 q 66 633 40 600 q 126 688 92 667 q 206 710 161 710 z "},"í":{"ha":468,"x_min":6,"x_max":454,"o":"m 206 710 q 302 667 274 710 q 331 554 331 625 q 324 463 331 518 q 308 344 317 407 q 291 227 299 282 q 283 138 283 172 q 292 104 283 114 q 313 94 300 94 q 351 120 331 94 q 392 213 372 146 l 454 194 q 433 129 449 165 q 394 60 418 93 q 335 6 369 28 q 256 -15 300 -15 q 154 24 183 -15 q 125 133 125 63 q 133 237 125 181 q 150 351 140 293 q 167 461 160 408 q 174 556 174 514 q 167 589 174 578 q 146 600 160 600 q 108 574 129 600 q 68 482 88 549 l 6 500 q 25 564 10 528 q 66 633 40 600 q 126 688 92 667 q 206 710 161 710 m 179 792 l 128 839 l 246 1029 q 285 1067 263 1056 q 328 1078 307 1079 q 363 1063 349 1076 q 383 1026 379 1047 q 376 982 386 1006 q 344 939 367 958 l 179 792 z "},"î":{"ha":468,"x_min":6,"x_max":454,"o":"m 206 710 q 302 667 274 710 q 331 554 331 625 q 324 463 331 518 q 308 344 317 407 q 291 227 299 282 q 283 138 283 172 q 292 104 283 114 q 313 94 300 94 q 351 120 331 94 q 392 213 372 146 l 454 194 q 433 129 449 165 q 394 60 418 93 q 335 6 369 28 q 256 -15 300 -15 q 154 24 183 -15 q 125 133 125 63 q 133 237 125 181 q 150 351 140 293 q 167 461 160 408 q 174 556 174 514 q 167 589 174 578 q 146 600 160 600 q 108 574 129 600 q 68 482 88 549 l 6 500 q 25 564 10 528 q 66 633 40 600 q 126 688 92 667 q 206 710 161 710 m 403 797 l 240 946 l 239 946 l 64 803 l 24 858 l 250 1085 l 260 1085 l 451 853 l 403 797 z "},"ï":{"ha":468,"x_min":6,"x_max":454,"o":"m 206 710 q 302 667 274 710 q 331 554 331 625 q 324 463 331 518 q 308 344 317 407 q 291 227 299 282 q 283 138 283 172 q 292 104 283 114 q 313 94 300 94 q 351 120 331 94 q 392 213 372 146 l 454 194 q 433 129 449 165 q 394 60 418 93 q 335 6 369 28 q 256 -15 300 -15 q 154 24 183 -15 q 125 133 125 63 q 133 237 125 181 q 150 351 140 293 q 167 461 160 408 q 174 556 174 514 q 167 589 174 578 q 146 600 160 600 q 108 574 129 600 q 68 482 88 549 l 6 500 q 25 564 10 528 q 66 633 40 600 q 126 688 92 667 q 206 710 161 710 m 367 840 q 311 867 333 840 q 290 931 289 893 q 317 1001 290 972 q 378 1031 343 1031 q 432 1004 411 1031 q 453 940 453 978 q 426 869 451 899 q 367 840 401 840 m 138 840 q 82 867 104 840 q 61 931 60 893 q 88 1001 61 972 q 149 1031 114 1031 q 203 1004 182 1031 q 224 940 224 978 q 197 869 222 899 q 138 840 172 840 z "},"ì":{"ha":468,"x_min":6,"x_max":454,"o":"m 206 710 q 302 667 274 710 q 331 554 331 625 q 324 463 331 518 q 308 344 317 407 q 291 227 299 282 q 283 138 283 172 q 292 104 283 114 q 313 94 300 94 q 351 120 331 94 q 392 213 372 146 l 454 194 q 433 129 449 165 q 394 60 418 93 q 335 6 369 28 q 256 -15 300 -15 q 154 24 183 -15 q 125 133 125 63 q 133 237 125 181 q 150 351 140 293 q 167 461 160 408 q 174 556 174 514 q 167 589 174 578 q 146 600 160 600 q 108 574 129 600 q 68 482 88 549 l 6 500 q 25 564 10 528 q 66 633 40 600 q 126 688 92 667 q 206 710 161 710 m 306 792 l 151 940 q 124 983 132 961 q 119 1026 115 1006 q 140 1063 124 1047 q 177 1077 157 1076 q 217 1067 197 1078 q 253 1029 238 1056 l 361 839 l 306 792 z "},"j":{"ha":432,"x_min":-149,"x_max":361,"o":"m 213 710 q 309 669 279 710 q 340 556 339 628 q 338 397 342 489 q 325 213 333 306 q 306 53 318 136 q 270 -106 293 -29 q 210 -243 247 -182 q 115 -340 172 -304 q -22 -376 58 -376 q -112 -352 -76 -376 q -149 -283 -149 -328 q -141 -248 -149 -267 q -115 -215 -133 -229 q -69 -203 -97 -201 q -19 -228 -40 -204 q -6 -292 1 -251 q 18 -296 3 -296 q 69 -264 47 -296 q 108 -180 92 -232 q 135 -67 124 -128 q 154 53 147 -6 q 165 158 161 113 q 171 226 169 204 q 181 403 178 314 q 183 556 183 493 q 174 589 182 578 q 154 600 167 600 q 117 573 138 599 q 79 481 97 547 l 15 499 q 35 563 21 526 q 73 632 49 599 q 132 688 97 665 q 213 710 167 710 m 268 1043 q 335 1014 310 1043 q 360 940 361 985 q 331 868 358 897 q 263 839 303 839 q 194 868 221 839 q 169 940 168 897 q 201 1014 171 985 q 268 1043 231 1043 z "},"k":{"ha":721,"x_min":50,"x_max":692,"o":"m 521 -15 q 424 25 463 -15 q 350 165 386 65 q 317 242 332 213 q 279 279 303 272 q 265 283 272 282 q 250 282 258 285 q 234 183 240 238 q 228 86 228 128 q 229 44 228 68 q 232 0 231 19 l 74 0 q 71 33 71 22 l 71 57 q 74 138 71 81 q 81 276 76 196 q 94 449 86 356 q 110 635 101 542 q 132 814 119 729 q 140 871 135 844 q 150 924 144 897 q 97 922 126 922 q 50 919 68 921 l 56 1008 q 160 1015 119 1008 q 223 1031 200 1021 q 256 1049 246 1040 l 319 1049 q 305 954 313 1004 q 291 853 297 904 q 279 753 285 803 q 263 619 271 683 q 247 496 254 556 l 249 496 q 324 624 283 578 q 406 690 364 671 q 488 710 447 710 q 571 690 539 710 q 618 638 603 671 q 633 561 633 604 q 607 466 633 518 q 523 371 581 414 q 368 308 465 328 l 368 307 q 448 279 422 306 q 489 215 474 253 q 515 160 503 186 q 539 118 526 133 q 565 103 551 103 q 599 122 583 101 q 629 194 614 142 l 692 176 q 660 87 682 131 q 603 14 638 43 q 521 -15 568 -15 m 261 356 q 429 409 374 356 q 485 557 485 463 q 481 591 485 575 q 467 617 476 607 q 439 626 457 628 q 376 592 411 626 q 311 497 342 558 q 261 356 281 436 z "},"l":{"ha":411,"x_min":57,"x_max":397,"o":"m 324 1049 q 314 967 319 1008 q 303 886 308 925 q 294 813 299 847 q 272 613 282 704 q 253 448 261 522 q 240 316 246 374 q 232 216 235 258 q 229 144 229 174 q 235 107 229 119 q 254 94 242 94 q 294 120 274 94 q 333 213 315 146 l 397 194 q 375 126 390 163 q 335 58 360 90 q 276 5 311 25 q 194 -15 242 -15 q 108 15 142 -15 q 74 111 75 44 q 78 218 74 156 q 88 354 82 281 q 103 506 94 428 q 120 663 111 585 q 138 813 129 742 q 146 872 142 844 q 154 924 150 899 q 103 922 131 922 q 57 919 75 921 l 63 1008 q 165 1015 125 1008 q 228 1031 206 1021 q 261 1049 251 1040 l 324 1049 z "},"m":{"ha":1218,"x_min":11,"x_max":1208,"o":"m 1007 -15 q 909 24 935 -15 q 883 133 883 64 q 890 227 883 175 q 903 335 896 279 q 916 444 910 392 q 922 536 922 496 q 918 571 922 556 q 904 594 914 586 q 875 603 894 603 q 815 571 844 603 q 758 485 785 539 q 710 364 731 431 q 678 228 690 297 q 665 96 665 158 q 667 50 665 76 q 669 0 668 24 l 511 0 q 508 43 508 22 l 508 74 q 514 197 508 132 q 527 327 519 263 q 540 447 535 392 q 546 538 546 501 q 535 585 546 567 q 497 603 525 603 q 438 570 468 603 q 380 483 407 538 q 331 361 353 428 q 297 224 310 294 q 285 92 285 154 q 285 44 285 72 q 288 0 286 17 l 131 0 q 128 33 128 22 l 128 57 q 130 118 128 83 q 138 199 132 153 q 151 304 144 246 q 162 399 157 358 q 171 469 167 439 q 177 520 175 499 q 179 556 179 542 q 172 590 179 579 q 153 600 165 600 q 115 574 136 600 q 75 482 94 549 l 11 500 q 30 564 17 528 q 65 633 43 600 q 119 688 88 667 q 196 710 151 710 q 256 694 231 710 q 294 649 281 679 q 307 571 308 619 q 303 516 307 540 q 294 467 299 492 l 297 467 q 376 617 335 564 q 461 690 418 669 q 543 710 504 710 q 623 689 592 710 q 669 632 654 668 q 683 550 683 596 q 681 513 683 531 q 674 468 679 494 l 676 468 q 754 618 714 565 q 837 690 794 671 q 917 710 879 710 q 1010 684 975 710 q 1062 613 1046 658 q 1078 507 1078 567 q 1069 381 1078 449 q 1049 251 1060 314 q 1039 139 1039 188 q 1046 106 1039 117 q 1065 94 1053 94 q 1104 120 1083 94 q 1144 213 1125 146 l 1208 194 q 1188 131 1203 167 q 1147 61 1172 94 q 1088 6 1122 28 q 1007 -15 1053 -15 z "},"n":{"ha":850,"x_min":11,"x_max":839,"o":"m 639 -15 q 540 24 565 -15 q 514 133 514 64 q 519 227 514 175 q 533 335 525 279 q 546 444 540 392 q 551 536 551 496 q 547 571 551 556 q 533 594 543 586 q 504 603 522 603 q 443 570 474 603 q 384 483 413 538 q 333 361 356 428 q 298 224 311 294 q 285 92 285 154 q 286 44 285 72 q 289 0 288 17 l 131 0 q 127 33 128 22 q 126 57 126 43 q 130 120 126 83 q 139 206 133 157 q 151 314 144 254 q 163 406 158 367 q 172 473 168 444 q 176 522 175 501 q 178 556 178 542 q 172 590 178 579 q 153 600 165 600 q 114 574 135 600 q 75 482 93 549 l 11 500 q 29 564 17 528 q 64 633 42 600 q 118 688 86 667 q 194 710 150 710 q 256 694 231 710 q 295 647 282 678 q 307 567 308 615 q 302 513 306 536 q 294 464 299 489 l 297 464 q 376 616 335 563 q 461 690 418 669 q 546 710 504 710 q 640 684 604 710 q 692 613 675 658 q 708 507 708 567 q 699 381 708 449 q 681 251 690 314 q 671 139 671 188 q 678 106 671 117 q 697 94 685 94 q 736 120 715 94 q 775 213 757 146 l 839 194 q 818 131 833 167 q 778 61 803 94 q 718 6 753 28 q 639 -15 683 -15 z "},"ñ":{"ha":850,"x_min":11,"x_max":839,"o":"m 639 -15 q 540 24 565 -15 q 514 133 514 64 q 519 227 514 175 q 533 335 525 279 q 546 444 540 392 q 551 536 551 496 q 547 571 551 556 q 533 594 543 586 q 504 603 522 603 q 443 570 474 603 q 384 483 413 538 q 333 361 356 428 q 298 224 311 294 q 285 92 285 154 q 286 44 285 72 q 289 0 288 17 l 131 0 q 127 33 128 22 q 126 57 126 43 q 130 120 126 83 q 139 206 133 157 q 151 314 144 254 q 163 406 158 367 q 172 473 168 444 q 176 522 175 501 q 178 556 178 542 q 172 590 178 579 q 153 600 165 600 q 114 574 135 600 q 75 482 93 549 l 11 500 q 29 564 17 528 q 64 633 42 600 q 118 688 86 667 q 194 710 150 710 q 256 694 231 710 q 295 647 282 678 q 307 567 308 615 q 302 513 306 536 q 294 464 299 489 l 297 464 q 376 616 335 563 q 461 690 418 669 q 546 710 504 710 q 640 684 604 710 q 692 613 675 658 q 708 507 708 567 q 699 381 708 449 q 681 251 690 314 q 671 139 671 188 q 678 106 671 117 q 697 94 685 94 q 736 120 715 94 q 775 213 757 146 l 839 194 q 818 131 833 167 q 778 61 803 94 q 718 6 753 28 q 639 -15 683 -15 m 306 850 l 246 888 q 312 981 267 946 q 401 1017 357 1017 q 470 1003 444 1018 q 518 973 496 988 q 574 958 540 958 q 624 976 600 957 q 668 1029 649 996 l 728 997 q 656 883 700 917 q 572 850 611 850 q 505 865 533 850 q 453 894 476 879 q 399 910 429 910 q 353 897 381 910 q 306 850 326 883 z "},"o":{"ha":718,"x_min":44,"x_max":665,"o":"m 390 710 q 530 674 468 710 q 628 569 592 638 q 665 401 665 500 q 624 196 665 292 q 505 42 582 100 q 319 -15 428 -15 q 165 27 226 -15 q 74 141 104 69 q 44 299 44 213 q 86 503 44 410 q 206 653 128 597 q 390 710 283 710 m 369 632 q 286 594 322 633 q 231 488 250 554 q 211 340 211 421 q 215 248 210 296 q 235 158 221 200 q 275 90 250 117 q 338 64 300 64 q 410 92 381 63 q 458 167 440 121 q 485 264 476 213 q 496 361 494 315 q 492 449 497 401 q 474 538 488 496 q 435 605 461 579 q 369 632 410 631 z "},"ó":{"ha":718,"x_min":44,"x_max":665,"o":"m 390 710 q 530 674 468 710 q 628 569 592 638 q 665 401 665 500 q 624 196 665 292 q 505 42 582 100 q 319 -15 428 -15 q 165 27 226 -15 q 74 141 104 69 q 44 299 44 213 q 86 503 44 410 q 206 653 128 597 q 390 710 283 710 m 369 632 q 286 594 322 633 q 231 488 250 554 q 211 340 211 421 q 215 248 210 296 q 235 158 221 200 q 275 90 250 117 q 338 64 300 64 q 410 92 381 63 q 458 167 440 121 q 485 264 476 213 q 496 361 494 315 q 492 449 497 401 q 474 538 488 496 q 435 605 461 579 q 369 632 410 631 m 315 792 l 264 839 l 382 1029 q 421 1067 399 1056 q 464 1078 443 1079 q 499 1063 485 1076 q 519 1026 515 1047 q 513 982 522 1006 q 481 939 503 958 l 315 792 z "},"ô":{"ha":718,"x_min":44,"x_max":665,"o":"m 390 710 q 530 674 468 710 q 628 569 592 638 q 665 401 665 500 q 624 196 665 292 q 505 42 582 100 q 319 -15 428 -15 q 165 27 226 -15 q 74 141 104 69 q 44 299 44 213 q 86 503 44 410 q 206 653 128 597 q 390 710 283 710 m 369 632 q 286 594 322 633 q 231 488 250 554 q 211 340 211 421 q 215 248 210 296 q 235 158 221 200 q 275 90 250 117 q 338 64 300 64 q 410 92 381 63 q 458 167 440 121 q 485 264 476 213 q 496 361 494 315 q 492 449 497 401 q 474 538 488 496 q 435 605 461 579 q 369 632 410 631 m 575 797 l 401 946 l 400 946 l 211 803 l 168 858 l 413 1085 l 422 1085 l 628 853 l 575 797 z "},"ö":{"ha":718,"x_min":44,"x_max":665,"o":"m 390 710 q 530 674 468 710 q 628 569 592 638 q 665 401 665 500 q 624 196 665 292 q 505 42 582 100 q 319 -15 428 -15 q 165 27 226 -15 q 74 141 104 69 q 44 299 44 213 q 86 503 44 410 q 206 653 128 597 q 390 710 283 710 m 369 632 q 286 594 322 633 q 231 488 250 554 q 211 340 211 421 q 215 248 210 296 q 235 158 221 200 q 275 90 250 117 q 338 64 300 64 q 410 92 381 63 q 458 167 440 121 q 485 264 476 213 q 496 361 494 315 q 492 449 497 401 q 474 538 488 496 q 435 605 461 579 q 369 632 410 631 m 503 840 q 447 867 469 840 q 426 931 425 893 q 453 1001 426 972 q 514 1031 479 1031 q 568 1004 547 1031 q 589 940 589 978 q 563 869 588 899 q 503 840 538 840 m 274 840 q 218 867 240 840 q 197 931 196 893 q 224 1001 197 972 q 285 1031 250 1031 q 339 1004 318 1031 q 360 940 360 978 q 333 869 358 899 q 274 840 308 840 z "},"ò":{"ha":718,"x_min":44,"x_max":665,"o":"m 390 710 q 530 674 468 710 q 628 569 592 638 q 665 401 665 500 q 624 196 665 292 q 505 42 582 100 q 319 -15 428 -15 q 165 27 226 -15 q 74 141 104 69 q 44 299 44 213 q 86 503 44 410 q 206 653 128 597 q 390 710 283 710 m 369 632 q 286 594 322 633 q 231 488 250 554 q 211 340 211 421 q 215 248 210 296 q 235 158 221 200 q 275 90 250 117 q 338 64 300 64 q 410 92 381 63 q 458 167 440 121 q 485 264 476 213 q 496 361 494 315 q 492 449 497 401 q 474 538 488 496 q 435 605 461 579 q 369 632 410 631 m 442 792 l 288 940 q 260 983 268 961 q 256 1026 251 1006 q 276 1063 260 1047 q 313 1077 293 1076 q 353 1067 333 1078 q 389 1029 374 1056 l 497 839 l 442 792 z "},"ø":{"ha":718,"x_min":28,"x_max":689,"o":"m 610 788 l 689 729 l 603 610 q 649 519 632 571 q 665 401 665 467 q 624 196 665 292 q 505 42 582 100 q 319 -15 428 -15 q 181 18 239 -15 l 92 -107 l 28 -54 l 117 72 q 62 174 79 115 q 44 299 44 232 q 86 503 44 410 q 206 653 128 597 q 390 710 283 710 q 531 672 469 710 l 610 788 m 500 474 l 249 119 q 288 79 265 94 q 340 64 310 64 q 417 92 385 63 q 468 167 449 121 q 497 264 488 213 q 508 361 507 315 q 506 417 508 388 q 500 474 504 446 m 369 632 q 281 592 319 632 q 220 487 242 553 q 199 340 199 421 q 202 272 199 307 q 214 204 206 238 l 467 571 q 427 615 451 599 q 369 632 403 632 z "},"õ":{"ha":718,"x_min":44,"x_max":665,"o":"m 390 710 q 530 674 468 710 q 628 569 592 638 q 665 401 665 500 q 624 196 665 292 q 505 42 582 100 q 319 -15 428 -15 q 165 27 226 -15 q 74 141 104 69 q 44 299 44 213 q 86 503 44 410 q 206 653 128 597 q 390 710 283 710 m 369 632 q 286 594 322 633 q 231 488 250 554 q 211 340 211 421 q 215 248 210 296 q 235 158 221 200 q 275 90 250 117 q 338 64 300 64 q 410 92 381 63 q 458 167 440 121 q 485 264 476 213 q 496 361 494 315 q 492 449 497 401 q 474 538 488 496 q 435 605 461 579 q 369 632 410 631 m 221 850 l 161 888 q 227 981 182 946 q 317 1017 272 1017 q 385 1003 360 1018 q 433 973 411 988 q 489 958 456 958 q 540 976 515 957 q 583 1029 564 996 l 643 997 q 571 883 615 917 q 488 850 526 850 q 420 865 449 850 q 368 894 392 879 q 314 910 344 910 q 269 897 296 910 q 221 850 242 883 z "},"œ":{"ha":1094,"x_min":44,"x_max":1050,"o":"m 824 710 q 928 694 882 710 q 1002 641 975 678 q 1029 543 1029 604 q 995 446 1029 486 q 905 379 961 406 q 782 337 849 353 q 650 313 715 321 q 668 181 649 228 q 719 114 688 133 q 782 93 750 94 q 847 104 811 92 q 919 149 883 117 q 981 239 954 181 l 1050 204 q 964 72 1011 119 q 863 4 917 24 q 753 -15 810 -15 q 678 -3 718 -15 q 603 38 639 8 q 543 119 567 68 l 540 119 q 474 41 513 71 q 394 -2 435 11 q 314 -15 353 -15 q 161 27 221 -15 q 73 141 101 69 q 44 299 44 213 q 84 503 44 410 q 199 653 124 597 q 381 710 274 710 q 493 678 438 710 q 581 571 549 646 l 583 571 q 649 647 611 615 q 731 694 686 678 q 824 710 775 710 m 363 632 q 281 594 315 633 q 228 488 246 554 q 211 340 211 421 q 215 248 210 296 q 233 158 221 200 q 270 90 246 117 q 332 64 294 64 q 401 91 372 64 q 447 162 429 118 q 472 256 464 206 q 482 354 481 307 q 481 439 483 392 q 467 530 478 486 q 431 602 456 574 q 363 632 406 631 m 807 633 q 727 596 760 632 q 676 504 694 560 q 653 389 657 449 q 750 413 707 397 q 823 449 793 428 q 869 497 853 469 q 885 557 885 525 q 860 617 883 599 q 807 633 836 635 z "},"p":{"ha":797,"x_min":17,"x_max":744,"o":"m 46 -354 l 46 -281 q 99 -261 82 -281 q 122 -208 115 -242 q 132 -132 129 -174 q 156 133 146 17 q 172 333 165 249 q 181 472 178 418 q 185 549 185 525 q 178 588 185 575 q 158 600 172 600 q 119 574 140 600 q 81 482 99 549 l 17 500 q 35 564 22 528 q 69 633 47 600 q 124 688 92 667 q 201 710 157 710 q 282 678 251 710 q 313 576 313 646 q 309 520 313 546 q 301 468 306 494 l 304 468 q 380 619 339 567 q 464 690 421 671 q 544 710 507 710 q 656 675 611 710 q 722 581 700 640 q 744 443 744 521 q 701 206 744 310 q 569 44 657 103 q 347 -15 481 -15 q 322 -15 336 -15 q 296 -12 308 -14 q 288 -142 292 -93 q 283 -220 285 -192 q 276 -269 281 -249 q 324 -266 299 -267 q 367 -265 350 -265 l 367 -354 l 46 -354 m 365 61 q 453 88 417 61 q 515 156 490 114 q 553 247 539 197 q 573 346 567 297 q 579 433 579 394 q 571 527 579 489 q 545 585 563 565 q 501 604 528 604 q 441 576 469 604 q 388 495 413 547 q 346 372 364 443 q 315 215 328 301 q 307 147 311 182 q 300 72 303 111 q 335 65 318 68 q 365 61 353 61 z "},"þ":{"ha":718,"x_min":-28,"x_max":664,"o":"m 299 1049 q 285 914 292 982 l 269 782 q 261 691 265 733 q 252 603 257 649 q 240 500 247 558 l 243 499 q 297 606 268 564 q 355 670 325 647 q 415 701 385 693 q 475 710 446 710 q 584 674 542 710 q 645 579 626 639 q 664 449 664 519 q 642 266 664 350 q 574 119 619 182 q 456 20 528 56 q 282 -15 383 -15 q 255 -15 272 -15 q 221 -12 238 -14 l 214 -147 q 210 -205 213 -169 q 203 -269 208 -240 q 251 -266 226 -267 q 294 -265 276 -265 l 294 -354 l -28 -354 l -28 -281 q 26 -261 8 -281 q 50 -208 43 -242 q 58 -132 57 -175 q 74 119 67 4 q 89 343 82 235 q 103 564 96 451 q 118 806 110 676 q 122 863 121 831 q 128 924 124 896 q 76 922 104 922 q 31 919 49 921 l 36 1008 q 139 1015 99 1008 q 202 1031 179 1021 q 236 1049 225 1040 l 299 1049 m 417 604 q 360 577 388 603 q 310 505 332 551 q 269 394 288 458 q 240 249 251 329 q 224 79 228 169 q 263 67 239 71 q 301 63 286 63 q 389 89 354 63 q 446 159 424 115 q 479 254 468 203 q 494 355 490 306 q 499 443 499 404 q 475 565 497 526 q 417 604 453 604 z "},"q":{"ha":724,"x_min":43,"x_max":667,"o":"m 444 710 q 508 707 471 710 q 585 700 546 704 q 653 689 624 696 q 638 487 646 593 q 620 272 629 381 q 603 58 611 164 q 588 -149 594 -49 q 583 -206 586 -171 q 575 -269 581 -240 q 624 -266 599 -267 q 667 -265 650 -265 l 667 -354 l 346 -354 l 346 -281 q 406 -256 389 -281 q 428 -180 422 -231 q 439 -49 433 -129 q 451 74 444 10 q 465 194 458 139 l 464 194 q 389 60 428 106 q 312 0 350 15 q 238 -15 274 -15 q 129 21 172 -15 q 65 117 86 57 q 43 246 43 176 q 86 480 43 375 q 218 647 129 585 q 444 710 307 710 m 424 633 q 319 599 361 632 q 253 510 278 565 q 219 390 229 456 q 210 261 210 325 q 233 131 210 172 q 290 90 256 90 q 349 123 321 90 q 403 210 378 156 q 449 333 429 264 q 481 478 468 403 q 496 624 493 553 q 461 631 483 628 q 424 633 439 633 z "},"r":{"ha":636,"x_min":11,"x_max":642,"o":"m 132 0 q 129 33 129 22 l 129 57 q 132 122 129 83 q 140 210 135 160 q 151 319 144 260 q 166 428 160 382 q 175 503 172 474 q 178 550 178 533 q 173 588 179 575 q 153 600 167 600 q 114 574 135 600 q 75 482 93 549 l 11 500 q 29 564 17 528 q 64 633 42 600 q 118 688 86 667 q 194 710 150 710 q 276 678 246 710 q 307 572 307 646 q 301 515 306 547 q 290 442 297 482 l 293 442 q 372 610 331 553 q 453 689 413 668 q 532 710 494 710 q 611 683 581 710 q 642 613 642 657 q 619 554 642 581 q 558 528 596 528 q 508 546 531 528 q 486 594 486 564 q 430 569 458 600 q 376 482 401 538 q 331 358 350 426 q 299 219 311 290 q 288 86 288 149 q 289 42 288 68 q 292 0 290 17 l 132 0 z "},"s":{"ha":611,"x_min":33,"x_max":549,"o":"m 274 -15 q 156 3 210 -15 q 67 58 101 22 q 33 142 33 93 q 56 205 33 181 q 113 229 79 229 q 167 206 147 229 q 188 153 188 183 q 185 132 188 143 q 178 110 183 121 q 217 76 186 90 q 275 63 249 63 q 369 92 340 63 q 399 164 399 121 q 376 217 399 194 q 319 262 354 240 q 246 306 285 283 q 148 369 189 339 q 86 434 107 400 q 65 514 65 468 q 96 608 65 564 q 183 681 126 653 q 321 710 240 710 q 426 692 375 710 q 511 642 478 675 q 544 563 544 608 q 524 505 544 529 q 467 481 503 481 q 413 503 433 481 q 393 556 393 525 q 395 576 393 567 q 403 596 397 586 q 369 624 393 614 q 315 633 344 633 q 269 623 293 633 q 228 594 244 613 q 211 549 211 575 q 222 510 211 526 q 261 474 233 493 q 336 426 289 454 q 433 367 383 399 q 515 295 482 336 q 549 194 549 254 q 513 86 549 133 q 415 12 478 39 q 274 -15 353 -15 z "},"ß":{"ha":922,"x_min":-165,"x_max":885,"o":"m -40 -376 q -133 -352 -101 -376 q -165 -286 -165 -328 q -158 -252 -165 -271 q -133 -220 -150 -233 q -87 -208 -115 -207 q -40 -232 -58 -210 q -25 -287 -21 -254 q -13 -292 -21 -290 q 1 -293 -6 -293 q 44 -269 28 -293 q 72 -204 61 -244 q 90 -115 83 -164 q 100 -15 96 -65 q 111 128 106 46 q 123 298 117 210 q 136 467 129 386 q 149 608 143 547 l 33 607 l 43 694 l 160 694 q 206 860 174 792 q 286 972 238 929 q 396 1035 335 1015 q 526 1056 457 1056 q 632 1045 581 1056 q 725 1011 683 1035 q 792 951 767 988 q 817 861 817 914 q 799 782 817 817 q 751 720 781 747 q 689 668 722 693 q 614 610 647 638 q 581 547 581 583 q 590 510 581 528 q 627 471 600 492 q 703 418 654 450 q 788 361 746 392 q 858 290 831 331 q 885 194 885 250 q 851 86 885 133 q 759 12 818 39 q 624 -15 700 -15 q 507 3 560 -15 q 422 58 454 22 q 390 142 390 93 q 413 205 390 181 q 469 229 436 229 q 524 206 504 229 q 544 153 544 183 q 542 132 544 143 q 535 110 540 121 q 571 76 543 90 q 625 63 599 63 q 711 92 688 63 q 735 164 735 121 q 697 237 735 206 q 607 300 658 268 q 514 365 551 335 q 457 428 476 396 q 438 496 438 460 q 456 570 438 539 q 502 626 474 601 q 561 674 531 651 q 618 722 592 697 q 663 778 646 747 q 679 851 681 808 q 658 920 678 893 q 608 960 639 947 q 538 974 576 974 q 430 945 472 974 q 363 869 388 917 q 325 761 338 821 q 307 639 313 701 q 297 517 301 582 q 286 383 292 451 q 275 244 281 314 q 264 109 269 175 q 251 -17 258 43 q 205 -203 239 -121 q 111 -331 171 -285 q -40 -376 51 -376 z "},"t":{"ha":535,"x_min":26,"x_max":515,"o":"m 335 900 l 308 694 l 497 694 l 490 613 l 300 610 q 288 498 294 557 q 276 382 281 439 q 267 277 271 325 q 263 199 263 229 q 267 154 263 178 q 285 114 271 131 q 329 97 299 97 q 363 103 342 97 q 408 128 383 110 q 456 188 433 147 l 515 150 q 410 26 471 68 q 275 -15 349 -15 q 169 14 206 -15 q 121 90 133 43 q 108 189 108 138 q 115 307 111 239 q 126 453 119 375 q 142 608 133 532 l 26 607 l 36 694 q 185 748 138 694 q 256 900 233 801 l 335 900 z "},"u":{"ha":828,"x_min":1,"x_max":817,"o":"m 292 -15 q 199 10 235 -15 q 147 82 163 36 q 131 188 131 128 q 140 315 131 247 q 160 445 150 382 q 169 554 169 508 q 162 590 169 579 q 142 600 154 600 q 103 574 124 600 q 65 482 83 549 l 1 500 q 22 564 7 528 q 61 633 36 600 q 121 688 86 667 q 200 710 156 710 q 299 670 271 710 q 326 560 326 631 q 320 466 326 519 q 306 356 314 413 q 292 247 299 299 q 286 160 286 196 q 291 125 286 140 q 306 101 296 110 q 335 92 317 92 q 392 124 363 92 q 449 212 422 157 q 498 333 476 267 q 532 470 519 400 q 544 603 544 540 q 544 651 544 624 q 542 694 543 678 l 700 694 q 702 662 701 672 q 703 638 703 651 q 699 573 703 611 q 690 485 696 535 q 676 375 685 436 q 666 285 671 324 q 658 219 661 246 q 652 172 654 192 q 650 139 650 153 q 657 105 650 115 q 676 94 664 94 q 715 120 694 94 q 754 213 735 146 l 817 194 q 799 131 813 167 q 764 61 786 94 q 710 6 742 28 q 633 -15 678 -15 q 553 14 586 -15 q 521 111 521 43 q 525 172 521 143 q 533 233 529 200 l 531 233 q 455 81 494 135 q 374 6 415 28 q 292 -15 333 -15 z "},"ú":{"ha":828,"x_min":1,"x_max":817,"o":"m 292 -15 q 199 10 235 -15 q 147 82 163 36 q 131 188 131 128 q 140 315 131 247 q 160 445 150 382 q 169 554 169 508 q 162 590 169 579 q 142 600 154 600 q 103 574 124 600 q 65 482 83 549 l 1 500 q 22 564 7 528 q 61 633 36 600 q 121 688 86 667 q 200 710 156 710 q 299 670 271 710 q 326 560 326 631 q 320 466 326 519 q 306 356 314 413 q 292 247 299 299 q 286 160 286 196 q 291 125 286 140 q 306 101 296 110 q 335 92 317 92 q 392 124 363 92 q 449 212 422 157 q 498 333 476 267 q 532 470 519 400 q 544 603 544 540 q 544 651 544 624 q 542 694 543 678 l 700 694 q 702 662 701 672 q 703 638 703 651 q 699 573 703 611 q 690 485 696 535 q 676 375 685 436 q 666 285 671 324 q 658 219 661 246 q 652 172 654 192 q 650 139 650 153 q 657 105 650 115 q 676 94 664 94 q 715 120 694 94 q 754 213 735 146 l 817 194 q 799 131 813 167 q 764 61 786 94 q 710 6 742 28 q 633 -15 678 -15 q 553 14 586 -15 q 521 111 521 43 q 525 172 521 143 q 533 233 529 200 l 531 233 q 455 81 494 135 q 374 6 415 28 q 292 -15 333 -15 m 363 792 l 311 839 l 429 1029 q 468 1067 446 1056 q 511 1078 490 1079 q 546 1063 532 1076 q 566 1026 563 1047 q 560 982 569 1006 q 528 939 550 958 l 363 792 z "},"û":{"ha":828,"x_min":1,"x_max":817,"o":"m 292 -15 q 199 10 235 -15 q 147 82 163 36 q 131 188 131 128 q 140 315 131 247 q 160 445 150 382 q 169 554 169 508 q 162 590 169 579 q 142 600 154 600 q 103 574 124 600 q 65 482 83 549 l 1 500 q 22 564 7 528 q 61 633 36 600 q 121 688 86 667 q 200 710 156 710 q 299 670 271 710 q 326 560 326 631 q 320 466 326 519 q 306 356 314 413 q 292 247 299 299 q 286 160 286 196 q 291 125 286 140 q 306 101 296 110 q 335 92 317 92 q 392 124 363 92 q 449 212 422 157 q 498 333 476 267 q 532 470 519 400 q 544 603 544 540 q 544 651 544 624 q 542 694 543 678 l 700 694 q 702 662 701 672 q 703 638 703 651 q 699 573 703 611 q 690 485 696 535 q 676 375 685 436 q 666 285 671 324 q 658 219 661 246 q 652 172 654 192 q 650 139 650 153 q 657 105 650 115 q 676 94 664 94 q 715 120 694 94 q 754 213 735 146 l 817 194 q 799 131 813 167 q 764 61 786 94 q 710 6 742 28 q 633 -15 678 -15 q 553 14 586 -15 q 521 111 521 43 q 525 172 521 143 q 533 233 529 200 l 531 233 q 455 81 494 135 q 374 6 415 28 q 292 -15 333 -15 m 621 797 l 447 946 l 446 946 l 257 803 l 214 858 l 458 1085 l 468 1085 l 674 853 l 621 797 z "},"ü":{"ha":828,"x_min":1,"x_max":817,"o":"m 292 -15 q 199 10 235 -15 q 147 82 163 36 q 131 188 131 128 q 140 315 131 247 q 160 445 150 382 q 169 554 169 508 q 162 590 169 579 q 142 600 154 600 q 103 574 124 600 q 65 482 83 549 l 1 500 q 22 564 7 528 q 61 633 36 600 q 121 688 86 667 q 200 710 156 710 q 299 670 271 710 q 326 560 326 631 q 320 466 326 519 q 306 356 314 413 q 292 247 299 299 q 286 160 286 196 q 291 125 286 140 q 306 101 296 110 q 335 92 317 92 q 392 124 363 92 q 449 212 422 157 q 498 333 476 267 q 532 470 519 400 q 544 603 544 540 q 544 651 544 624 q 542 694 543 678 l 700 694 q 702 662 701 672 q 703 638 703 651 q 699 573 703 611 q 690 485 696 535 q 676 375 685 436 q 666 285 671 324 q 658 219 661 246 q 652 172 654 192 q 650 139 650 153 q 657 105 650 115 q 676 94 664 94 q 715 120 694 94 q 754 213 735 146 l 817 194 q 799 131 813 167 q 764 61 786 94 q 710 6 742 28 q 633 -15 678 -15 q 553 14 586 -15 q 521 111 521 43 q 525 172 521 143 q 533 233 529 200 l 531 233 q 455 81 494 135 q 374 6 415 28 q 292 -15 333 -15 m 549 840 q 493 867 515 840 q 472 931 471 893 q 499 1001 472 972 q 560 1031 525 1031 q 614 1004 593 1031 q 635 940 635 978 q 608 869 633 899 q 549 840 583 840 m 319 840 q 264 867 286 840 q 243 931 242 893 q 269 1001 243 972 q 331 1031 296 1031 q 385 1004 364 1031 q 406 940 406 978 q 379 869 404 899 q 319 840 354 840 z "},"ù":{"ha":828,"x_min":1,"x_max":817,"o":"m 292 -15 q 199 10 235 -15 q 147 82 163 36 q 131 188 131 128 q 140 315 131 247 q 160 445 150 382 q 169 554 169 508 q 162 590 169 579 q 142 600 154 600 q 103 574 124 600 q 65 482 83 549 l 1 500 q 22 564 7 528 q 61 633 36 600 q 121 688 86 667 q 200 710 156 710 q 299 670 271 710 q 326 560 326 631 q 320 466 326 519 q 306 356 314 413 q 292 247 299 299 q 286 160 286 196 q 291 125 286 140 q 306 101 296 110 q 335 92 317 92 q 392 124 363 92 q 449 212 422 157 q 498 333 476 267 q 532 470 519 400 q 544 603 544 540 q 544 651 544 624 q 542 694 543 678 l 700 694 q 702 662 701 672 q 703 638 703 651 q 699 573 703 611 q 690 485 696 535 q 676 375 685 436 q 666 285 671 324 q 658 219 661 246 q 652 172 654 192 q 650 139 650 153 q 657 105 650 115 q 676 94 664 94 q 715 120 694 94 q 754 213 735 146 l 817 194 q 799 131 813 167 q 764 61 786 94 q 710 6 742 28 q 633 -15 678 -15 q 553 14 586 -15 q 521 111 521 43 q 525 172 521 143 q 533 233 529 200 l 531 233 q 455 81 494 135 q 374 6 415 28 q 292 -15 333 -15 m 488 792 l 333 940 q 306 983 314 961 q 301 1026 297 1006 q 322 1063 306 1047 q 359 1077 339 1076 q 399 1067 379 1078 q 435 1029 419 1056 l 543 839 l 488 792 z "},"v":{"ha":728,"x_min":-1,"x_max":678,"o":"m 503 710 q 589 683 553 710 q 645 612 625 657 q 672 511 665 567 q 668 397 678 456 q 633 259 661 331 q 559 125 606 188 q 450 24 513 63 q 311 -15 388 -15 q 213 10 250 -15 q 158 82 175 36 q 140 189 142 128 q 144 284 140 232 q 152 388 147 336 q 161 484 157 440 q 165 556 165 528 q 158 590 165 579 q 138 600 150 600 q 99 574 119 600 q 61 482 79 549 l -1 500 q 17 563 3 528 q 57 632 32 599 q 116 688 82 665 q 196 710 150 710 q 272 690 244 710 q 310 637 299 671 q 322 558 322 603 q 319 461 322 515 q 310 351 315 407 q 301 248 306 296 q 297 167 297 200 q 301 129 297 150 q 315 94 304 108 q 353 79 326 79 q 427 106 389 81 q 499 175 465 131 q 555 277 532 219 q 582 400 578 335 q 585 445 585 419 q 582 497 586 471 q 569 543 578 522 q 543 574 560 564 q 517 553 532 561 q 482 544 501 544 q 432 563 458 544 q 406 622 406 581 q 415 660 406 639 q 445 695 424 681 q 503 710 467 710 z "},"w":{"ha":1107,"x_min":0,"x_max":1057,"o":"m 883 710 q 969 683 933 710 q 1025 612 1004 657 q 1051 511 1046 567 q 1049 397 1057 456 q 1010 256 1042 328 q 928 122 979 183 q 813 22 878 60 q 672 -15 747 -15 q 585 9 619 -15 q 538 80 551 33 q 532 190 525 126 q 474 75 511 121 q 390 7 436 29 q 296 -15 343 -15 q 172 41 210 -15 q 135 189 135 97 q 140 283 135 232 q 152 387 146 335 q 163 483 158 439 q 168 554 168 528 q 161 590 168 579 q 142 600 154 600 q 102 574 122 600 q 64 482 82 549 l 0 500 q 20 564 6 528 q 60 633 35 600 q 119 688 85 667 q 199 710 154 710 q 275 690 247 710 q 315 635 303 669 q 326 557 326 601 q 322 457 326 513 q 309 344 317 401 q 297 239 301 288 q 292 160 292 190 q 294 124 292 143 q 308 92 297 106 q 338 79 318 79 q 408 110 376 79 q 463 192 439 140 q 501 309 486 244 q 525 443 517 374 q 533 576 533 513 q 531 635 533 601 q 526 694 529 669 l 686 694 q 690 656 689 671 q 690 629 690 642 q 685 512 690 576 q 672 382 679 447 q 658 260 664 317 q 653 167 653 204 q 665 109 653 139 q 715 78 678 79 q 793 103 753 78 q 869 174 833 129 q 931 276 906 218 q 963 400 956 335 q 965 445 965 419 q 962 497 965 471 q 949 543 958 522 q 924 574 940 564 q 897 553 913 561 q 863 544 881 544 q 811 563 838 544 q 785 622 785 582 q 794 661 785 640 q 825 696 803 682 q 883 710 847 710 z "},"x":{"ha":756,"x_min":22,"x_max":717,"o":"m 125 -15 q 50 9 78 -15 q 22 72 22 33 q 45 135 22 111 q 99 158 68 158 q 148 141 132 158 q 168 106 164 124 q 226 168 196 111 q 299 349 257 225 q 260 459 275 413 q 228 543 244 506 q 203 584 214 574 q 175 596 192 594 q 137 573 156 596 q 113 481 118 550 l 47 488 q 58 554 49 517 q 88 628 68 592 q 144 687 108 664 q 232 710 179 710 q 315 678 286 710 q 364 593 343 647 q 382 543 374 568 q 403 475 390 518 q 465 602 435 556 q 522 672 494 649 q 572 703 549 696 q 614 710 594 710 q 681 685 658 710 q 703 624 703 661 q 681 569 703 593 q 626 546 658 546 q 584 557 599 546 q 560 579 569 568 q 528 552 546 572 q 490 490 511 532 q 438 376 468 449 q 478 273 458 322 q 519 184 499 224 q 558 122 539 144 q 593 99 576 99 q 630 122 615 99 q 653 206 644 144 l 717 196 q 704 128 714 164 q 675 59 694 92 q 624 6 656 26 q 543 -15 592 -15 q 483 -4 508 -15 q 437 35 458 7 q 392 113 415 63 q 336 243 369 164 l 335 243 q 278 105 306 157 q 226 27 251 53 q 174 -7 200 1 q 125 -15 149 -15 z "},"y":{"ha":757,"x_min":-1,"x_max":697,"o":"m 143 -376 q 53 -347 85 -375 q 21 -275 21 -318 q 46 -212 21 -235 q 99 -189 71 -189 q 175 -262 168 -189 q 185 -266 179 -265 q 194 -267 190 -267 q 249 -248 221 -268 q 302 -199 276 -228 q 348 -140 328 -169 q 378 -92 368 -110 q 347 60 367 -19 q 300 222 326 140 q 244 379 274 303 q 189 519 215 456 q 163 569 179 543 q 122 593 147 594 q 85 567 101 593 q 65 476 68 540 l -1 482 q 8 553 -1 514 q 38 628 17 592 q 92 687 58 664 q 178 710 126 710 q 256 687 225 710 q 309 630 288 664 q 344 561 331 596 q 393 425 367 506 q 443 254 419 344 q 481 76 467 164 l 482 76 q 539 209 514 142 q 580 341 564 276 q 597 461 596 406 q 596 513 599 482 q 579 558 593 543 q 568 555 574 556 q 556 554 563 554 q 502 576 524 554 q 481 626 481 597 q 508 690 481 669 q 565 710 535 710 q 643 681 614 710 q 685 610 672 653 q 697 521 697 567 q 676 362 697 450 q 616 179 654 274 q 531 -6 578 85 q 409 -199 472 -115 q 278 -330 346 -283 q 143 -376 211 -376 z "},"ý":{"ha":757,"x_min":-1,"x_max":697,"o":"m 143 -376 q 53 -347 85 -375 q 21 -275 21 -318 q 46 -212 21 -235 q 99 -189 71 -189 q 175 -262 168 -189 q 185 -266 179 -265 q 194 -267 190 -267 q 249 -248 221 -268 q 302 -199 276 -228 q 348 -140 328 -169 q 378 -92 368 -110 q 347 60 367 -19 q 300 222 326 140 q 244 379 274 303 q 189 519 215 456 q 163 569 179 543 q 122 593 147 594 q 85 567 101 593 q 65 476 68 540 l -1 482 q 8 553 -1 514 q 38 628 17 592 q 92 687 58 664 q 178 710 126 710 q 256 687 225 710 q 309 630 288 664 q 344 561 331 596 q 393 425 367 506 q 443 254 419 344 q 481 76 467 164 l 482 76 q 539 209 514 142 q 580 341 564 276 q 597 461 596 406 q 596 513 599 482 q 579 558 593 543 q 568 555 574 556 q 556 554 563 554 q 502 576 524 554 q 481 626 481 597 q 508 690 481 669 q 565 710 535 710 q 643 681 614 710 q 685 610 672 653 q 697 521 697 567 q 676 362 697 450 q 616 179 654 274 q 531 -6 578 85 q 409 -199 472 -115 q 278 -330 346 -283 q 143 -376 211 -376 m 306 792 l 254 839 l 372 1029 q 411 1067 389 1056 q 454 1078 433 1079 q 489 1063 475 1076 q 509 1026 506 1047 q 503 982 513 1006 q 471 939 493 958 l 306 792 z "},"ÿ":{"ha":757,"x_min":-1,"x_max":697,"o":"m 143 -376 q 53 -347 85 -375 q 21 -275 21 -318 q 46 -212 21 -235 q 99 -189 71 -189 q 175 -262 168 -189 q 185 -266 179 -265 q 194 -267 190 -267 q 249 -248 221 -268 q 302 -199 276 -228 q 348 -140 328 -169 q 378 -92 368 -110 q 347 60 367 -19 q 300 222 326 140 q 244 379 274 303 q 189 519 215 456 q 163 569 179 543 q 122 593 147 594 q 85 567 101 593 q 65 476 68 540 l -1 482 q 8 553 -1 514 q 38 628 17 592 q 92 687 58 664 q 178 710 126 710 q 256 687 225 710 q 309 630 288 664 q 344 561 331 596 q 393 425 367 506 q 443 254 419 344 q 481 76 467 164 l 482 76 q 539 209 514 142 q 580 341 564 276 q 597 461 596 406 q 596 513 599 482 q 579 558 593 543 q 568 555 574 556 q 556 554 563 554 q 502 576 524 554 q 481 626 481 597 q 508 690 481 669 q 565 710 535 710 q 643 681 614 710 q 685 610 672 653 q 697 521 697 567 q 676 362 697 450 q 616 179 654 274 q 531 -6 578 85 q 409 -199 472 -115 q 278 -330 346 -283 q 143 -376 211 -376 m 492 840 q 436 867 458 840 q 415 931 414 893 q 442 1001 415 972 q 503 1031 468 1031 q 557 1004 536 1031 q 578 940 578 978 q 551 869 576 899 q 492 840 526 840 m 263 840 q 207 867 229 840 q 186 931 185 893 q 213 1001 186 972 q 274 1031 239 1031 q 328 1004 307 1031 q 349 940 349 978 q 322 869 347 899 q 263 840 297 840 z "},"z":{"ha":672,"x_min":25,"x_max":629,"o":"m 79 -15 l 25 33 q 105 142 58 81 q 202 268 151 204 q 296 385 253 332 q 372 472 339 438 q 435 537 404 507 q 500 603 465 567 l 497 603 q 412 546 449 558 q 344 533 375 533 q 290 544 315 535 q 241 561 265 553 q 189 569 217 569 q 144 551 163 569 q 125 496 125 532 q 133 447 125 472 l 75 426 q 63 474 67 449 q 58 529 58 500 q 78 619 58 578 q 134 685 97 660 q 222 710 171 710 q 301 699 261 710 q 380 678 340 689 q 460 667 419 667 q 509 674 476 667 q 575 710 542 681 l 629 660 q 561 575 599 622 q 482 475 524 528 q 399 368 440 422 q 256 206 318 267 q 143 92 194 144 l 144 92 q 234 149 193 135 q 313 163 275 163 q 375 153 347 163 q 428 134 403 143 q 482 125 454 125 q 526 141 508 125 q 544 189 544 157 q 543 217 546 203 q 535 246 540 232 l 594 265 q 607 219 601 244 q 613 165 613 194 q 594 76 613 118 q 538 10 575 35 q 450 -15 501 -15 q 365 -4 410 -15 l 276 18 q 192 29 232 29 q 142 22 171 29 q 79 -15 114 15 z "},"ª":{"ha":563,"x_min":74,"x_max":543,"o":"m 339 994 q 406 990 364 994 q 482 978 447 986 q 469 886 476 938 q 454 783 461 835 q 443 688 447 731 q 439 622 439 644 q 442 597 439 606 q 453 589 446 589 q 477 603 464 589 q 503 660 490 617 l 543 649 q 524 592 539 624 q 484 538 510 561 q 418 515 458 515 q 362 535 381 515 q 343 597 343 554 q 346 633 343 613 q 351 671 349 653 l 350 671 q 300 574 326 607 q 247 528 274 540 q 194 515 221 515 q 110 554 147 515 q 74 676 74 593 q 103 839 74 767 q 193 953 133 911 q 339 994 253 994 m 307 935 q 248 906 272 933 q 210 826 224 879 q 193 689 196 772 q 203 624 193 647 q 232 599 213 600 q 276 629 254 599 q 315 710 297 660 q 344 818 332 761 q 358 928 356 875 q 336 934 351 932 q 307 935 321 936 z "},"º":{"ha":508,"x_min":72,"x_max":483,"o":"m 301 994 q 430 940 376 994 q 483 788 483 885 q 456 653 483 717 q 377 551 428 590 q 256 511 326 511 q 153 540 193 511 q 92 618 113 569 q 72 724 72 667 q 100 858 72 796 q 180 957 128 919 q 301 994 232 994 m 289 935 q 223 881 249 935 q 197 742 197 826 q 203 659 197 697 q 224 598 208 621 q 267 575 240 575 q 318 603 299 575 q 347 674 338 631 q 358 765 357 718 q 352 851 358 814 q 331 912 346 889 q 289 935 317 935 z "},"⁄":{"ha":633,"x_min":-54,"x_max":696,"o":"m 619 994 l 696 935 l 17 -22 l -54 32 l 619 994 z "},"½":{"ha":1111,"x_min":65,"x_max":1050,"o":"m 97 422 l 100 471 q 147 489 132 472 q 164 551 161 506 l 181 872 l 89 821 l 65 869 l 256 994 l 299 994 l 276 543 q 274 506 275 524 q 269 478 272 489 q 303 479 285 479 l 333 479 l 331 422 l 97 422 m 819 994 l 896 935 l 217 -22 l 146 32 l 819 994 m 875 575 q 959 561 919 575 q 1024 516 999 547 q 1047 436 1049 485 q 1032 369 1047 399 q 990 314 1017 340 q 925 258 963 288 q 843 190 888 228 q 796 147 815 167 q 767 103 776 126 l 919 100 q 958 102 942 100 q 984 116 974 104 q 994 153 994 128 l 1049 153 l 1035 1 l 658 1 q 684 108 661 64 q 742 189 707 153 q 818 257 778 225 q 898 353 879 308 q 917 425 917 397 q 899 486 918 465 q 846 507 879 507 q 806 497 825 507 q 782 472 788 486 q 794 452 792 464 q 797 432 797 440 q 783 394 797 415 q 735 372 768 372 q 695 390 710 372 q 681 433 681 407 q 703 495 681 463 q 769 551 725 528 q 875 575 813 575 z "},"¼":{"ha":1068,"x_min":65,"x_max":1008,"o":"m 97 422 l 100 471 q 147 489 132 472 q 164 551 161 506 l 181 872 l 89 821 l 65 869 l 256 994 l 299 994 l 276 543 q 274 506 275 524 q 269 478 272 489 q 303 479 285 479 l 333 479 l 331 422 l 97 422 m 824 994 l 900 935 l 221 -22 l 150 32 l 824 994 m 742 1 l 744 50 q 792 67 776 51 q 810 126 807 82 l 810 144 l 592 144 l 594 213 l 903 576 l 946 576 l 928 213 l 1008 211 l 1006 143 l 925 143 l 918 57 l 978 58 l 974 1 l 742 1 m 815 214 l 831 407 l 829 407 l 678 217 l 815 214 z "},"¾":{"ha":1190,"x_min":65,"x_max":1131,"o":"m 238 413 q 110 452 156 413 q 67 543 65 492 q 85 593 68 571 q 132 617 103 615 q 176 597 164 617 q 188 556 189 578 q 183 535 188 549 q 168 511 178 521 q 197 484 175 493 q 236 475 218 475 q 312 506 283 475 q 342 578 340 538 q 332 631 343 606 q 296 671 321 656 q 229 686 271 686 q 206 685 219 686 q 185 685 193 685 l 188 747 q 207 746 197 746 l 225 746 q 290 763 267 746 q 324 802 314 779 q 335 844 335 825 q 317 908 338 882 q 257 932 297 933 q 217 921 233 932 q 194 900 200 910 q 207 878 204 890 q 208 860 210 867 q 194 823 208 843 q 149 803 181 803 q 108 821 122 804 q 93 864 93 838 q 115 922 94 892 q 178 973 136 951 q 281 994 219 994 q 406 958 357 994 q 451 853 454 922 q 416 777 450 813 q 335 729 382 742 q 434 680 403 718 q 464 588 465 642 q 404 463 463 514 q 238 413 346 411 m 942 994 l 1018 935 l 339 -22 l 268 32 l 942 994 m 864 1 l 867 50 q 914 67 899 51 q 932 126 929 82 l 932 144 l 714 144 l 717 213 l 1025 576 l 1068 576 l 1050 213 l 1131 211 l 1128 143 l 1047 143 l 1040 57 l 1100 58 l 1096 1 l 864 1 m 938 214 l 953 407 l 951 407 l 800 217 l 938 214 z "},"¹":{"ha":381,"x_min":65,"x_max":333,"o":"m 97 422 l 100 471 q 147 489 132 472 q 164 551 161 506 l 181 872 l 89 821 l 65 869 l 256 994 l 299 994 l 276 543 q 274 506 275 524 q 269 478 272 489 q 303 479 285 479 l 333 479 l 331 422 l 97 422 z "},"²":{"ha":521,"x_min":74,"x_max":464,"o":"m 290 994 q 374 981 335 994 q 439 935 414 967 q 463 856 464 904 q 447 789 463 818 q 405 733 432 760 q 340 677 378 707 q 258 610 303 647 q 211 566 231 586 q 182 522 192 546 l 335 519 q 373 522 357 519 q 399 535 389 524 q 410 572 410 547 l 464 572 l 450 421 l 74 421 q 99 528 76 483 q 158 608 122 572 q 233 676 193 644 q 313 772 294 728 q 332 844 332 817 q 314 906 333 885 q 261 926 294 926 q 222 916 240 926 q 197 892 203 906 q 210 872 207 883 q 213 851 213 860 q 198 813 213 835 q 150 792 183 792 q 110 809 125 792 q 96 853 96 826 q 118 915 96 882 q 184 971 140 947 q 290 994 228 994 z "},"³":{"ha":504,"x_min":65,"x_max":465,"o":"m 238 413 q 110 452 156 413 q 67 543 65 492 q 85 593 68 571 q 132 617 103 615 q 176 597 164 617 q 188 556 189 578 q 183 535 188 549 q 168 511 178 521 q 197 484 175 493 q 236 475 218 475 q 312 506 283 475 q 342 578 340 538 q 332 631 343 606 q 296 671 321 656 q 229 686 271 686 q 206 685 219 686 q 185 685 193 685 l 188 747 q 207 746 197 746 l 225 746 q 290 763 267 746 q 324 802 314 779 q 335 844 335 825 q 317 908 338 882 q 257 932 297 933 q 217 921 233 932 q 194 900 200 910 q 207 878 204 890 q 208 860 210 867 q 194 823 208 843 q 149 803 181 803 q 108 821 122 804 q 93 864 93 838 q 115 922 94 892 q 178 973 136 951 q 281 994 219 994 q 406 958 357 994 q 451 853 454 922 q 416 777 450 813 q 335 729 382 742 q 434 680 403 718 q 464 588 465 642 q 404 463 463 514 q 238 413 346 411 z "},"⁴":{"ha":543,"x_min":57,"x_max":474,"o":"m 207 419 l 210 468 q 257 485 242 469 q 275 544 272 500 l 275 563 l 57 563 l 60 631 l 368 994 l 411 994 l 393 631 l 474 629 l 471 561 l 390 561 l 383 475 l 443 476 l 439 419 l 207 419 m 281 632 l 296 825 l 294 825 l 143 635 l 281 632 z "}," ":{"ha":365,"x_min":0,"x_max":0,"o":""}," ":{"ha":365,"x_min":0,"x_max":0,"o":""},"\r":{"ha":365,"x_min":0,"x_max":0,"o":""},".":{"ha":324,"x_min":44,"x_max":236,"o":"m 146 181 q 211 151 186 181 q 233 79 236 121 q 204 8 232 38 q 136 -22 176 -22 q 69 8 94 -22 q 46 79 44 38 q 78 151 49 121 q 146 181 108 181 z "},",":{"ha":340,"x_min":44,"x_max":253,"o":"m 142 172 q 226 135 199 174 q 250 39 253 96 q 235 -52 250 -3 q 190 -153 219 -101 q 117 -256 161 -206 l 71 -221 q 109 -162 89 -199 q 143 -83 129 -125 q 157 -1 157 -40 q 142 -4 149 -3 q 126 -6 135 -6 q 69 16 93 -6 q 44 76 44 38 q 74 144 47 117 q 142 172 101 172 z "},":":{"ha":347,"x_min":76,"x_max":275,"o":"m 178 181 q 243 151 218 181 q 265 79 268 121 q 236 8 264 38 q 168 -22 208 -22 q 101 8 126 -22 q 78 79 76 38 q 110 151 81 121 q 178 181 140 181 m 185 742 q 250 712 225 742 q 272 640 275 682 q 243 569 271 599 q 175 539 215 539 q 108 569 133 539 q 85 640 83 599 q 117 712 88 682 q 185 742 147 742 z "},";":{"ha":375,"x_min":74,"x_max":283,"o":"m 172 172 q 256 135 229 174 q 281 39 283 96 q 265 -52 281 -3 q 221 -153 250 -101 q 147 -256 192 -206 l 101 -221 q 140 -162 119 -199 q 174 -83 160 -125 q 188 -1 188 -40 q 172 -4 179 -3 q 157 -6 165 -6 q 99 16 124 -6 q 75 76 75 38 q 105 144 78 117 q 172 172 132 172 m 194 742 q 260 712 235 742 q 282 640 285 682 q 253 569 281 599 q 185 539 225 539 q 118 569 143 539 q 94 640 93 599 q 127 712 97 682 q 194 742 157 742 z "},"…":{"ha":1074,"x_min":44,"x_max":986,"o":"m 146 181 q 211 151 186 181 q 233 79 236 121 q 204 8 232 38 q 136 -22 176 -22 q 69 8 94 -22 q 46 79 44 38 q 78 151 49 121 q 146 181 108 181 m 521 181 q 586 151 561 181 q 608 79 611 121 q 579 8 607 38 q 511 -22 551 -22 q 444 8 469 -22 q 421 79 419 38 q 453 151 424 121 q 521 181 483 181 m 896 181 q 961 151 936 181 q 983 79 986 121 q 954 8 982 38 q 886 -22 926 -22 q 819 8 844 -22 q 796 79 794 38 q 828 151 799 121 q 896 181 858 181 z "},"!":{"ha":363,"x_min":69,"x_max":301,"o":"m 213 994 q 267 976 247 994 q 294 932 288 958 q 297 876 301 906 l 217 304 l 138 304 l 115 876 q 139 956 114 918 q 213 994 164 994 m 169 182 q 235 152 211 182 q 258 79 260 122 q 226 8 256 38 q 158 -22 196 -22 q 95 8 121 -22 q 71 79 69 38 q 103 152 74 122 q 169 182 133 182 z "},"¡":{"ha":335,"x_min":38,"x_max":271,"o":"m 126 -300 q 72 -282 92 -300 q 44 -237 51 -264 q 42 -182 38 -210 l 122 390 l 201 390 l 224 -182 q 201 -262 226 -224 q 126 -300 176 -300 m 169 513 q 104 542 129 513 q 81 615 79 572 q 114 687 83 657 q 181 717 144 717 q 244 687 218 717 q 268 615 271 657 q 237 542 267 572 q 169 513 207 513 z "},"?":{"ha":668,"x_min":64,"x_max":643,"o":"m 311 254 q 259 264 286 254 q 215 294 232 274 q 199 350 199 315 q 214 398 201 375 q 254 449 226 421 q 325 517 282 478 q 390 582 360 549 q 440 656 419 615 q 463 749 460 696 q 455 831 465 794 q 416 890 444 868 q 333 911 388 911 q 280 901 306 911 q 235 878 254 892 q 208 850 217 864 q 227 817 222 838 q 231 782 232 796 q 219 745 229 764 q 190 714 208 726 q 142 703 171 701 q 84 728 104 704 q 65 790 64 753 q 106 885 67 838 q 211 963 144 932 q 363 994 278 994 q 534 961 472 994 q 619 876 596 928 q 639 767 643 824 q 602 661 635 708 q 524 574 569 614 q 433 501 478 535 q 356 439 388 468 q 324 383 325 410 q 335 353 322 365 q 378 340 349 340 q 399 342 388 340 q 424 347 411 343 l 440 283 q 374 260 410 267 q 311 254 339 254 m 308 -22 q 245 6 271 -22 q 221 78 219 35 q 253 147 224 118 q 319 176 283 176 q 383 147 358 176 q 406 78 408 118 q 375 7 404 36 q 308 -22 346 -22 z "},"¿":{"ha":658,"x_min":10,"x_max":589,"o":"m 340 440 q 393 431 367 440 q 438 400 419 421 q 453 344 456 379 q 438 297 451 321 q 399 246 425 274 q 328 178 372 218 q 263 114 293 147 q 213 40 232 81 q 189 -54 193 -1 q 198 -137 188 -100 q 238 -195 208 -174 q 318 -217 267 -217 q 373 -207 347 -217 q 417 -183 399 -197 q 443 -156 436 -168 q 426 -121 431 -142 q 422 -87 421 -100 q 433 -49 424 -68 q 463 -18 443 -31 q 510 -8 483 -6 q 569 -33 549 -8 q 586 -96 589 -58 q 546 -190 585 -143 q 440 -269 507 -237 q 289 -300 374 -300 q 119 -267 181 -300 q 33 -181 57 -233 q 14 -72 10 -128 q 50 33 18 -14 q 128 120 82 81 q 219 193 174 160 q 296 256 265 226 q 328 311 326 285 q 317 342 329 329 q 274 354 304 354 q 253 353 265 354 q 228 347 240 351 l 211 411 q 278 434 243 428 q 340 440 313 440 m 344 717 q 407 688 381 717 q 431 617 433 660 q 399 547 429 576 q 332 518 369 518 q 269 547 293 518 q 246 617 244 576 q 278 688 249 658 q 344 717 307 717 z "},"·":{"ha":319,"x_min":68,"x_max":258,"o":"m 169 568 q 235 538 210 568 q 257 467 260 508 q 228 395 256 425 q 160 365 200 365 q 93 395 118 365 q 69 467 68 425 q 102 538 72 508 q 169 568 132 568 z "},"•":{"ha":531,"x_min":53,"x_max":490,"o":"m 282 721 q 389 693 342 721 q 463 617 436 665 q 488 510 490 569 q 452 401 485 450 q 369 325 419 353 q 260 297 319 297 q 152 325 200 297 q 78 401 104 353 q 56 510 53 450 q 90 617 58 569 q 172 693 121 665 q 282 721 222 721 z "},"*":{"ha":711,"x_min":64,"x_max":694,"o":"m 392 994 q 432 979 419 994 q 447 941 444 964 q 447 896 450 918 q 434 815 444 860 q 404 715 424 769 q 494 767 453 747 q 568 801 536 788 q 615 813 592 810 q 658 808 639 817 q 685 774 676 800 q 667 713 694 733 q 604 683 639 693 q 524 667 569 675 q 421 658 479 660 q 494 594 464 625 q 546 535 525 563 q 569 494 560 517 q 575 451 578 472 q 549 414 572 431 q 488 409 514 390 q 443 456 461 428 q 407 528 426 486 q 372 625 388 571 q 327 529 350 571 q 283 458 304 488 q 233 410 263 429 q 172 414 204 390 q 150 451 151 431 q 160 494 149 472 q 185 533 171 515 q 244 593 210 561 q 325 658 278 625 q 223 668 268 661 q 144 683 178 675 q 102 701 122 690 q 73 731 82 713 q 74 776 64 750 q 124 815 90 815 q 192 801 158 814 q 263 767 224 788 q 347 715 303 746 q 328 815 333 769 q 324 896 324 860 q 328 941 324 918 q 348 979 333 964 q 392 994 363 994 z "},"#":{"ha":1154,"x_min":29,"x_max":1133,"o":"m 968 988 l 901 733 l 1133 733 l 1133 732 l 1104 625 l 874 625 l 796 333 l 1028 333 l 997 226 l 768 226 l 706 -15 l 576 -15 l 640 226 l 386 226 l 324 -15 l 193 -15 l 260 226 l 29 226 l 60 333 l 288 333 l 368 625 l 135 625 l 165 733 l 396 733 l 465 988 l 586 988 l 519 733 l 778 733 l 847 988 l 968 988 m 750 625 l 492 625 l 414 333 l 668 333 l 750 625 z "},"/":{"ha":918,"x_min":-26,"x_max":933,"o":"m 829 1051 l 933 981 l 61 -376 l -26 -314 l 829 1051 z "},"\\":{"ha":1097,"x_min":63,"x_max":1022,"o":"m 935 -376 l 63 981 l 167 1051 l 1022 -314 l 935 -376 z "},"-":{"ha":661,"x_min":75,"x_max":588,"o":"m 588 503 l 581 381 l 75 375 l 82 503 l 588 503 z "},"–":{"ha":792,"x_min":75,"x_max":717,"o":"m 717 503 l 711 381 l 75 375 l 82 503 l 717 503 z "},"—":{"ha":1068,"x_min":75,"x_max":994,"o":"m 994 503 l 989 381 l 75 375 l 82 503 l 994 503 z "},"_":{"ha":1101,"x_min":88,"x_max":942,"o":"m 89 -69 l 942 -75 l 940 -189 l 88 -189 l 89 -69 z "},"(":{"ha":413,"x_min":26,"x_max":426,"o":"m 310 -376 q 210 -256 261 -329 q 117 -90 158 -183 q 51 110 75 3 q 32 332 26 217 q 74 557 39 447 q 160 763 108 667 q 272 933 213 858 q 385 1056 331 1008 l 426 1013 q 345 885 381 956 q 283 740 310 815 q 240 590 257 665 q 213 449 222 515 q 199 332 203 383 q 199 216 197 281 q 213 79 201 151 q 242 -66 224 7 q 290 -208 261 -139 q 357 -333 318 -276 l 310 -376 z "},")":{"ha":413,"x_min":-24,"x_max":375,"o":"m 93 1056 q 193 935 142 1008 q 286 769 244 863 q 351 569 328 676 q 369 347 375 463 q 328 122 364 232 q 242 -83 293 13 q 131 -254 190 -179 q 18 -376 72 -329 l -24 -333 q 58 -206 22 -276 q 119 -61 93 -136 q 163 89 144 14 q 191 230 181 164 q 203 347 201 296 q 203 463 207 399 q 190 600 200 528 q 161 745 181 672 q 114 887 142 818 q 46 1013 86 956 l 93 1056 z "},"{":{"ha":474,"x_min":0,"x_max":490,"o":"m 490 1056 l 486 979 q 381 954 419 982 q 326 877 343 926 q 304 761 308 828 q 304 717 303 746 q 307 653 306 688 q 310 585 308 618 q 310 533 311 553 q 264 417 307 457 q 158 357 221 376 l 158 354 q 256 290 218 333 q 290 172 294 247 q 286 122 290 154 q 276 50 282 89 q 267 -25 271 11 q 263 -86 263 -61 q 275 -195 261 -146 q 325 -274 289 -244 q 425 -303 361 -304 l 421 -376 l 363 -376 q 217 -337 269 -376 q 142 -230 164 -299 q 124 -72 121 -161 q 127 -15 124 -51 q 135 61 131 21 q 144 139 140 101 q 149 199 149 176 q 131 281 150 251 q 53 311 111 311 l 0 311 l 6 399 l 57 399 q 140 425 117 399 q 165 507 163 451 q 166 550 167 519 q 165 617 165 581 q 163 689 164 654 q 163 744 163 724 q 191 914 165 844 q 276 1019 217 983 q 431 1056 335 1056 l 490 1056 z "},"}":{"ha":474,"x_min":-28,"x_max":463,"o":"m -28 -376 l -25 -300 q 81 -274 43 -301 q 137 -197 119 -247 q 158 -82 154 -147 q 158 -37 158 -67 q 156 26 157 -8 q 153 94 154 61 q 153 146 151 126 q 199 263 156 222 q 304 322 242 304 l 304 325 q 207 390 244 347 q 171 507 169 433 q 176 558 172 525 q 186 629 181 590 q 196 704 192 668 q 200 765 200 740 q 187 874 201 825 q 136 953 172 924 q 38 982 100 983 l 42 1056 l 100 1056 q 246 1017 193 1056 q 319 910 299 978 q 339 751 340 842 q 335 695 339 731 q 327 619 332 660 q 318 540 322 578 q 314 481 314 503 q 332 398 311 428 q 410 368 353 368 l 463 368 l 457 281 l 406 281 q 323 254 346 281 q 296 172 300 228 l 296 129 q 297 62 296 99 q 299 -10 299 25 q 299 -65 300 -44 q 272 -234 299 -165 q 188 -340 246 -303 q 31 -376 129 -376 l -28 -376 z "},"[":{"ha":526,"x_min":51,"x_max":553,"o":"m 553 1049 l 547 957 l 278 953 l 203 -258 l 479 -262 l 474 -354 l 51 -354 l 133 1049 l 553 1049 z "},"]":{"ha":526,"x_min":-36,"x_max":465,"o":"m -36 -354 l -31 -262 l 239 -258 l 314 953 l 38 957 l 43 1049 l 465 1049 l 383 -354 l -36 -354 z "},"‚":{"ha":340,"x_min":44,"x_max":253,"o":"m 142 172 q 226 135 199 174 q 250 39 253 96 q 235 -52 250 -3 q 190 -153 219 -101 q 117 -256 161 -206 l 71 -221 q 109 -162 89 -199 q 143 -83 129 -125 q 157 -1 157 -40 q 142 -4 149 -3 q 126 -6 135 -6 q 69 16 93 -6 q 44 76 44 38 q 74 144 47 117 q 142 172 101 172 z "},"„":{"ha":597,"x_min":44,"x_max":510,"o":"m 142 172 q 226 135 199 174 q 250 39 253 96 q 235 -52 250 -3 q 190 -153 219 -101 q 117 -256 161 -206 l 71 -221 q 109 -162 89 -199 q 143 -83 129 -125 q 157 -1 157 -40 q 142 -4 149 -3 q 126 -6 135 -6 q 69 16 93 -6 q 44 76 44 38 q 74 144 47 117 q 142 172 101 172 m 399 172 q 483 135 456 174 q 507 39 510 96 q 492 -52 507 -3 q 447 -153 476 -101 q 374 -256 418 -206 l 328 -221 q 366 -162 346 -199 q 400 -83 386 -125 q 414 -1 414 -40 q 399 -4 406 -3 q 383 -6 392 -6 q 326 16 350 -6 q 301 76 301 38 q 331 144 304 117 q 399 172 358 172 z "},"“":{"ha":564,"x_min":76,"x_max":543,"o":"m 188 631 q 104 668 132 629 q 79 764 76 707 q 95 855 81 806 q 140 957 110 904 q 213 1058 169 1010 l 258 1024 q 220 965 240 1003 q 186 885 200 928 q 172 804 172 843 q 188 808 182 807 q 203 808 194 808 q 261 788 236 808 q 285 726 286 767 q 256 658 283 686 q 188 631 228 631 m 446 631 q 362 668 389 629 q 336 764 335 707 q 353 855 338 806 q 397 957 368 904 q 469 1058 426 1010 l 515 1024 q 478 965 497 1003 q 444 885 458 928 q 429 804 431 843 q 446 808 439 807 q 460 808 453 808 q 519 788 494 808 q 542 726 543 767 q 513 658 540 686 q 446 631 486 631 z "},"”":{"ha":539,"x_min":69,"x_max":531,"o":"m 167 1056 q 251 1018 224 1057 q 275 922 278 979 q 260 831 275 881 q 215 730 244 782 q 142 628 186 678 l 96 663 q 134 722 114 685 q 168 801 154 758 q 182 882 182 843 q 167 879 174 881 q 151 878 160 878 q 94 899 118 878 q 69 960 69 921 q 99 1028 72 1000 q 167 1056 126 1056 m 421 1056 q 505 1018 478 1057 q 529 922 532 979 q 514 831 529 881 q 469 730 499 782 q 396 628 440 678 l 350 663 q 388 722 368 685 q 422 801 408 758 q 436 882 436 843 q 421 879 428 881 q 406 878 414 878 q 348 899 372 878 q 324 960 324 921 q 353 1028 326 1000 q 421 1056 381 1056 z "},"‘":{"ha":306,"x_min":76,"x_max":286,"o":"m 188 631 q 104 668 132 629 q 79 764 76 707 q 95 855 81 806 q 140 957 110 904 q 213 1058 169 1010 l 258 1024 q 220 965 240 1003 q 186 885 200 928 q 172 804 172 843 q 188 808 182 807 q 203 808 194 808 q 261 788 236 808 q 285 726 286 767 q 256 658 283 686 q 188 631 228 631 z "},"’":{"ha":288,"x_min":69,"x_max":278,"o":"m 168 1054 q 252 1017 225 1056 q 276 921 279 978 q 261 830 276 879 q 217 728 246 781 q 143 626 188 676 l 97 661 q 135 720 115 683 q 169 799 156 757 q 183 881 183 842 q 168 878 175 879 q 153 876 161 876 q 95 898 119 876 q 71 958 71 919 q 101 1026 74 999 q 168 1054 128 1054 z "},"«":{"ha":692,"x_min":28,"x_max":644,"o":"m 375 -15 l 28 360 l 28 383 l 425 771 l 472 717 l 185 369 l 185 368 l 429 35 l 375 -15 m 561 96 l 329 364 l 329 386 l 596 660 l 644 618 l 478 379 l 478 378 l 615 139 l 561 96 z "},"»":{"ha":694,"x_min":42,"x_max":658,"o":"m 311 767 l 658 392 l 658 368 l 261 -19 l 214 35 l 501 382 l 501 383 l 257 717 l 311 767 m 125 656 l 357 388 l 357 365 l 90 92 l 42 133 l 208 372 l 208 374 l 71 613 l 125 656 z "},"‹":{"ha":515,"x_min":26,"x_max":483,"o":"m 381 -18 l 26 361 l 28 383 l 429 767 l 483 707 l 199 369 l 199 368 l 440 39 l 381 -18 z "},"›":{"ha":514,"x_min":25,"x_max":482,"o":"m 79 -18 l 25 42 l 310 379 l 310 381 l 68 710 l 128 767 l 482 388 l 481 365 l 79 -18 z "},"\"":{"ha":465,"x_min":97,"x_max":435,"o":"m 435 994 l 407 682 l 304 682 l 311 994 l 435 994 m 228 994 l 199 682 l 97 682 l 103 994 l 228 994 z "},"'":{"ha":267,"x_min":97,"x_max":236,"o":"m 236 994 l 207 682 l 97 682 l 103 994 l 236 994 z "},"@":{"ha":1076,"x_min":43,"x_max":1031,"o":"m 581 885 q 785 848 699 886 q 926 744 871 810 q 1006 595 982 678 q 1025 428 1031 513 q 988 269 1019 335 q 909 165 956 204 q 813 109 863 125 q 724 96 764 93 q 668 114 692 100 q 631 152 644 128 q 615 213 618 176 q 619 297 611 249 q 523 148 575 193 q 419 103 471 103 q 320 150 360 103 q 286 301 281 197 q 313 438 289 372 q 378 557 336 504 q 483 641 421 610 q 622 672 544 672 q 694 666 653 672 q 778 647 736 660 q 759 546 769 600 q 739 438 749 492 q 722 338 729 383 q 714 264 715 293 q 719 192 710 225 q 763 157 728 160 q 829 178 800 154 q 880 240 858 201 q 914 326 901 279 q 929 417 926 372 q 891 649 938 557 q 760 785 844 740 q 569 826 676 829 q 408 785 482 824 q 278 682 333 746 q 191 536 224 618 q 154 364 158 454 q 178 176 149 257 q 263 40 207 94 q 392 -43 318 -15 q 549 -71 467 -71 q 663 -58 603 -72 q 783 -13 724 -44 q 889 69 842 18 l 919 33 q 742 -92 842 -50 q 533 -136 643 -133 q 313 -100 407 -139 q 159 8 219 -61 q 71 166 99 76 q 49 356 43 256 q 90 536 54 444 q 194 706 126 628 q 358 833 261 785 q 581 885 456 882 m 588 613 q 515 581 547 610 q 458 506 482 551 q 422 406 435 460 q 406 303 408 353 q 416 216 403 247 q 456 185 429 185 q 517 225 486 185 q 577 331 549 265 q 625 469 606 396 q 650 606 644 542 q 622 611 639 610 q 588 613 604 613 z "},"&":{"ha":950,"x_min":35,"x_max":969,"o":"m 399 -22 q 213 8 296 -22 q 83 99 131 38 q 36 257 35 161 q 69 381 38 324 q 159 479 101 439 q 294 536 217 519 q 153 607 200 556 q 108 728 107 658 q 154 873 110 813 q 271 965 199 933 q 431 994 343 996 q 570 972 511 994 q 661 910 629 949 q 693 825 693 872 q 672 765 693 792 q 613 739 650 739 q 558 758 579 739 q 535 811 538 778 q 539 840 535 822 q 551 868 543 858 q 510 902 538 889 q 442 915 482 915 q 365 893 399 915 q 309 833 331 871 q 285 743 288 794 q 290 687 283 717 q 315 630 296 657 q 367 585 333 603 q 453 568 400 568 q 478 569 469 568 q 503 569 486 569 l 499 485 l 449 486 q 352 469 393 486 q 283 424 311 453 q 239 359 254 396 q 222 283 224 322 q 247 162 218 211 q 326 88 276 113 q 431 64 376 64 q 585 101 526 64 q 674 198 644 138 q 710 325 704 258 q 659 322 686 325 q 602 306 632 318 q 538 268 572 294 l 497 310 q 568 393 535 365 q 642 431 601 421 q 743 442 683 442 q 834 451 790 442 q 925 506 878 460 l 969 467 q 924 399 947 428 q 869 353 901 371 q 786 331 838 336 q 763 213 783 275 q 697 98 742 151 q 579 11 653 44 q 399 -22 506 -22 z "},"¶":{"ha":743,"x_min":63,"x_max":653,"o":"m 188 -354 l 239 560 q 152 589 193 567 q 87 653 111 611 q 65 765 63 696 q 102 881 69 835 q 183 949 135 926 q 283 972 232 972 l 653 972 l 581 -354 l 449 -354 l 515 889 l 388 888 l 321 -354 l 188 -354 z "},"§":{"ha":731,"x_min":43,"x_max":679,"o":"m 311 -317 q 180 -290 236 -317 q 94 -222 124 -264 q 65 -136 64 -179 q 89 -72 68 -100 q 147 -43 110 -44 q 193 -56 176 -43 q 217 -87 210 -69 q 222 -119 224 -104 q 204 -172 222 -149 q 226 -203 210 -189 q 265 -226 242 -218 q 314 -233 289 -233 q 397 -215 365 -233 q 446 -170 429 -197 q 465 -114 463 -143 q 451 -40 469 -72 q 400 19 432 -7 q 330 69 368 46 q 256 115 292 92 q 177 172 215 143 q 108 237 139 201 q 60 317 76 272 q 47 417 43 361 q 83 535 50 472 q 171 647 117 599 q 132 720 142 683 q 124 799 122 757 q 142 881 125 836 q 192 965 158 925 q 280 1031 226 1006 q 410 1056 333 1056 q 541 1028 485 1056 q 628 960 597 1001 q 656 874 658 919 q 633 813 654 839 q 574 783 611 786 q 528 796 546 783 q 504 826 511 808 q 499 857 497 843 q 503 886 499 872 q 517 913 508 900 q 497 943 513 929 q 458 965 481 957 q 410 972 435 972 q 327 953 360 972 q 278 905 294 933 q 258 847 261 876 q 277 767 257 801 q 332 706 297 733 q 406 655 367 679 q 482 606 446 631 q 589 522 544 563 q 656 432 633 481 q 676 314 679 383 q 660 238 676 281 q 615 156 643 196 q 551 83 588 115 q 587 19 571 56 q 600 -68 603 -18 q 583 -150 599 -107 q 533 -231 567 -193 q 444 -292 499 -268 q 311 -317 390 -317 m 499 146 q 525 208 515 169 q 535 275 535 247 q 515 360 536 324 q 459 427 494 397 q 381 482 424 457 q 298 532 339 507 q 226 585 257 557 q 200 522 210 560 q 189 456 190 483 q 209 370 188 407 q 266 303 231 333 q 343 248 301 274 q 426 198 385 222 q 499 146 467 174 z "},"©":{"ha":1229,"x_min":49,"x_max":1190,"o":"m 611 135 q 442 180 515 135 q 329 302 368 225 q 294 474 290 379 q 322 597 299 535 q 391 712 346 660 q 501 794 436 764 q 650 824 567 825 q 737 810 694 822 q 814 772 779 799 l 814 818 l 903 818 l 890 578 l 815 578 q 761 701 810 664 q 651 738 713 738 q 555 707 601 738 q 478 620 508 676 q 443 489 447 564 q 465 365 440 422 q 540 274 490 308 q 657 238 589 239 q 761 264 704 238 q 860 340 818 290 l 910 288 q 808 194 863 228 q 702 148 753 161 q 611 135 651 135 m 590 -89 q 363 -47 464 -89 q 190 71 261 -6 q 84 250 119 147 q 54 476 49 353 q 109 697 61 594 q 238 878 157 800 q 424 1001 318 957 q 653 1046 529 1046 q 877 1001 776 1046 q 1048 878 978 957 q 1154 697 1118 800 q 1183 475 1190 593 q 1129 256 1178 358 q 999 76 1081 153 q 813 -45 917 -1 q 590 -89 708 -89 m 599 -14 q 792 25 704 -14 q 945 132 881 64 q 1047 288 1010 200 q 1089 476 1083 376 q 1066 665 1094 575 q 978 823 1038 754 q 835 931 919 892 q 646 971 751 971 q 452 932 540 971 q 298 824 364 893 q 194 666 232 756 q 150 476 156 576 q 172 288 144 376 q 258 132 200 200 q 402 25 317 64 q 599 -14 488 -14 z "},"®":{"ha":1229,"x_min":49,"x_max":1190,"o":"m 653 1046 q 877 1001 776 1046 q 1048 878 978 957 q 1154 697 1118 800 q 1183 475 1190 593 q 1129 256 1178 358 q 999 76 1081 153 q 813 -45 917 -1 q 590 -89 708 -89 q 363 -47 464 -89 q 190 71 261 -6 q 84 250 119 147 q 54 476 49 353 q 109 697 61 594 q 238 878 157 800 q 424 1001 318 957 q 653 1046 529 1046 m 646 971 q 452 932 540 971 q 298 824 364 893 q 194 666 232 756 q 150 476 156 576 q 172 288 144 376 q 258 132 200 200 q 402 25 317 64 q 599 -14 488 -14 q 792 25 704 -14 q 945 132 881 64 q 1047 288 1010 200 q 1089 476 1083 376 q 1066 665 1094 575 q 978 823 1038 754 q 835 931 919 892 q 646 971 751 971 m 342 229 q 394 249 379 231 q 413 321 410 267 l 431 675 q 435 721 432 700 q 439 754 438 742 q 402 752 422 753 q 368 750 382 751 l 372 818 q 456 819 413 818 q 544 820 500 819 q 629 821 589 821 q 769 798 713 819 q 853 734 826 776 q 875 625 881 692 q 856 552 874 589 q 803 487 839 515 q 710 442 768 458 q 739 418 728 432 q 763 383 750 404 q 824 281 803 314 q 862 238 846 247 q 900 226 878 228 l 897 171 l 764 171 q 728 205 747 181 q 688 265 708 229 q 640 351 657 321 l 615 397 q 600 424 607 413 q 569 424 585 424 q 539 425 553 425 l 533 317 q 531 269 532 292 q 526 236 529 247 q 566 238 543 238 q 601 239 589 238 l 599 172 l 338 172 l 342 229 m 542 500 q 567 497 556 497 q 590 496 578 496 q 667 512 632 497 q 724 556 701 526 q 749 629 746 585 q 729 707 751 681 q 675 742 707 733 q 615 749 643 750 q 567 727 579 747 q 551 660 554 707 l 542 500 z "},"™":{"ha":1488,"x_min":100,"x_max":1426,"o":"m 960 399 q 892 578 922 499 q 840 724 863 657 q 803 851 818 790 l 800 851 q 799 784 800 818 q 796 718 797 750 l 783 539 q 780 500 782 518 q 774 471 778 482 q 808 472 789 472 q 839 474 826 472 l 835 407 l 638 407 l 640 464 q 688 481 674 465 q 706 544 701 497 l 731 842 q 733 881 732 863 q 736 907 735 899 q 704 905 722 906 q 675 904 686 904 l 679 972 l 876 972 l 989 661 q 1012 592 1001 625 q 1032 525 1022 558 l 1033 525 q 1049 565 1040 542 q 1067 608 1058 588 q 1081 640 1076 629 q 1156 806 1118 724 q 1231 972 1194 888 l 1426 972 l 1422 914 q 1376 897 1392 913 q 1360 833 1360 881 l 1358 543 q 1358 503 1360 522 q 1354 471 1356 483 q 1387 472 1368 472 q 1418 474 1406 472 l 1414 407 l 1175 407 l 1179 464 q 1227 482 1211 465 q 1243 544 1243 499 l 1243 721 q 1244 754 1243 733 q 1245 800 1244 775 q 1246 847 1246 825 l 1244 847 q 1227 804 1236 825 q 1210 763 1218 783 l 1050 399 l 960 399 m 224 406 l 226 464 q 274 480 258 465 q 290 540 289 494 l 310 904 l 251 904 q 180 872 206 904 q 150 774 154 839 l 100 774 l 115 972 l 635 972 l 629 774 l 579 774 q 559 874 582 842 q 485 906 536 907 l 433 906 l 414 540 q 412 501 413 519 q 408 471 411 482 q 442 473 421 472 q 474 474 463 474 l 469 406 l 224 406 z "},"°":{"ha":535,"x_min":67,"x_max":518,"o":"m 304 994 q 462 931 406 994 q 513 775 518 868 q 476 663 510 713 q 391 585 443 614 q 278 557 339 557 q 163 585 211 557 q 91 663 115 614 q 69 775 67 713 q 107 887 74 838 q 192 965 140 936 q 304 994 244 994 m 297 910 q 212 869 247 910 q 175 774 176 828 q 203 681 175 719 q 285 643 232 643 q 373 684 339 643 q 408 779 407 725 q 379 873 408 836 q 297 910 350 910 z "},"′":{"ha":382,"x_min":63,"x_max":319,"o":"m 133 675 l 63 707 l 183 1106 l 319 1049 l 133 675 z "},"″":{"ha":610,"x_min":63,"x_max":547,"o":"m 133 675 l 63 707 l 183 1106 l 319 1049 l 133 675 m 360 675 l 289 707 l 410 1106 l 546 1049 l 360 675 z "},"|":{"ha":325,"x_min":57,"x_max":264,"o":"m 264 1056 l 183 -376 l 57 -376 l 128 1056 l 264 1056 z "},"¦":{"ha":351,"x_min":71,"x_max":275,"o":"m 275 1056 l 242 526 l 117 526 l 140 1056 l 275 1056 m 228 151 l 194 -376 l 71 -376 l 93 151 l 228 151 z "},"¢":{"ha":675,"x_min":50,"x_max":619,"o":"m 468 867 l 451 704 q 565 648 521 690 q 608 544 608 606 q 587 483 608 507 q 529 458 565 458 q 470 483 488 457 q 453 531 453 510 q 456 558 453 543 q 468 588 460 574 q 439 621 461 608 q 388 633 417 633 q 305 603 338 633 q 253 524 272 572 q 227 423 235 476 q 218 322 219 369 q 235 190 217 240 q 284 116 253 139 q 351 92 315 93 q 416 103 381 90 q 487 149 451 115 q 550 249 522 183 l 619 215 q 504 50 569 101 q 367 -12 439 -1 l 349 -183 l 236 -183 l 253 -8 q 105 83 160 11 q 50 288 50 156 q 67 417 50 350 q 119 544 83 483 q 207 647 154 604 q 331 703 260 689 l 346 867 l 468 867 z "},"¤":{"ha":769,"x_min":68,"x_max":690,"o":"m 149 43 l 68 111 l 153 203 q 119 353 115 269 q 135 434 122 393 q 174 508 149 475 l 94 604 l 182 672 l 249 583 q 315 615 278 603 q 394 626 351 626 q 472 615 436 626 q 535 583 507 603 l 611 672 l 690 601 l 601 506 q 632 432 622 471 q 639 353 642 393 q 624 274 638 313 q 590 203 611 235 l 665 111 l 579 43 l 514 129 q 446 99 483 110 q 365 89 408 89 q 285 99 321 89 q 221 129 249 110 l 149 43 m 369 174 q 425 194 403 174 q 461 245 447 214 q 482 311 475 276 q 490 375 489 346 q 488 425 492 396 q 472 481 483 454 q 441 526 461 508 q 389 544 421 544 q 337 526 358 544 q 301 481 315 508 q 280 425 286 454 q 272 375 274 396 q 274 311 271 346 q 287 245 276 276 q 317 194 297 214 q 369 174 338 174 z "},"$":{"ha":772,"x_min":51,"x_max":719,"o":"m 315 -214 l 324 -19 q 234 1 281 -14 q 146 39 188 15 l 149 -14 l 51 -14 l 68 301 l 144 301 q 215 122 153 181 q 379 64 278 64 q 502 106 456 64 q 551 213 549 147 q 526 299 554 265 q 452 359 499 333 q 351 408 406 385 q 247 464 297 435 q 156 532 196 493 q 95 621 117 571 q 78 736 74 671 q 95 818 81 775 q 142 899 110 861 q 228 964 174 938 q 364 994 283 990 l 374 1161 l 485 1161 l 474 985 q 538 965 507 978 q 597 929 569 951 l 596 988 l 690 988 l 674 671 l 596 671 q 568 800 590 746 q 502 884 546 854 q 388 914 458 914 q 310 894 343 914 q 258 843 276 874 q 238 775 239 813 q 258 694 236 728 q 324 631 279 660 q 439 567 369 601 q 540 515 489 543 q 631 450 590 486 q 696 365 672 414 q 717 251 719 317 q 679 124 713 182 q 584 28 646 65 q 435 -19 522 -8 l 424 -214 l 315 -214 z "},"€":{"ha":1083,"x_min":42,"x_max":1025,"o":"m 672 994 q 794 977 733 994 q 908 924 854 960 l 910 924 l 915 985 l 1011 985 l 964 689 l 888 689 q 865 805 888 756 q 799 881 843 854 q 683 908 754 908 q 544 871 607 908 q 436 768 481 833 q 369 618 392 703 l 838 617 l 778 524 l 351 522 l 349 472 q 350 424 347 447 l 740 422 l 676 329 l 361 328 q 463 143 386 208 q 650 78 539 78 q 824 120 738 78 q 974 242 911 163 l 1025 193 q 881 58 956 104 q 737 -6 807 11 q 608 -22 667 -22 q 406 23 493 -22 q 263 147 318 68 q 186 328 207 226 l 42 326 l 71 425 l 176 424 q 182 521 175 474 l 53 521 l 81 618 l 201 618 q 294 805 232 719 q 451 942 357 890 q 672 994 546 994 z "},"£":{"ha":763,"x_min":35,"x_max":704,"o":"m 101 -22 q 50 -1 65 -22 q 36 47 35 19 q 74 117 39 86 q 161 165 110 149 q 198 288 197 224 q 185 421 199 351 l 74 421 l 79 514 l 163 514 q 153 585 157 547 q 151 669 150 624 q 199 845 157 772 q 308 956 242 918 q 449 994 374 994 q 582 966 533 994 q 650 898 631 938 q 668 824 669 858 q 645 761 667 788 q 586 733 624 735 q 540 746 557 733 q 515 776 522 758 q 508 808 508 793 q 515 842 510 824 q 535 874 521 860 q 509 901 529 889 q 457 914 489 914 q 375 885 408 914 q 326 812 342 856 q 307 722 310 768 q 308 612 303 663 q 319 514 313 561 l 538 514 l 532 426 l 329 424 q 326 325 335 372 q 296 238 318 278 q 235 165 274 197 q 293 182 268 178 q 340 186 318 186 q 398 178 371 186 q 447 160 425 171 q 511 129 482 144 q 568 114 540 114 q 608 134 589 114 q 632 196 628 154 l 704 196 q 653 39 694 100 q 538 -22 611 -22 q 450 0 490 -22 q 369 49 410 22 q 295 85 336 68 q 217 101 254 103 q 170 14 203 50 q 101 -22 138 -22 z "},"¥":{"ha":978,"x_min":67,"x_max":979,"o":"m 308 0 l 311 76 q 367 87 346 78 q 400 122 389 96 q 415 203 411 149 l 256 203 l 261 296 l 419 296 l 424 371 l 263 369 l 268 464 l 364 463 l 193 744 q 155 823 169 785 q 140 885 140 861 q 101 883 118 883 q 67 881 85 882 l 72 972 l 460 972 l 456 896 q 360 867 383 899 q 369 774 336 835 q 420 685 394 728 q 469 597 446 642 q 490 563 478 585 q 514 518 501 542 q 535 474 526 494 l 542 474 q 609 595 569 525 q 706 765 649 665 q 727 803 714 781 q 756 848 740 825 q 783 885 771 871 q 727 883 760 883 q 675 881 694 882 l 681 972 l 979 972 l 975 896 q 880 854 919 890 q 793 738 840 818 q 712 597 751 667 q 633 461 672 528 l 754 461 l 750 372 l 594 371 l 590 294 l 747 293 l 743 206 l 586 204 q 582 141 585 171 q 575 88 579 111 q 634 90 600 89 q 688 92 668 92 l 682 0 l 308 0 z "},"∕":{"ha":522,"x_min":-53,"x_max":526,"o":"m 443 1032 l 526 986 l 25 -75 l -53 -33 l 443 1032 z "},"+":{"ha":736,"x_min":64,"x_max":689,"o":"m 69 550 l 331 550 l 344 810 l 440 810 l 426 550 l 689 550 l 683 454 l 421 454 l 407 190 l 311 190 l 325 454 l 64 454 l 69 550 z "},"−":{"ha":736,"x_min":64,"x_max":688,"o":"m 68 550 l 688 550 l 683 454 l 64 454 l 68 550 z "},"×":{"ha":736,"x_min":113,"x_max":638,"o":"m 206 754 l 381 568 l 575 753 l 638 686 l 444 503 l 619 317 l 549 249 l 372 435 l 175 247 l 113 314 l 310 501 l 133 688 l 206 754 z "},"÷":{"ha":736,"x_min":64,"x_max":688,"o":"m 372 376 q 438 347 413 376 q 460 275 463 317 q 431 203 458 233 q 363 174 403 174 q 296 203 321 174 q 272 275 271 233 q 305 347 275 317 q 372 376 335 376 m 396 829 q 461 799 436 829 q 483 728 486 769 q 454 656 482 686 q 386 626 426 626 q 319 656 344 626 q 296 728 294 686 q 328 799 299 769 q 396 829 358 829 m 68 550 l 688 550 l 683 454 l 64 454 l 68 550 z "},"=":{"ha":736,"x_min":57,"x_max":694,"o":"m 75 672 l 694 672 l 690 576 l 71 576 l 75 672 m 63 438 l 682 438 l 676 342 l 57 342 l 63 438 z "},">":{"ha":736,"x_min":44,"x_max":688,"o":"m 79 768 l 688 496 l 682 383 l 44 106 l 51 228 l 533 436 l 72 644 l 79 768 z "},"<":{"ha":736,"x_min":58,"x_max":701,"o":"m 667 106 l 58 378 l 64 490 l 701 768 l 694 646 l 213 438 l 674 229 l 667 106 z "},"±":{"ha":736,"x_min":64,"x_max":689,"o":"m 69 550 l 331 550 l 344 810 l 440 810 l 426 550 l 689 550 l 683 454 l 421 454 l 407 190 l 311 190 l 325 454 l 64 454 l 69 550 m 68 96 l 688 96 l 683 0 l 64 0 l 68 96 z "},"~":{"ha":736,"x_min":58,"x_max":685,"o":"m 508 293 q 421 309 456 293 q 359 345 386 325 q 303 381 332 365 q 232 397 274 397 q 137 378 176 397 q 58 331 97 358 l 65 469 q 151 524 111 506 q 246 543 190 543 q 333 528 300 543 q 392 494 367 514 q 442 458 417 475 q 504 439 467 442 q 601 453 554 435 q 685 504 647 472 l 678 365 q 605 314 647 335 q 508 293 563 293 z "},"¬":{"ha":736,"x_min":58,"x_max":688,"o":"m 567 211 l 572 378 l 58 375 l 65 494 l 688 490 l 672 211 l 567 211 z "},"^":{"ha":1143,"x_min":74,"x_max":1050,"o":"m 882 607 l 572 911 l 233 613 l 74 613 l 521 994 l 644 994 l 1050 607 l 882 607 z "},"µ":{"ha":826,"x_min":72,"x_max":772,"o":"m 154 -376 q 88 -340 104 -376 q 75 -242 72 -303 l 124 694 l 274 694 l 254 324 q 258 200 250 253 q 292 117 267 147 q 363 88 317 88 q 436 107 401 88 q 496 156 471 126 l 524 694 l 672 694 l 644 194 q 646 150 644 171 q 656 117 647 129 q 683 104 665 104 q 708 110 694 104 q 738 129 721 115 l 772 82 q 731 41 757 63 q 674 5 706 19 q 608 -10 642 -10 q 540 15 564 -10 q 507 82 515 39 l 506 82 q 339 -15 429 -15 q 257 9 290 -15 q 203 79 224 33 l 200 79 q 210 -75 200 -3 q 228 -201 219 -147 q 235 -282 238 -254 q 215 -347 233 -317 q 154 -376 197 -376 z "},"%":{"ha":1224,"x_min":61,"x_max":1174,"o":"m 225 -24 l 150 51 l 986 994 l 1071 914 l 225 -24 m 310 456 q 169 494 225 456 q 88 592 114 532 q 64 721 61 653 q 101 848 68 786 q 194 951 135 910 q 335 994 253 993 q 476 957 421 996 q 557 858 531 918 q 579 733 583 797 q 539 597 576 661 q 442 494 501 533 q 310 456 382 456 m 315 536 q 369 556 347 536 q 403 604 390 575 q 422 665 415 633 q 428 724 428 697 q 425 790 429 756 q 410 852 421 824 q 380 897 399 881 q 331 914 361 914 q 274 894 297 914 q 239 843 251 874 q 222 781 226 813 q 215 728 217 750 q 219 667 215 700 q 233 603 222 633 q 264 555 244 574 q 315 536 283 536 m 897 -22 q 758 16 814 -22 q 677 115 703 54 q 654 242 651 175 q 691 369 658 307 q 783 474 724 432 q 924 517 842 515 q 1065 479 1010 518 q 1147 379 1121 440 q 1169 254 1174 318 q 1130 119 1167 183 q 1033 17 1093 56 q 897 -22 972 -22 m 904 58 q 972 90 947 58 q 1007 167 996 122 q 1018 246 1018 211 q 1015 311 1019 278 q 1000 373 1011 344 q 969 419 989 401 q 921 436 950 436 q 864 415 886 436 q 829 364 842 394 q 811 302 817 333 q 806 250 806 271 q 808 188 804 221 q 824 125 813 154 q 854 77 835 96 q 904 58 874 58 z "},"̈":{"ha":0,"x_min":76,"x_max":469,"o":"m 383 840 q 328 867 350 840 q 307 931 306 893 q 333 1001 307 972 q 394 1031 360 1031 q 449 1004 428 1031 q 469 940 469 978 q 443 869 468 899 q 383 840 418 840 m 154 840 q 99 867 121 840 q 78 931 76 893 q 104 1001 78 972 q 165 1031 131 1031 q 219 1004 199 1031 q 240 940 240 978 q 214 869 239 899 q 154 840 189 840 z "},"̀":{"ha":0,"x_min":60,"x_max":306,"o":"m 250 792 l 96 940 q 68 983 76 961 q 64 1026 60 1006 q 85 1063 68 1047 q 122 1077 101 1076 q 162 1067 142 1078 q 197 1029 182 1056 l 306 839 l 250 792 z "},"́":{"ha":0,"x_min":63,"x_max":321,"o":"m 114 792 l 63 839 l 181 1029 q 219 1067 197 1056 q 263 1078 242 1079 q 297 1063 283 1076 q 317 1026 314 1047 q 311 982 321 1006 q 279 939 301 958 l 114 792 z "},"̃":{"ha":0,"x_min":101,"x_max":583,"o":"m 161 850 l 101 888 q 167 981 122 946 q 257 1017 213 1017 q 326 1003 300 1018 q 374 973 351 988 q 429 958 396 958 q 480 976 456 957 q 524 1029 504 996 l 583 997 q 511 883 556 917 q 428 850 467 850 q 360 865 389 850 q 308 894 332 879 q 254 910 285 910 q 209 897 236 910 q 161 850 182 883 z "},"̄":{"ha":0,"x_min":63,"x_max":453,"o":"m 63 881 l 68 993 l 453 993 l 449 886 l 63 881 z "},"̉":{"ha":0,"x_min":96,"x_max":418,"o":"m 235 779 q 256 824 236 807 q 293 857 275 840 q 312 882 304 868 q 321 913 319 896 q 303 958 324 940 q 253 975 283 975 q 199 961 218 975 q 178 936 181 947 q 200 926 193 935 q 207 904 207 917 q 192 875 206 888 q 158 863 179 863 q 114 881 132 863 q 97 928 96 899 q 119 984 100 957 q 173 1029 138 1011 q 256 1047 208 1047 q 376 1013 335 1047 q 415 924 418 978 q 395 868 414 888 q 353 831 376 849 q 324 804 335 817 q 311 779 313 792 l 235 779 z "},"̣":{"ha":0,"x_min":49,"x_max":207,"o":"m 133 -101 q 187 -126 167 -101 q 206 -186 207 -151 q 181 -245 204 -221 q 125 -269 158 -269 q 69 -245 90 -269 q 50 -186 49 -221 q 78 -126 53 -151 q 133 -101 103 -101 z "},"¨":{"ha":547,"x_min":76,"x_max":469,"o":"m 383 840 q 328 867 350 840 q 307 931 306 893 q 333 1001 307 972 q 394 1031 360 1031 q 449 1004 428 1031 q 469 940 469 978 q 443 869 468 899 q 383 840 418 840 m 154 840 q 99 867 121 840 q 78 931 76 893 q 104 1001 78 972 q 165 1031 131 1031 q 219 1004 199 1031 q 240 940 240 978 q 214 869 239 899 q 154 840 189 840 z "},"`":{"ha":368,"x_min":60,"x_max":306,"o":"m 250 792 l 96 940 q 68 983 76 961 q 64 1026 60 1006 q 85 1063 68 1047 q 122 1077 101 1076 q 162 1067 142 1078 q 197 1029 182 1056 l 306 839 l 250 792 z "},"´":{"ha":382,"x_min":63,"x_max":321,"o":"m 114 792 l 63 839 l 181 1029 q 219 1067 197 1056 q 263 1078 242 1079 q 297 1063 283 1076 q 317 1026 314 1047 q 311 982 321 1006 q 279 939 301 958 l 114 792 z "},"ˆ":{"ha":606,"x_min":111,"x_max":571,"o":"m 518 797 l 344 946 l 343 946 l 154 803 l 111 858 l 356 1085 l 365 1085 l 571 853 l 518 797 z "},"˚":{"ha":439,"x_min":64,"x_max":376,"o":"m 213 785 q 142 801 176 785 q 85 851 107 818 q 64 931 64 883 q 88 1012 65 976 q 149 1068 111 1047 q 226 1089 186 1089 q 298 1073 264 1089 q 354 1026 332 1057 q 375 944 376 994 q 349 860 374 896 q 287 805 324 825 q 213 785 250 785 m 222 854 q 259 875 242 856 q 278 928 276 894 q 264 997 281 974 q 222 1021 247 1021 q 184 1001 201 1019 q 164 946 167 982 q 178 878 163 904 q 222 854 194 853 z "},"˜":{"ha":607,"x_min":101,"x_max":583,"o":"m 161 850 l 101 888 q 167 981 122 946 q 257 1017 213 1017 q 326 1003 300 1018 q 374 973 351 988 q 429 958 396 958 q 480 976 456 957 q 524 1029 504 996 l 583 997 q 511 883 556 917 q 428 850 467 850 q 360 865 389 850 q 308 894 332 879 q 254 910 285 910 q 209 897 236 910 q 161 850 182 883 z "},"¯":{"ha":515,"x_min":63,"x_max":453,"o":"m 63 881 l 68 993 l 453 993 l 449 886 l 63 881 z "},"¸":{"ha":442,"x_min":63,"x_max":381,"o":"m 69 -351 l 63 -289 q 115 -277 86 -285 q 172 -258 144 -269 q 218 -231 200 -247 q 238 -194 236 -215 q 220 -162 239 -169 q 177 -160 201 -154 q 136 -178 153 -165 l 86 -154 l 138 13 l 232 13 l 188 -100 q 235 -83 207 -89 q 283 -76 263 -76 q 353 -101 326 -76 q 378 -171 381 -125 q 340 -249 374 -217 q 258 -301 307 -281 q 159 -334 210 -322 q 69 -351 108 -346 z "},"ʼ":{"ha":181,"x_min":1,"x_max":210,"o":"m 99 1007 q 183 969 156 1008 q 207 874 210 931 q 192 783 207 832 q 147 681 176 733 q 74 579 118 629 l 28 614 q 66 673 46 636 q 100 752 86 710 q 114 833 114 794 q 99 831 106 832 q 83 829 92 829 q 26 851 50 829 q 1 911 1 872 q 31 979 4 951 q 99 1007 58 1007 z "},"ʻ":{"ha":349,"x_min":106,"x_max":315,"o":"m 217 757 q 133 794 161 756 q 108 890 106 832 q 124 981 110 931 q 169 1083 139 1031 q 242 1185 199 1135 l 288 1150 q 249 1091 269 1128 q 215 1012 229 1054 q 201 929 201 969 q 217 933 211 932 q 232 935 224 935 q 290 914 265 935 q 314 851 315 893 q 285 784 313 811 q 217 757 257 757 z "}}}
